M48
; DRILL file {KiCad (6.0.7)} date Tue Oct 25 14:45:06 2022
; FORMAT={-:-/ absolute / inch / decimal}
; #@! TF.CreationDate,2022-10-25T14:45:06+02:00
; #@! TF.GenerationSoftware,Kicad,Pcbnew,(6.0.7)
; #@! TF.FileFunction,Plated,1,2,PTH
FMAT,2
INCH
; #@! TA.AperFunction,Plated,PTH,ComponentDrill
T1C0.0315
; #@! TA.AperFunction,Plated,PTH,ComponentDrill
T2C0.0350
; #@! TA.AperFunction,Plated,PTH,ComponentDrill
T3C0.0354
; #@! TA.AperFunction,Plated,PTH,ComponentDrill
T4C0.0394
; #@! TA.AperFunction,Plated,PTH,ComponentDrill
T5C0.0433
; #@! TA.AperFunction,Plated,PTH,ComponentDrill
T6C0.0472
; #@! TA.AperFunction,Plated,PTH,ComponentDrill
T7C0.0512
%
G90
G05
T1
X4.4071Y-2.1472
X4.4071Y-2.7378
X5.1622Y-3.4488
X5.1638Y-3.6543
X5.5209Y-2.9122
X5.5622Y-3.4488
X5.5638Y-3.6543
X5.7177Y-2.9122
X5.8819Y-1.7291
X5.8819Y-2.1291
X6.9717Y-3.2067
X6.9717Y-3.4035
X6.974Y-2.6669
X6.974Y-3.0669
T2
X5.9382Y-3.0626
X5.9382Y-3.1626
X5.9382Y-3.2626
X5.9382Y-3.3626
X6.9795Y-1.9268
X6.9795Y-2.0268
X6.9795Y-2.1268
X6.9795Y-2.2268
T3
X3.1614Y-2.0433
X3.1614Y-2.2402
X3.1614Y-2.6339
X3.1614Y-2.8307
X3.9488Y-2.0433
X3.9488Y-2.2402
X3.9488Y-2.437
X3.9488Y-2.6339
X3.9488Y-2.8307
X5.8583Y-2.4213
X5.9583Y-2.4213
X6.147Y-1.7807
X6.147Y-1.8807
X6.147Y-1.9807
X6.147Y-2.0807
X6.147Y-2.1807
X6.147Y-2.2807
X6.147Y-2.3807
X6.147Y-2.4807
X6.147Y-2.5807
X6.147Y-2.6807
X6.147Y-2.7807
X6.147Y-2.8807
X6.147Y-2.9807
X6.147Y-3.0807
X6.147Y-3.1807
X6.747Y-1.7807
X6.747Y-1.8807
X6.747Y-1.9807
X6.747Y-2.0807
X6.747Y-2.1807
X6.747Y-2.2807
X6.747Y-2.3807
X6.747Y-2.4807
X6.747Y-2.5807
X6.747Y-2.6807
X6.747Y-2.7807
X6.747Y-2.8807
X6.747Y-2.9807
X6.747Y-3.0807
X6.747Y-3.1807
T4
X4.3291Y-1.728
X4.3291Y-1.9485
X4.5496Y-1.728
X4.5496Y-1.9485
X5.1398Y-2.924
X5.2398Y-2.924
X5.3398Y-2.924
T5
X5.2114Y-3.1843
X5.5114Y-3.1843
T6
X4.0504Y-3.5417
X4.3228Y-3.0709
X4.5197Y-3.0709
X4.9362Y-3.5417
T7
X3.3583Y-3.3138
X3.5583Y-3.3138
X3.7583Y-3.3138
T0
M30
