%TF.GenerationSoftware,KiCad,Pcbnew,(6.0.7)*%
%TF.CreationDate,2022-10-25T14:44:27+02:00*%
%TF.ProjectId,Affichage_Temp_Humidite,41666669-6368-4616-9765-5f54656d705f,rev?*%
%TF.SameCoordinates,PX4692680PY2625a00*%
%TF.FileFunction,Drillmap*%
%TF.FilePolarity,Positive*%
%FSLAX45Y45*%
G04 Gerber Fmt 4.5, Leading zero omitted, Abs format (unit mm)*
G04 Created by KiCad (PCBNEW (6.0.7)) date 2022-10-25 14:44:27*
%MOMM*%
%LPD*%
G01*
G04 APERTURE LIST*
%ADD10C,0.050000*%
%ADD11C,0.200000*%
%ADD12C,0.080000*%
%ADD13C,0.089000*%
%ADD14C,0.090000*%
%ADD15C,0.100000*%
%ADD16C,0.110000*%
%ADD17C,0.120000*%
%ADD18C,0.130000*%
G04 APERTURE END LIST*
D10*
X0Y0D02*
X10700000Y0D01*
X0Y0D02*
X0Y-5600000D01*
X0Y-5600000D02*
X10700000Y-5600000D01*
X10700000Y0D02*
X10700000Y-5600000D01*
D11*
D12*
X3754000Y-1414000D02*
X3834000Y-1494000D01*
X3834000Y-1414000D02*
X3754000Y-1494000D01*
X3754000Y-2914000D02*
X3834000Y-2994000D01*
X3834000Y-2914000D02*
X3754000Y-2994000D01*
X5672000Y-4720000D02*
X5752000Y-4800000D01*
X5752000Y-4720000D02*
X5672000Y-4800000D01*
X5676000Y-5242000D02*
X5756000Y-5322000D01*
X5756000Y-5242000D02*
X5676000Y-5322000D01*
X6583000Y-3357000D02*
X6663000Y-3437000D01*
X6663000Y-3357000D02*
X6583000Y-3437000D01*
X6688000Y-4720000D02*
X6768000Y-4800000D01*
X6768000Y-4720000D02*
X6688000Y-4800000D01*
X6692000Y-5242000D02*
X6772000Y-5322000D01*
X6772000Y-5242000D02*
X6692000Y-5322000D01*
X7083000Y-3357000D02*
X7163000Y-3437000D01*
X7163000Y-3357000D02*
X7083000Y-3437000D01*
X7500000Y-352000D02*
X7580000Y-432000D01*
X7580000Y-352000D02*
X7500000Y-432000D01*
X7500000Y-1368000D02*
X7580000Y-1448000D01*
X7580000Y-1368000D02*
X7500000Y-1448000D01*
X10268000Y-4105000D02*
X10348000Y-4185000D01*
X10348000Y-4105000D02*
X10268000Y-4185000D01*
X10268000Y-4605000D02*
X10348000Y-4685000D01*
X10348000Y-4605000D02*
X10268000Y-4685000D01*
X10274000Y-2734000D02*
X10354000Y-2814000D01*
X10354000Y-2734000D02*
X10274000Y-2814000D01*
X10274000Y-3750000D02*
X10354000Y-3830000D01*
X10354000Y-3750000D02*
X10274000Y-3830000D01*
D13*
X7727500Y-3779000D02*
G75*
G03*
X7727500Y-3779000I-44500J0D01*
G01*
X7727500Y-4033000D02*
G75*
G03*
X7727500Y-4033000I-44500J0D01*
G01*
X7727500Y-4287000D02*
G75*
G03*
X7727500Y-4287000I-44500J0D01*
G01*
X7727500Y-4541000D02*
G75*
G03*
X7727500Y-4541000I-44500J0D01*
G01*
X10372500Y-894000D02*
G75*
G03*
X10372500Y-894000I-44500J0D01*
G01*
X10372500Y-1148000D02*
G75*
G03*
X10372500Y-1148000I-44500J0D01*
G01*
X10372500Y-1402000D02*
G75*
G03*
X10372500Y-1402000I-44500J0D01*
G01*
X10372500Y-1656000D02*
G75*
G03*
X10372500Y-1656000I-44500J0D01*
G01*
D14*
X630000Y-1145000D02*
X630000Y-1235000D01*
X585000Y-1190000D02*
X675000Y-1190000D01*
X630000Y-1645000D02*
X630000Y-1735000D01*
X585000Y-1690000D02*
X675000Y-1690000D01*
X630000Y-2645000D02*
X630000Y-2735000D01*
X585000Y-2690000D02*
X675000Y-2690000D01*
X630000Y-3145000D02*
X630000Y-3235000D01*
X585000Y-3190000D02*
X675000Y-3190000D01*
X2630000Y-1145000D02*
X2630000Y-1235000D01*
X2585000Y-1190000D02*
X2675000Y-1190000D01*
X2630000Y-1645000D02*
X2630000Y-1735000D01*
X2585000Y-1690000D02*
X2675000Y-1690000D01*
X2630000Y-2145000D02*
X2630000Y-2235000D01*
X2585000Y-2190000D02*
X2675000Y-2190000D01*
X2630000Y-2645000D02*
X2630000Y-2735000D01*
X2585000Y-2690000D02*
X2675000Y-2690000D01*
X2630000Y-3145000D02*
X2630000Y-3235000D01*
X2585000Y-3190000D02*
X2675000Y-3190000D01*
X7480000Y-2105000D02*
X7480000Y-2195000D01*
X7435000Y-2150000D02*
X7525000Y-2150000D01*
X7734000Y-2105000D02*
X7734000Y-2195000D01*
X7689000Y-2150000D02*
X7779000Y-2150000D01*
X8213500Y-478000D02*
X8213500Y-568000D01*
X8168500Y-523000D02*
X8258500Y-523000D01*
X8213500Y-732000D02*
X8213500Y-822000D01*
X8168500Y-777000D02*
X8258500Y-777000D01*
X8213500Y-986000D02*
X8213500Y-1076000D01*
X8168500Y-1031000D02*
X8258500Y-1031000D01*
X8213500Y-1240000D02*
X8213500Y-1330000D01*
X8168500Y-1285000D02*
X8258500Y-1285000D01*
X8213500Y-1494000D02*
X8213500Y-1584000D01*
X8168500Y-1539000D02*
X8258500Y-1539000D01*
X8213500Y-1748000D02*
X8213500Y-1838000D01*
X8168500Y-1793000D02*
X8258500Y-1793000D01*
X8213500Y-2002000D02*
X8213500Y-2092000D01*
X8168500Y-2047000D02*
X8258500Y-2047000D01*
X8213500Y-2256000D02*
X8213500Y-2346000D01*
X8168500Y-2301000D02*
X8258500Y-2301000D01*
X8213500Y-2510000D02*
X8213500Y-2600000D01*
X8168500Y-2555000D02*
X8258500Y-2555000D01*
X8213500Y-2764000D02*
X8213500Y-2854000D01*
X8168500Y-2809000D02*
X8258500Y-2809000D01*
X8213500Y-3018000D02*
X8213500Y-3108000D01*
X8168500Y-3063000D02*
X8258500Y-3063000D01*
X8213500Y-3272000D02*
X8213500Y-3362000D01*
X8168500Y-3317000D02*
X8258500Y-3317000D01*
X8213500Y-3526000D02*
X8213500Y-3616000D01*
X8168500Y-3571000D02*
X8258500Y-3571000D01*
X8213500Y-3780000D02*
X8213500Y-3870000D01*
X8168500Y-3825000D02*
X8258500Y-3825000D01*
X8213500Y-4034000D02*
X8213500Y-4124000D01*
X8168500Y-4079000D02*
X8258500Y-4079000D01*
X9737500Y-478000D02*
X9737500Y-568000D01*
X9692500Y-523000D02*
X9782500Y-523000D01*
X9737500Y-732000D02*
X9737500Y-822000D01*
X9692500Y-777000D02*
X9782500Y-777000D01*
X9737500Y-986000D02*
X9737500Y-1076000D01*
X9692500Y-1031000D02*
X9782500Y-1031000D01*
X9737500Y-1240000D02*
X9737500Y-1330000D01*
X9692500Y-1285000D02*
X9782500Y-1285000D01*
X9737500Y-1494000D02*
X9737500Y-1584000D01*
X9692500Y-1539000D02*
X9782500Y-1539000D01*
X9737500Y-1748000D02*
X9737500Y-1838000D01*
X9692500Y-1793000D02*
X9782500Y-1793000D01*
X9737500Y-2002000D02*
X9737500Y-2092000D01*
X9692500Y-2047000D02*
X9782500Y-2047000D01*
X9737500Y-2256000D02*
X9737500Y-2346000D01*
X9692500Y-2301000D02*
X9782500Y-2301000D01*
X9737500Y-2510000D02*
X9737500Y-2600000D01*
X9692500Y-2555000D02*
X9782500Y-2555000D01*
X9737500Y-2764000D02*
X9737500Y-2854000D01*
X9692500Y-2809000D02*
X9782500Y-2809000D01*
X9737500Y-3018000D02*
X9737500Y-3108000D01*
X9692500Y-3063000D02*
X9782500Y-3063000D01*
X9737500Y-3272000D02*
X9737500Y-3362000D01*
X9692500Y-3317000D02*
X9782500Y-3317000D01*
X9737500Y-3526000D02*
X9737500Y-3616000D01*
X9692500Y-3571000D02*
X9782500Y-3571000D01*
X9737500Y-3780000D02*
X9737500Y-3870000D01*
X9692500Y-3825000D02*
X9782500Y-3825000D01*
X9737500Y-4034000D02*
X9737500Y-4124000D01*
X9692500Y-4079000D02*
X9782500Y-4079000D01*
D15*
X3631386Y-424596D02*
X3631386Y-353884D01*
X3560674Y-353884D01*
X3560674Y-424596D01*
X3631386Y-424596D01*
X3631386Y-984596D02*
X3631386Y-913884D01*
X3560674Y-913884D01*
X3560674Y-984596D01*
X3631386Y-984596D01*
X4191386Y-424596D02*
X4191386Y-353884D01*
X4120674Y-353884D01*
X4120674Y-424596D01*
X4191386Y-424596D01*
X4191386Y-984596D02*
X4191386Y-913884D01*
X4120674Y-913884D01*
X4120674Y-984596D01*
X4191386Y-984596D01*
X5690356Y-3462356D02*
X5690356Y-3391644D01*
X5619644Y-3391644D01*
X5619644Y-3462356D01*
X5690356Y-3462356D01*
X5944356Y-3462356D02*
X5944356Y-3391644D01*
X5873644Y-3391644D01*
X5873644Y-3462356D01*
X5944356Y-3462356D01*
X6198356Y-3462356D02*
X6198356Y-3391644D01*
X6127644Y-3391644D01*
X6127644Y-3462356D01*
X6198356Y-3462356D01*
D16*
X5837000Y-4143000D02*
X5892000Y-4088000D01*
X5837000Y-4033000D01*
X5782000Y-4088000D01*
X5837000Y-4143000D01*
X6599000Y-4143000D02*
X6654000Y-4088000D01*
X6599000Y-4033000D01*
X6544000Y-4088000D01*
X6599000Y-4143000D01*
D17*
X2828000Y-4936000D02*
X2948000Y-5056000D01*
X2948000Y-4936000D02*
X2828000Y-5056000D01*
X2948000Y-4996000D02*
G75*
G03*
X2948000Y-4996000I-60000J0D01*
G01*
X3520000Y-3740000D02*
X3640000Y-3860000D01*
X3640000Y-3740000D02*
X3520000Y-3860000D01*
X3640000Y-3800000D02*
G75*
G03*
X3640000Y-3800000I-60000J0D01*
G01*
X4020000Y-3740000D02*
X4140000Y-3860000D01*
X4140000Y-3740000D02*
X4020000Y-3860000D01*
X4140000Y-3800000D02*
G75*
G03*
X4140000Y-3800000I-60000J0D01*
G01*
X5078000Y-4936000D02*
X5198000Y-5056000D01*
X5198000Y-4936000D02*
X5078000Y-5056000D01*
X5198000Y-4996000D02*
G75*
G03*
X5198000Y-4996000I-60000J0D01*
G01*
D18*
X1065000Y-4352000D02*
X1195000Y-4482000D01*
X1195000Y-4352000D02*
X1065000Y-4482000D01*
X1130000Y-4352000D02*
X1130000Y-4482000D01*
X1065000Y-4417000D02*
X1195000Y-4417000D01*
X1573000Y-4352000D02*
X1703000Y-4482000D01*
X1703000Y-4352000D02*
X1573000Y-4482000D01*
X1638000Y-4352000D02*
X1638000Y-4482000D01*
X1573000Y-4417000D02*
X1703000Y-4417000D01*
X2081000Y-4352000D02*
X2211000Y-4482000D01*
X2211000Y-4352000D02*
X2081000Y-4482000D01*
X2146000Y-4352000D02*
X2146000Y-4482000D01*
X2081000Y-4417000D02*
X2211000Y-4417000D01*
D11*
X255119Y-5912976D02*
X255119Y-5712976D01*
X302738Y-5712976D01*
X331310Y-5722500D01*
X350357Y-5741548D01*
X359881Y-5760595D01*
X369405Y-5798690D01*
X369405Y-5827262D01*
X359881Y-5865357D01*
X350357Y-5884405D01*
X331310Y-5903452D01*
X302738Y-5912976D01*
X255119Y-5912976D01*
X455119Y-5912976D02*
X455119Y-5779643D01*
X455119Y-5817738D02*
X464643Y-5798690D01*
X474167Y-5789167D01*
X493214Y-5779643D01*
X512262Y-5779643D01*
X578929Y-5912976D02*
X578929Y-5779643D01*
X578929Y-5712976D02*
X569405Y-5722500D01*
X578929Y-5732024D01*
X588452Y-5722500D01*
X578929Y-5712976D01*
X578929Y-5732024D01*
X702738Y-5912976D02*
X683690Y-5903452D01*
X674167Y-5884405D01*
X674167Y-5712976D01*
X807500Y-5912976D02*
X788452Y-5903452D01*
X778928Y-5884405D01*
X778928Y-5712976D01*
X1036071Y-5912976D02*
X1036071Y-5712976D01*
X1102738Y-5855833D01*
X1169405Y-5712976D01*
X1169405Y-5912976D01*
X1350357Y-5912976D02*
X1350357Y-5808214D01*
X1340833Y-5789167D01*
X1321786Y-5779643D01*
X1283690Y-5779643D01*
X1264643Y-5789167D01*
X1350357Y-5903452D02*
X1331310Y-5912976D01*
X1283690Y-5912976D01*
X1264643Y-5903452D01*
X1255119Y-5884405D01*
X1255119Y-5865357D01*
X1264643Y-5846309D01*
X1283690Y-5836786D01*
X1331310Y-5836786D01*
X1350357Y-5827262D01*
X1445595Y-5779643D02*
X1445595Y-5979643D01*
X1445595Y-5789167D02*
X1464643Y-5779643D01*
X1502738Y-5779643D01*
X1521786Y-5789167D01*
X1531309Y-5798690D01*
X1540833Y-5817738D01*
X1540833Y-5874881D01*
X1531309Y-5893928D01*
X1521786Y-5903452D01*
X1502738Y-5912976D01*
X1464643Y-5912976D01*
X1445595Y-5903452D01*
X1626548Y-5893928D02*
X1636071Y-5903452D01*
X1626548Y-5912976D01*
X1617024Y-5903452D01*
X1626548Y-5893928D01*
X1626548Y-5912976D01*
X1626548Y-5789167D02*
X1636071Y-5798690D01*
X1626548Y-5808214D01*
X1617024Y-5798690D01*
X1626548Y-5789167D01*
X1626548Y-5808214D01*
D12*
X-82500Y-6202500D02*
X-2500Y-6282500D01*
X-2500Y-6202500D02*
X-82500Y-6282500D01*
D11*
X293214Y-6132976D02*
X312262Y-6132976D01*
X331310Y-6142500D01*
X340833Y-6152024D01*
X350357Y-6171071D01*
X359881Y-6209167D01*
X359881Y-6256786D01*
X350357Y-6294881D01*
X340833Y-6313928D01*
X331310Y-6323452D01*
X312262Y-6332976D01*
X293214Y-6332976D01*
X274167Y-6323452D01*
X264643Y-6313928D01*
X255119Y-6294881D01*
X245595Y-6256786D01*
X245595Y-6209167D01*
X255119Y-6171071D01*
X264643Y-6152024D01*
X274167Y-6142500D01*
X293214Y-6132976D01*
X445595Y-6313928D02*
X455119Y-6323452D01*
X445595Y-6332976D01*
X436071Y-6323452D01*
X445595Y-6313928D01*
X445595Y-6332976D01*
X569405Y-6218690D02*
X550357Y-6209167D01*
X540833Y-6199643D01*
X531310Y-6180595D01*
X531310Y-6171071D01*
X540833Y-6152024D01*
X550357Y-6142500D01*
X569405Y-6132976D01*
X607500Y-6132976D01*
X626548Y-6142500D01*
X636071Y-6152024D01*
X645595Y-6171071D01*
X645595Y-6180595D01*
X636071Y-6199643D01*
X626548Y-6209167D01*
X607500Y-6218690D01*
X569405Y-6218690D01*
X550357Y-6228214D01*
X540833Y-6237738D01*
X531310Y-6256786D01*
X531310Y-6294881D01*
X540833Y-6313928D01*
X550357Y-6323452D01*
X569405Y-6332976D01*
X607500Y-6332976D01*
X626548Y-6323452D01*
X636071Y-6313928D01*
X645595Y-6294881D01*
X645595Y-6256786D01*
X636071Y-6237738D01*
X626548Y-6228214D01*
X607500Y-6218690D01*
X769405Y-6132976D02*
X788452Y-6132976D01*
X807500Y-6142500D01*
X817024Y-6152024D01*
X826548Y-6171071D01*
X836071Y-6209167D01*
X836071Y-6256786D01*
X826548Y-6294881D01*
X817024Y-6313928D01*
X807500Y-6323452D01*
X788452Y-6332976D01*
X769405Y-6332976D01*
X750357Y-6323452D01*
X740833Y-6313928D01*
X731309Y-6294881D01*
X721786Y-6256786D01*
X721786Y-6209167D01*
X731309Y-6171071D01*
X740833Y-6152024D01*
X750357Y-6142500D01*
X769405Y-6132976D01*
X959881Y-6132976D02*
X978928Y-6132976D01*
X997976Y-6142500D01*
X1007500Y-6152024D01*
X1017024Y-6171071D01*
X1026548Y-6209167D01*
X1026548Y-6256786D01*
X1017024Y-6294881D01*
X1007500Y-6313928D01*
X997976Y-6323452D01*
X978928Y-6332976D01*
X959881Y-6332976D01*
X940833Y-6323452D01*
X931309Y-6313928D01*
X921786Y-6294881D01*
X912262Y-6256786D01*
X912262Y-6209167D01*
X921786Y-6171071D01*
X931309Y-6152024D01*
X940833Y-6142500D01*
X959881Y-6132976D01*
X1112262Y-6332976D02*
X1112262Y-6199643D01*
X1112262Y-6218690D02*
X1121786Y-6209167D01*
X1140833Y-6199643D01*
X1169405Y-6199643D01*
X1188452Y-6209167D01*
X1197976Y-6228214D01*
X1197976Y-6332976D01*
X1197976Y-6228214D02*
X1207500Y-6209167D01*
X1226548Y-6199643D01*
X1255119Y-6199643D01*
X1274167Y-6209167D01*
X1283690Y-6228214D01*
X1283690Y-6332976D01*
X1378929Y-6332976D02*
X1378929Y-6199643D01*
X1378929Y-6218690D02*
X1388452Y-6209167D01*
X1407500Y-6199643D01*
X1436071Y-6199643D01*
X1455119Y-6209167D01*
X1464643Y-6228214D01*
X1464643Y-6332976D01*
X1464643Y-6228214D02*
X1474167Y-6209167D01*
X1493214Y-6199643D01*
X1521786Y-6199643D01*
X1540833Y-6209167D01*
X1550357Y-6228214D01*
X1550357Y-6332976D01*
X1940833Y-6123452D02*
X1769405Y-6380595D01*
X2197976Y-6132976D02*
X2217024Y-6132976D01*
X2236071Y-6142500D01*
X2245595Y-6152024D01*
X2255119Y-6171071D01*
X2264643Y-6209167D01*
X2264643Y-6256786D01*
X2255119Y-6294881D01*
X2245595Y-6313928D01*
X2236071Y-6323452D01*
X2217024Y-6332976D01*
X2197976Y-6332976D01*
X2178929Y-6323452D01*
X2169405Y-6313928D01*
X2159881Y-6294881D01*
X2150357Y-6256786D01*
X2150357Y-6209167D01*
X2159881Y-6171071D01*
X2169405Y-6152024D01*
X2178929Y-6142500D01*
X2197976Y-6132976D01*
X2350357Y-6313928D02*
X2359881Y-6323452D01*
X2350357Y-6332976D01*
X2340833Y-6323452D01*
X2350357Y-6313928D01*
X2350357Y-6332976D01*
X2483690Y-6132976D02*
X2502738Y-6132976D01*
X2521786Y-6142500D01*
X2531310Y-6152024D01*
X2540833Y-6171071D01*
X2550357Y-6209167D01*
X2550357Y-6256786D01*
X2540833Y-6294881D01*
X2531310Y-6313928D01*
X2521786Y-6323452D01*
X2502738Y-6332976D01*
X2483690Y-6332976D01*
X2464643Y-6323452D01*
X2455119Y-6313928D01*
X2445595Y-6294881D01*
X2436071Y-6256786D01*
X2436071Y-6209167D01*
X2445595Y-6171071D01*
X2455119Y-6152024D01*
X2464643Y-6142500D01*
X2483690Y-6132976D01*
X2617024Y-6132976D02*
X2740833Y-6132976D01*
X2674167Y-6209167D01*
X2702738Y-6209167D01*
X2721786Y-6218690D01*
X2731310Y-6228214D01*
X2740833Y-6247262D01*
X2740833Y-6294881D01*
X2731310Y-6313928D01*
X2721786Y-6323452D01*
X2702738Y-6332976D01*
X2645595Y-6332976D01*
X2626548Y-6323452D01*
X2617024Y-6313928D01*
X2931309Y-6332976D02*
X2817024Y-6332976D01*
X2874167Y-6332976D02*
X2874167Y-6132976D01*
X2855119Y-6161548D01*
X2836071Y-6180595D01*
X2817024Y-6190119D01*
X3112262Y-6132976D02*
X3017024Y-6132976D01*
X3007500Y-6228214D01*
X3017024Y-6218690D01*
X3036071Y-6209167D01*
X3083690Y-6209167D01*
X3102738Y-6218690D01*
X3112262Y-6228214D01*
X3121786Y-6247262D01*
X3121786Y-6294881D01*
X3112262Y-6313928D01*
X3102738Y-6323452D01*
X3083690Y-6332976D01*
X3036071Y-6332976D01*
X3017024Y-6323452D01*
X3007500Y-6313928D01*
X3197976Y-6132976D02*
X3197976Y-6171071D01*
X3274167Y-6132976D02*
X3274167Y-6171071D01*
X3569405Y-6409167D02*
X3559881Y-6399643D01*
X3540833Y-6371071D01*
X3531309Y-6352024D01*
X3521786Y-6323452D01*
X3512262Y-6275833D01*
X3512262Y-6237738D01*
X3521786Y-6190119D01*
X3531309Y-6161548D01*
X3540833Y-6142500D01*
X3559881Y-6113928D01*
X3569405Y-6104405D01*
X3750357Y-6332976D02*
X3636071Y-6332976D01*
X3693214Y-6332976D02*
X3693214Y-6132976D01*
X3674167Y-6161548D01*
X3655119Y-6180595D01*
X3636071Y-6190119D01*
X3921786Y-6199643D02*
X3921786Y-6332976D01*
X3874167Y-6123452D02*
X3826548Y-6266309D01*
X3950357Y-6266309D01*
X4178928Y-6332976D02*
X4178928Y-6132976D01*
X4264643Y-6332976D02*
X4264643Y-6228214D01*
X4255119Y-6209167D01*
X4236071Y-6199643D01*
X4207500Y-6199643D01*
X4188452Y-6209167D01*
X4178928Y-6218690D01*
X4388452Y-6332976D02*
X4369405Y-6323452D01*
X4359881Y-6313928D01*
X4350357Y-6294881D01*
X4350357Y-6237738D01*
X4359881Y-6218690D01*
X4369405Y-6209167D01*
X4388452Y-6199643D01*
X4417024Y-6199643D01*
X4436071Y-6209167D01*
X4445595Y-6218690D01*
X4455119Y-6237738D01*
X4455119Y-6294881D01*
X4445595Y-6313928D01*
X4436071Y-6323452D01*
X4417024Y-6332976D01*
X4388452Y-6332976D01*
X4569405Y-6332976D02*
X4550357Y-6323452D01*
X4540833Y-6304405D01*
X4540833Y-6132976D01*
X4721786Y-6323452D02*
X4702738Y-6332976D01*
X4664643Y-6332976D01*
X4645595Y-6323452D01*
X4636071Y-6304405D01*
X4636071Y-6228214D01*
X4645595Y-6209167D01*
X4664643Y-6199643D01*
X4702738Y-6199643D01*
X4721786Y-6209167D01*
X4731310Y-6228214D01*
X4731310Y-6247262D01*
X4636071Y-6266309D01*
X4807500Y-6323452D02*
X4826548Y-6332976D01*
X4864643Y-6332976D01*
X4883690Y-6323452D01*
X4893214Y-6304405D01*
X4893214Y-6294881D01*
X4883690Y-6275833D01*
X4864643Y-6266309D01*
X4836071Y-6266309D01*
X4817024Y-6256786D01*
X4807500Y-6237738D01*
X4807500Y-6228214D01*
X4817024Y-6209167D01*
X4836071Y-6199643D01*
X4864643Y-6199643D01*
X4883690Y-6209167D01*
X4959881Y-6409167D02*
X4969405Y-6399643D01*
X4988452Y-6371071D01*
X4997976Y-6352024D01*
X5007500Y-6323452D01*
X5017024Y-6275833D01*
X5017024Y-6237738D01*
X5007500Y-6190119D01*
X4997976Y-6161548D01*
X4988452Y-6142500D01*
X4969405Y-6113928D01*
X4959881Y-6104405D01*
D13*
X-2500Y-6506500D02*
G75*
G03*
X-2500Y-6506500I-44500J0D01*
G01*
D11*
X293214Y-6396976D02*
X312262Y-6396976D01*
X331310Y-6406500D01*
X340833Y-6416024D01*
X350357Y-6435071D01*
X359881Y-6473167D01*
X359881Y-6520786D01*
X350357Y-6558881D01*
X340833Y-6577928D01*
X331310Y-6587452D01*
X312262Y-6596976D01*
X293214Y-6596976D01*
X274167Y-6587452D01*
X264643Y-6577928D01*
X255119Y-6558881D01*
X245595Y-6520786D01*
X245595Y-6473167D01*
X255119Y-6435071D01*
X264643Y-6416024D01*
X274167Y-6406500D01*
X293214Y-6396976D01*
X445595Y-6577928D02*
X455119Y-6587452D01*
X445595Y-6596976D01*
X436071Y-6587452D01*
X445595Y-6577928D01*
X445595Y-6596976D01*
X569405Y-6482690D02*
X550357Y-6473167D01*
X540833Y-6463643D01*
X531310Y-6444595D01*
X531310Y-6435071D01*
X540833Y-6416024D01*
X550357Y-6406500D01*
X569405Y-6396976D01*
X607500Y-6396976D01*
X626548Y-6406500D01*
X636071Y-6416024D01*
X645595Y-6435071D01*
X645595Y-6444595D01*
X636071Y-6463643D01*
X626548Y-6473167D01*
X607500Y-6482690D01*
X569405Y-6482690D01*
X550357Y-6492214D01*
X540833Y-6501738D01*
X531310Y-6520786D01*
X531310Y-6558881D01*
X540833Y-6577928D01*
X550357Y-6587452D01*
X569405Y-6596976D01*
X607500Y-6596976D01*
X626548Y-6587452D01*
X636071Y-6577928D01*
X645595Y-6558881D01*
X645595Y-6520786D01*
X636071Y-6501738D01*
X626548Y-6492214D01*
X607500Y-6482690D01*
X740833Y-6596976D02*
X778928Y-6596976D01*
X797976Y-6587452D01*
X807500Y-6577928D01*
X826548Y-6549357D01*
X836071Y-6511262D01*
X836071Y-6435071D01*
X826548Y-6416024D01*
X817024Y-6406500D01*
X797976Y-6396976D01*
X759881Y-6396976D01*
X740833Y-6406500D01*
X731309Y-6416024D01*
X721786Y-6435071D01*
X721786Y-6482690D01*
X731309Y-6501738D01*
X740833Y-6511262D01*
X759881Y-6520786D01*
X797976Y-6520786D01*
X817024Y-6511262D01*
X826548Y-6501738D01*
X836071Y-6482690D01*
X959881Y-6396976D02*
X978928Y-6396976D01*
X997976Y-6406500D01*
X1007500Y-6416024D01*
X1017024Y-6435071D01*
X1026548Y-6473167D01*
X1026548Y-6520786D01*
X1017024Y-6558881D01*
X1007500Y-6577928D01*
X997976Y-6587452D01*
X978928Y-6596976D01*
X959881Y-6596976D01*
X940833Y-6587452D01*
X931309Y-6577928D01*
X921786Y-6558881D01*
X912262Y-6520786D01*
X912262Y-6473167D01*
X921786Y-6435071D01*
X931309Y-6416024D01*
X940833Y-6406500D01*
X959881Y-6396976D01*
X1112262Y-6596976D02*
X1112262Y-6463643D01*
X1112262Y-6482690D02*
X1121786Y-6473167D01*
X1140833Y-6463643D01*
X1169405Y-6463643D01*
X1188452Y-6473167D01*
X1197976Y-6492214D01*
X1197976Y-6596976D01*
X1197976Y-6492214D02*
X1207500Y-6473167D01*
X1226548Y-6463643D01*
X1255119Y-6463643D01*
X1274167Y-6473167D01*
X1283690Y-6492214D01*
X1283690Y-6596976D01*
X1378929Y-6596976D02*
X1378929Y-6463643D01*
X1378929Y-6482690D02*
X1388452Y-6473167D01*
X1407500Y-6463643D01*
X1436071Y-6463643D01*
X1455119Y-6473167D01*
X1464643Y-6492214D01*
X1464643Y-6596976D01*
X1464643Y-6492214D02*
X1474167Y-6473167D01*
X1493214Y-6463643D01*
X1521786Y-6463643D01*
X1540833Y-6473167D01*
X1550357Y-6492214D01*
X1550357Y-6596976D01*
X1940833Y-6387452D02*
X1769405Y-6644595D01*
X2197976Y-6396976D02*
X2217024Y-6396976D01*
X2236071Y-6406500D01*
X2245595Y-6416024D01*
X2255119Y-6435071D01*
X2264643Y-6473167D01*
X2264643Y-6520786D01*
X2255119Y-6558881D01*
X2245595Y-6577928D01*
X2236071Y-6587452D01*
X2217024Y-6596976D01*
X2197976Y-6596976D01*
X2178929Y-6587452D01*
X2169405Y-6577928D01*
X2159881Y-6558881D01*
X2150357Y-6520786D01*
X2150357Y-6473167D01*
X2159881Y-6435071D01*
X2169405Y-6416024D01*
X2178929Y-6406500D01*
X2197976Y-6396976D01*
X2350357Y-6577928D02*
X2359881Y-6587452D01*
X2350357Y-6596976D01*
X2340833Y-6587452D01*
X2350357Y-6577928D01*
X2350357Y-6596976D01*
X2483690Y-6396976D02*
X2502738Y-6396976D01*
X2521786Y-6406500D01*
X2531310Y-6416024D01*
X2540833Y-6435071D01*
X2550357Y-6473167D01*
X2550357Y-6520786D01*
X2540833Y-6558881D01*
X2531310Y-6577928D01*
X2521786Y-6587452D01*
X2502738Y-6596976D01*
X2483690Y-6596976D01*
X2464643Y-6587452D01*
X2455119Y-6577928D01*
X2445595Y-6558881D01*
X2436071Y-6520786D01*
X2436071Y-6473167D01*
X2445595Y-6435071D01*
X2455119Y-6416024D01*
X2464643Y-6406500D01*
X2483690Y-6396976D01*
X2617024Y-6396976D02*
X2740833Y-6396976D01*
X2674167Y-6473167D01*
X2702738Y-6473167D01*
X2721786Y-6482690D01*
X2731310Y-6492214D01*
X2740833Y-6511262D01*
X2740833Y-6558881D01*
X2731310Y-6577928D01*
X2721786Y-6587452D01*
X2702738Y-6596976D01*
X2645595Y-6596976D01*
X2626548Y-6587452D01*
X2617024Y-6577928D01*
X2921786Y-6396976D02*
X2826548Y-6396976D01*
X2817024Y-6492214D01*
X2826548Y-6482690D01*
X2845595Y-6473167D01*
X2893214Y-6473167D01*
X2912262Y-6482690D01*
X2921786Y-6492214D01*
X2931309Y-6511262D01*
X2931309Y-6558881D01*
X2921786Y-6577928D01*
X2912262Y-6587452D01*
X2893214Y-6596976D01*
X2845595Y-6596976D01*
X2826548Y-6587452D01*
X2817024Y-6577928D01*
X3055119Y-6396976D02*
X3074167Y-6396976D01*
X3093214Y-6406500D01*
X3102738Y-6416024D01*
X3112262Y-6435071D01*
X3121786Y-6473167D01*
X3121786Y-6520786D01*
X3112262Y-6558881D01*
X3102738Y-6577928D01*
X3093214Y-6587452D01*
X3074167Y-6596976D01*
X3055119Y-6596976D01*
X3036071Y-6587452D01*
X3026548Y-6577928D01*
X3017024Y-6558881D01*
X3007500Y-6520786D01*
X3007500Y-6473167D01*
X3017024Y-6435071D01*
X3026548Y-6416024D01*
X3036071Y-6406500D01*
X3055119Y-6396976D01*
X3197976Y-6396976D02*
X3197976Y-6435071D01*
X3274167Y-6396976D02*
X3274167Y-6435071D01*
X3569405Y-6673167D02*
X3559881Y-6663643D01*
X3540833Y-6635071D01*
X3531309Y-6616024D01*
X3521786Y-6587452D01*
X3512262Y-6539833D01*
X3512262Y-6501738D01*
X3521786Y-6454119D01*
X3531309Y-6425548D01*
X3540833Y-6406500D01*
X3559881Y-6377928D01*
X3569405Y-6368405D01*
X3674167Y-6482690D02*
X3655119Y-6473167D01*
X3645595Y-6463643D01*
X3636071Y-6444595D01*
X3636071Y-6435071D01*
X3645595Y-6416024D01*
X3655119Y-6406500D01*
X3674167Y-6396976D01*
X3712262Y-6396976D01*
X3731309Y-6406500D01*
X3740833Y-6416024D01*
X3750357Y-6435071D01*
X3750357Y-6444595D01*
X3740833Y-6463643D01*
X3731309Y-6473167D01*
X3712262Y-6482690D01*
X3674167Y-6482690D01*
X3655119Y-6492214D01*
X3645595Y-6501738D01*
X3636071Y-6520786D01*
X3636071Y-6558881D01*
X3645595Y-6577928D01*
X3655119Y-6587452D01*
X3674167Y-6596976D01*
X3712262Y-6596976D01*
X3731309Y-6587452D01*
X3740833Y-6577928D01*
X3750357Y-6558881D01*
X3750357Y-6520786D01*
X3740833Y-6501738D01*
X3731309Y-6492214D01*
X3712262Y-6482690D01*
X3988452Y-6596976D02*
X3988452Y-6396976D01*
X4074167Y-6596976D02*
X4074167Y-6492214D01*
X4064643Y-6473167D01*
X4045595Y-6463643D01*
X4017024Y-6463643D01*
X3997976Y-6473167D01*
X3988452Y-6482690D01*
X4197976Y-6596976D02*
X4178928Y-6587452D01*
X4169405Y-6577928D01*
X4159881Y-6558881D01*
X4159881Y-6501738D01*
X4169405Y-6482690D01*
X4178928Y-6473167D01*
X4197976Y-6463643D01*
X4226548Y-6463643D01*
X4245595Y-6473167D01*
X4255119Y-6482690D01*
X4264643Y-6501738D01*
X4264643Y-6558881D01*
X4255119Y-6577928D01*
X4245595Y-6587452D01*
X4226548Y-6596976D01*
X4197976Y-6596976D01*
X4378929Y-6596976D02*
X4359881Y-6587452D01*
X4350357Y-6568405D01*
X4350357Y-6396976D01*
X4531310Y-6587452D02*
X4512262Y-6596976D01*
X4474167Y-6596976D01*
X4455119Y-6587452D01*
X4445595Y-6568405D01*
X4445595Y-6492214D01*
X4455119Y-6473167D01*
X4474167Y-6463643D01*
X4512262Y-6463643D01*
X4531310Y-6473167D01*
X4540833Y-6492214D01*
X4540833Y-6511262D01*
X4445595Y-6530309D01*
X4617024Y-6587452D02*
X4636071Y-6596976D01*
X4674167Y-6596976D01*
X4693214Y-6587452D01*
X4702738Y-6568405D01*
X4702738Y-6558881D01*
X4693214Y-6539833D01*
X4674167Y-6530309D01*
X4645595Y-6530309D01*
X4626548Y-6520786D01*
X4617024Y-6501738D01*
X4617024Y-6492214D01*
X4626548Y-6473167D01*
X4645595Y-6463643D01*
X4674167Y-6463643D01*
X4693214Y-6473167D01*
X4769405Y-6673167D02*
X4778929Y-6663643D01*
X4797976Y-6635071D01*
X4807500Y-6616024D01*
X4817024Y-6587452D01*
X4826548Y-6539833D01*
X4826548Y-6501738D01*
X4817024Y-6454119D01*
X4807500Y-6425548D01*
X4797976Y-6406500D01*
X4778929Y-6377928D01*
X4769405Y-6368405D01*
D14*
X-47500Y-6725500D02*
X-47500Y-6815500D01*
X-92500Y-6770500D02*
X-2500Y-6770500D01*
D11*
X293214Y-6660976D02*
X312262Y-6660976D01*
X331310Y-6670500D01*
X340833Y-6680024D01*
X350357Y-6699071D01*
X359881Y-6737167D01*
X359881Y-6784786D01*
X350357Y-6822881D01*
X340833Y-6841928D01*
X331310Y-6851452D01*
X312262Y-6860976D01*
X293214Y-6860976D01*
X274167Y-6851452D01*
X264643Y-6841928D01*
X255119Y-6822881D01*
X245595Y-6784786D01*
X245595Y-6737167D01*
X255119Y-6699071D01*
X264643Y-6680024D01*
X274167Y-6670500D01*
X293214Y-6660976D01*
X445595Y-6841928D02*
X455119Y-6851452D01*
X445595Y-6860976D01*
X436071Y-6851452D01*
X445595Y-6841928D01*
X445595Y-6860976D01*
X550357Y-6860976D02*
X588452Y-6860976D01*
X607500Y-6851452D01*
X617024Y-6841928D01*
X636071Y-6813357D01*
X645595Y-6775262D01*
X645595Y-6699071D01*
X636071Y-6680024D01*
X626548Y-6670500D01*
X607500Y-6660976D01*
X569405Y-6660976D01*
X550357Y-6670500D01*
X540833Y-6680024D01*
X531310Y-6699071D01*
X531310Y-6746690D01*
X540833Y-6765738D01*
X550357Y-6775262D01*
X569405Y-6784786D01*
X607500Y-6784786D01*
X626548Y-6775262D01*
X636071Y-6765738D01*
X645595Y-6746690D01*
X769405Y-6660976D02*
X788452Y-6660976D01*
X807500Y-6670500D01*
X817024Y-6680024D01*
X826548Y-6699071D01*
X836071Y-6737167D01*
X836071Y-6784786D01*
X826548Y-6822881D01*
X817024Y-6841928D01*
X807500Y-6851452D01*
X788452Y-6860976D01*
X769405Y-6860976D01*
X750357Y-6851452D01*
X740833Y-6841928D01*
X731309Y-6822881D01*
X721786Y-6784786D01*
X721786Y-6737167D01*
X731309Y-6699071D01*
X740833Y-6680024D01*
X750357Y-6670500D01*
X769405Y-6660976D01*
X959881Y-6660976D02*
X978928Y-6660976D01*
X997976Y-6670500D01*
X1007500Y-6680024D01*
X1017024Y-6699071D01*
X1026548Y-6737167D01*
X1026548Y-6784786D01*
X1017024Y-6822881D01*
X1007500Y-6841928D01*
X997976Y-6851452D01*
X978928Y-6860976D01*
X959881Y-6860976D01*
X940833Y-6851452D01*
X931309Y-6841928D01*
X921786Y-6822881D01*
X912262Y-6784786D01*
X912262Y-6737167D01*
X921786Y-6699071D01*
X931309Y-6680024D01*
X940833Y-6670500D01*
X959881Y-6660976D01*
X1112262Y-6860976D02*
X1112262Y-6727643D01*
X1112262Y-6746690D02*
X1121786Y-6737167D01*
X1140833Y-6727643D01*
X1169405Y-6727643D01*
X1188452Y-6737167D01*
X1197976Y-6756214D01*
X1197976Y-6860976D01*
X1197976Y-6756214D02*
X1207500Y-6737167D01*
X1226548Y-6727643D01*
X1255119Y-6727643D01*
X1274167Y-6737167D01*
X1283690Y-6756214D01*
X1283690Y-6860976D01*
X1378929Y-6860976D02*
X1378929Y-6727643D01*
X1378929Y-6746690D02*
X1388452Y-6737167D01*
X1407500Y-6727643D01*
X1436071Y-6727643D01*
X1455119Y-6737167D01*
X1464643Y-6756214D01*
X1464643Y-6860976D01*
X1464643Y-6756214D02*
X1474167Y-6737167D01*
X1493214Y-6727643D01*
X1521786Y-6727643D01*
X1540833Y-6737167D01*
X1550357Y-6756214D01*
X1550357Y-6860976D01*
X1940833Y-6651452D02*
X1769405Y-6908595D01*
X2197976Y-6660976D02*
X2217024Y-6660976D01*
X2236071Y-6670500D01*
X2245595Y-6680024D01*
X2255119Y-6699071D01*
X2264643Y-6737167D01*
X2264643Y-6784786D01*
X2255119Y-6822881D01*
X2245595Y-6841928D01*
X2236071Y-6851452D01*
X2217024Y-6860976D01*
X2197976Y-6860976D01*
X2178929Y-6851452D01*
X2169405Y-6841928D01*
X2159881Y-6822881D01*
X2150357Y-6784786D01*
X2150357Y-6737167D01*
X2159881Y-6699071D01*
X2169405Y-6680024D01*
X2178929Y-6670500D01*
X2197976Y-6660976D01*
X2350357Y-6841928D02*
X2359881Y-6851452D01*
X2350357Y-6860976D01*
X2340833Y-6851452D01*
X2350357Y-6841928D01*
X2350357Y-6860976D01*
X2483690Y-6660976D02*
X2502738Y-6660976D01*
X2521786Y-6670500D01*
X2531310Y-6680024D01*
X2540833Y-6699071D01*
X2550357Y-6737167D01*
X2550357Y-6784786D01*
X2540833Y-6822881D01*
X2531310Y-6841928D01*
X2521786Y-6851452D01*
X2502738Y-6860976D01*
X2483690Y-6860976D01*
X2464643Y-6851452D01*
X2455119Y-6841928D01*
X2445595Y-6822881D01*
X2436071Y-6784786D01*
X2436071Y-6737167D01*
X2445595Y-6699071D01*
X2455119Y-6680024D01*
X2464643Y-6670500D01*
X2483690Y-6660976D01*
X2617024Y-6660976D02*
X2740833Y-6660976D01*
X2674167Y-6737167D01*
X2702738Y-6737167D01*
X2721786Y-6746690D01*
X2731310Y-6756214D01*
X2740833Y-6775262D01*
X2740833Y-6822881D01*
X2731310Y-6841928D01*
X2721786Y-6851452D01*
X2702738Y-6860976D01*
X2645595Y-6860976D01*
X2626548Y-6851452D01*
X2617024Y-6841928D01*
X2921786Y-6660976D02*
X2826548Y-6660976D01*
X2817024Y-6756214D01*
X2826548Y-6746690D01*
X2845595Y-6737167D01*
X2893214Y-6737167D01*
X2912262Y-6746690D01*
X2921786Y-6756214D01*
X2931309Y-6775262D01*
X2931309Y-6822881D01*
X2921786Y-6841928D01*
X2912262Y-6851452D01*
X2893214Y-6860976D01*
X2845595Y-6860976D01*
X2826548Y-6851452D01*
X2817024Y-6841928D01*
X3102738Y-6727643D02*
X3102738Y-6860976D01*
X3055119Y-6651452D02*
X3007500Y-6794309D01*
X3131309Y-6794309D01*
X3197976Y-6660976D02*
X3197976Y-6699071D01*
X3274167Y-6660976D02*
X3274167Y-6699071D01*
X3569405Y-6937167D02*
X3559881Y-6927643D01*
X3540833Y-6899071D01*
X3531309Y-6880024D01*
X3521786Y-6851452D01*
X3512262Y-6803833D01*
X3512262Y-6765738D01*
X3521786Y-6718119D01*
X3531309Y-6689548D01*
X3540833Y-6670500D01*
X3559881Y-6641928D01*
X3569405Y-6632405D01*
X3731309Y-6727643D02*
X3731309Y-6860976D01*
X3683690Y-6651452D02*
X3636071Y-6794309D01*
X3759881Y-6794309D01*
X3940833Y-6860976D02*
X3826548Y-6860976D01*
X3883690Y-6860976D02*
X3883690Y-6660976D01*
X3864643Y-6689548D01*
X3845595Y-6708595D01*
X3826548Y-6718119D01*
X4178928Y-6860976D02*
X4178928Y-6660976D01*
X4264643Y-6860976D02*
X4264643Y-6756214D01*
X4255119Y-6737167D01*
X4236071Y-6727643D01*
X4207500Y-6727643D01*
X4188452Y-6737167D01*
X4178928Y-6746690D01*
X4388452Y-6860976D02*
X4369405Y-6851452D01*
X4359881Y-6841928D01*
X4350357Y-6822881D01*
X4350357Y-6765738D01*
X4359881Y-6746690D01*
X4369405Y-6737167D01*
X4388452Y-6727643D01*
X4417024Y-6727643D01*
X4436071Y-6737167D01*
X4445595Y-6746690D01*
X4455119Y-6765738D01*
X4455119Y-6822881D01*
X4445595Y-6841928D01*
X4436071Y-6851452D01*
X4417024Y-6860976D01*
X4388452Y-6860976D01*
X4569405Y-6860976D02*
X4550357Y-6851452D01*
X4540833Y-6832405D01*
X4540833Y-6660976D01*
X4721786Y-6851452D02*
X4702738Y-6860976D01*
X4664643Y-6860976D01*
X4645595Y-6851452D01*
X4636071Y-6832405D01*
X4636071Y-6756214D01*
X4645595Y-6737167D01*
X4664643Y-6727643D01*
X4702738Y-6727643D01*
X4721786Y-6737167D01*
X4731310Y-6756214D01*
X4731310Y-6775262D01*
X4636071Y-6794309D01*
X4807500Y-6851452D02*
X4826548Y-6860976D01*
X4864643Y-6860976D01*
X4883690Y-6851452D01*
X4893214Y-6832405D01*
X4893214Y-6822881D01*
X4883690Y-6803833D01*
X4864643Y-6794309D01*
X4836071Y-6794309D01*
X4817024Y-6784786D01*
X4807500Y-6765738D01*
X4807500Y-6756214D01*
X4817024Y-6737167D01*
X4836071Y-6727643D01*
X4864643Y-6727643D01*
X4883690Y-6737167D01*
X4959881Y-6937167D02*
X4969405Y-6927643D01*
X4988452Y-6899071D01*
X4997976Y-6880024D01*
X5007500Y-6851452D01*
X5017024Y-6803833D01*
X5017024Y-6765738D01*
X5007500Y-6718119D01*
X4997976Y-6689548D01*
X4988452Y-6670500D01*
X4969405Y-6641928D01*
X4959881Y-6632405D01*
D15*
X-17144Y-7069856D02*
X-17144Y-6999144D01*
X-87856Y-6999144D01*
X-87856Y-7069856D01*
X-17144Y-7069856D01*
D11*
X359881Y-7124976D02*
X245595Y-7124976D01*
X302738Y-7124976D02*
X302738Y-6924976D01*
X283690Y-6953548D01*
X264643Y-6972595D01*
X245595Y-6982119D01*
X445595Y-7105928D02*
X455119Y-7115452D01*
X445595Y-7124976D01*
X436071Y-7115452D01*
X445595Y-7105928D01*
X445595Y-7124976D01*
X578929Y-6924976D02*
X597976Y-6924976D01*
X617024Y-6934500D01*
X626548Y-6944024D01*
X636071Y-6963071D01*
X645595Y-7001167D01*
X645595Y-7048786D01*
X636071Y-7086881D01*
X626548Y-7105928D01*
X617024Y-7115452D01*
X597976Y-7124976D01*
X578929Y-7124976D01*
X559881Y-7115452D01*
X550357Y-7105928D01*
X540833Y-7086881D01*
X531310Y-7048786D01*
X531310Y-7001167D01*
X540833Y-6963071D01*
X550357Y-6944024D01*
X559881Y-6934500D01*
X578929Y-6924976D01*
X769405Y-6924976D02*
X788452Y-6924976D01*
X807500Y-6934500D01*
X817024Y-6944024D01*
X826548Y-6963071D01*
X836071Y-7001167D01*
X836071Y-7048786D01*
X826548Y-7086881D01*
X817024Y-7105928D01*
X807500Y-7115452D01*
X788452Y-7124976D01*
X769405Y-7124976D01*
X750357Y-7115452D01*
X740833Y-7105928D01*
X731309Y-7086881D01*
X721786Y-7048786D01*
X721786Y-7001167D01*
X731309Y-6963071D01*
X740833Y-6944024D01*
X750357Y-6934500D01*
X769405Y-6924976D01*
X959881Y-6924976D02*
X978928Y-6924976D01*
X997976Y-6934500D01*
X1007500Y-6944024D01*
X1017024Y-6963071D01*
X1026548Y-7001167D01*
X1026548Y-7048786D01*
X1017024Y-7086881D01*
X1007500Y-7105928D01*
X997976Y-7115452D01*
X978928Y-7124976D01*
X959881Y-7124976D01*
X940833Y-7115452D01*
X931309Y-7105928D01*
X921786Y-7086881D01*
X912262Y-7048786D01*
X912262Y-7001167D01*
X921786Y-6963071D01*
X931309Y-6944024D01*
X940833Y-6934500D01*
X959881Y-6924976D01*
X1112262Y-7124976D02*
X1112262Y-6991643D01*
X1112262Y-7010690D02*
X1121786Y-7001167D01*
X1140833Y-6991643D01*
X1169405Y-6991643D01*
X1188452Y-7001167D01*
X1197976Y-7020214D01*
X1197976Y-7124976D01*
X1197976Y-7020214D02*
X1207500Y-7001167D01*
X1226548Y-6991643D01*
X1255119Y-6991643D01*
X1274167Y-7001167D01*
X1283690Y-7020214D01*
X1283690Y-7124976D01*
X1378929Y-7124976D02*
X1378929Y-6991643D01*
X1378929Y-7010690D02*
X1388452Y-7001167D01*
X1407500Y-6991643D01*
X1436071Y-6991643D01*
X1455119Y-7001167D01*
X1464643Y-7020214D01*
X1464643Y-7124976D01*
X1464643Y-7020214D02*
X1474167Y-7001167D01*
X1493214Y-6991643D01*
X1521786Y-6991643D01*
X1540833Y-7001167D01*
X1550357Y-7020214D01*
X1550357Y-7124976D01*
X1940833Y-6915452D02*
X1769405Y-7172595D01*
X2197976Y-6924976D02*
X2217024Y-6924976D01*
X2236071Y-6934500D01*
X2245595Y-6944024D01*
X2255119Y-6963071D01*
X2264643Y-7001167D01*
X2264643Y-7048786D01*
X2255119Y-7086881D01*
X2245595Y-7105928D01*
X2236071Y-7115452D01*
X2217024Y-7124976D01*
X2197976Y-7124976D01*
X2178929Y-7115452D01*
X2169405Y-7105928D01*
X2159881Y-7086881D01*
X2150357Y-7048786D01*
X2150357Y-7001167D01*
X2159881Y-6963071D01*
X2169405Y-6944024D01*
X2178929Y-6934500D01*
X2197976Y-6924976D01*
X2350357Y-7105928D02*
X2359881Y-7115452D01*
X2350357Y-7124976D01*
X2340833Y-7115452D01*
X2350357Y-7105928D01*
X2350357Y-7124976D01*
X2483690Y-6924976D02*
X2502738Y-6924976D01*
X2521786Y-6934500D01*
X2531310Y-6944024D01*
X2540833Y-6963071D01*
X2550357Y-7001167D01*
X2550357Y-7048786D01*
X2540833Y-7086881D01*
X2531310Y-7105928D01*
X2521786Y-7115452D01*
X2502738Y-7124976D01*
X2483690Y-7124976D01*
X2464643Y-7115452D01*
X2455119Y-7105928D01*
X2445595Y-7086881D01*
X2436071Y-7048786D01*
X2436071Y-7001167D01*
X2445595Y-6963071D01*
X2455119Y-6944024D01*
X2464643Y-6934500D01*
X2483690Y-6924976D01*
X2617024Y-6924976D02*
X2740833Y-6924976D01*
X2674167Y-7001167D01*
X2702738Y-7001167D01*
X2721786Y-7010690D01*
X2731310Y-7020214D01*
X2740833Y-7039262D01*
X2740833Y-7086881D01*
X2731310Y-7105928D01*
X2721786Y-7115452D01*
X2702738Y-7124976D01*
X2645595Y-7124976D01*
X2626548Y-7115452D01*
X2617024Y-7105928D01*
X2836071Y-7124976D02*
X2874167Y-7124976D01*
X2893214Y-7115452D01*
X2902738Y-7105928D01*
X2921786Y-7077357D01*
X2931309Y-7039262D01*
X2931309Y-6963071D01*
X2921786Y-6944024D01*
X2912262Y-6934500D01*
X2893214Y-6924976D01*
X2855119Y-6924976D01*
X2836071Y-6934500D01*
X2826548Y-6944024D01*
X2817024Y-6963071D01*
X2817024Y-7010690D01*
X2826548Y-7029738D01*
X2836071Y-7039262D01*
X2855119Y-7048786D01*
X2893214Y-7048786D01*
X2912262Y-7039262D01*
X2921786Y-7029738D01*
X2931309Y-7010690D01*
X3102738Y-6991643D02*
X3102738Y-7124976D01*
X3055119Y-6915452D02*
X3007500Y-7058309D01*
X3131309Y-7058309D01*
X3197976Y-6924976D02*
X3197976Y-6963071D01*
X3274167Y-6924976D02*
X3274167Y-6963071D01*
X3569405Y-7201167D02*
X3559881Y-7191643D01*
X3540833Y-7163071D01*
X3531309Y-7144024D01*
X3521786Y-7115452D01*
X3512262Y-7067833D01*
X3512262Y-7029738D01*
X3521786Y-6982119D01*
X3531309Y-6953548D01*
X3540833Y-6934500D01*
X3559881Y-6905928D01*
X3569405Y-6896405D01*
X3626548Y-6924976D02*
X3759881Y-6924976D01*
X3674167Y-7124976D01*
X3988452Y-7124976D02*
X3988452Y-6924976D01*
X4074167Y-7124976D02*
X4074167Y-7020214D01*
X4064643Y-7001167D01*
X4045595Y-6991643D01*
X4017024Y-6991643D01*
X3997976Y-7001167D01*
X3988452Y-7010690D01*
X4197976Y-7124976D02*
X4178928Y-7115452D01*
X4169405Y-7105928D01*
X4159881Y-7086881D01*
X4159881Y-7029738D01*
X4169405Y-7010690D01*
X4178928Y-7001167D01*
X4197976Y-6991643D01*
X4226548Y-6991643D01*
X4245595Y-7001167D01*
X4255119Y-7010690D01*
X4264643Y-7029738D01*
X4264643Y-7086881D01*
X4255119Y-7105928D01*
X4245595Y-7115452D01*
X4226548Y-7124976D01*
X4197976Y-7124976D01*
X4378929Y-7124976D02*
X4359881Y-7115452D01*
X4350357Y-7096405D01*
X4350357Y-6924976D01*
X4531310Y-7115452D02*
X4512262Y-7124976D01*
X4474167Y-7124976D01*
X4455119Y-7115452D01*
X4445595Y-7096405D01*
X4445595Y-7020214D01*
X4455119Y-7001167D01*
X4474167Y-6991643D01*
X4512262Y-6991643D01*
X4531310Y-7001167D01*
X4540833Y-7020214D01*
X4540833Y-7039262D01*
X4445595Y-7058309D01*
X4617024Y-7115452D02*
X4636071Y-7124976D01*
X4674167Y-7124976D01*
X4693214Y-7115452D01*
X4702738Y-7096405D01*
X4702738Y-7086881D01*
X4693214Y-7067833D01*
X4674167Y-7058309D01*
X4645595Y-7058309D01*
X4626548Y-7048786D01*
X4617024Y-7029738D01*
X4617024Y-7020214D01*
X4626548Y-7001167D01*
X4645595Y-6991643D01*
X4674167Y-6991643D01*
X4693214Y-7001167D01*
X4769405Y-7201167D02*
X4778929Y-7191643D01*
X4797976Y-7163071D01*
X4807500Y-7144024D01*
X4817024Y-7115452D01*
X4826548Y-7067833D01*
X4826548Y-7029738D01*
X4817024Y-6982119D01*
X4807500Y-6953548D01*
X4797976Y-6934500D01*
X4778929Y-6905928D01*
X4769405Y-6896405D01*
D16*
X-57500Y-7353500D02*
X-2500Y-7298500D01*
X-57500Y-7243500D01*
X-112500Y-7298500D01*
X-57500Y-7353500D01*
D11*
X359881Y-7388976D02*
X245595Y-7388976D01*
X302738Y-7388976D02*
X302738Y-7188976D01*
X283690Y-7217548D01*
X264643Y-7236595D01*
X245595Y-7246119D01*
X445595Y-7369928D02*
X455119Y-7379452D01*
X445595Y-7388976D01*
X436071Y-7379452D01*
X445595Y-7369928D01*
X445595Y-7388976D01*
X645595Y-7388976D02*
X531310Y-7388976D01*
X588452Y-7388976D02*
X588452Y-7188976D01*
X569405Y-7217548D01*
X550357Y-7236595D01*
X531310Y-7246119D01*
X769405Y-7188976D02*
X788452Y-7188976D01*
X807500Y-7198500D01*
X817024Y-7208024D01*
X826548Y-7227071D01*
X836071Y-7265167D01*
X836071Y-7312786D01*
X826548Y-7350881D01*
X817024Y-7369928D01*
X807500Y-7379452D01*
X788452Y-7388976D01*
X769405Y-7388976D01*
X750357Y-7379452D01*
X740833Y-7369928D01*
X731309Y-7350881D01*
X721786Y-7312786D01*
X721786Y-7265167D01*
X731309Y-7227071D01*
X740833Y-7208024D01*
X750357Y-7198500D01*
X769405Y-7188976D01*
X959881Y-7188976D02*
X978928Y-7188976D01*
X997976Y-7198500D01*
X1007500Y-7208024D01*
X1017024Y-7227071D01*
X1026548Y-7265167D01*
X1026548Y-7312786D01*
X1017024Y-7350881D01*
X1007500Y-7369928D01*
X997976Y-7379452D01*
X978928Y-7388976D01*
X959881Y-7388976D01*
X940833Y-7379452D01*
X931309Y-7369928D01*
X921786Y-7350881D01*
X912262Y-7312786D01*
X912262Y-7265167D01*
X921786Y-7227071D01*
X931309Y-7208024D01*
X940833Y-7198500D01*
X959881Y-7188976D01*
X1112262Y-7388976D02*
X1112262Y-7255643D01*
X1112262Y-7274690D02*
X1121786Y-7265167D01*
X1140833Y-7255643D01*
X1169405Y-7255643D01*
X1188452Y-7265167D01*
X1197976Y-7284214D01*
X1197976Y-7388976D01*
X1197976Y-7284214D02*
X1207500Y-7265167D01*
X1226548Y-7255643D01*
X1255119Y-7255643D01*
X1274167Y-7265167D01*
X1283690Y-7284214D01*
X1283690Y-7388976D01*
X1378929Y-7388976D02*
X1378929Y-7255643D01*
X1378929Y-7274690D02*
X1388452Y-7265167D01*
X1407500Y-7255643D01*
X1436071Y-7255643D01*
X1455119Y-7265167D01*
X1464643Y-7284214D01*
X1464643Y-7388976D01*
X1464643Y-7284214D02*
X1474167Y-7265167D01*
X1493214Y-7255643D01*
X1521786Y-7255643D01*
X1540833Y-7265167D01*
X1550357Y-7284214D01*
X1550357Y-7388976D01*
X1940833Y-7179452D02*
X1769405Y-7436595D01*
X2197976Y-7188976D02*
X2217024Y-7188976D01*
X2236071Y-7198500D01*
X2245595Y-7208024D01*
X2255119Y-7227071D01*
X2264643Y-7265167D01*
X2264643Y-7312786D01*
X2255119Y-7350881D01*
X2245595Y-7369928D01*
X2236071Y-7379452D01*
X2217024Y-7388976D01*
X2197976Y-7388976D01*
X2178929Y-7379452D01*
X2169405Y-7369928D01*
X2159881Y-7350881D01*
X2150357Y-7312786D01*
X2150357Y-7265167D01*
X2159881Y-7227071D01*
X2169405Y-7208024D01*
X2178929Y-7198500D01*
X2197976Y-7188976D01*
X2350357Y-7369928D02*
X2359881Y-7379452D01*
X2350357Y-7388976D01*
X2340833Y-7379452D01*
X2350357Y-7369928D01*
X2350357Y-7388976D01*
X2483690Y-7188976D02*
X2502738Y-7188976D01*
X2521786Y-7198500D01*
X2531310Y-7208024D01*
X2540833Y-7227071D01*
X2550357Y-7265167D01*
X2550357Y-7312786D01*
X2540833Y-7350881D01*
X2531310Y-7369928D01*
X2521786Y-7379452D01*
X2502738Y-7388976D01*
X2483690Y-7388976D01*
X2464643Y-7379452D01*
X2455119Y-7369928D01*
X2445595Y-7350881D01*
X2436071Y-7312786D01*
X2436071Y-7265167D01*
X2445595Y-7227071D01*
X2455119Y-7208024D01*
X2464643Y-7198500D01*
X2483690Y-7188976D01*
X2721786Y-7255643D02*
X2721786Y-7388976D01*
X2674167Y-7179452D02*
X2626548Y-7322309D01*
X2750357Y-7322309D01*
X2807500Y-7188976D02*
X2931309Y-7188976D01*
X2864643Y-7265167D01*
X2893214Y-7265167D01*
X2912262Y-7274690D01*
X2921786Y-7284214D01*
X2931309Y-7303262D01*
X2931309Y-7350881D01*
X2921786Y-7369928D01*
X2912262Y-7379452D01*
X2893214Y-7388976D01*
X2836071Y-7388976D01*
X2817024Y-7379452D01*
X2807500Y-7369928D01*
X2997976Y-7188976D02*
X3121786Y-7188976D01*
X3055119Y-7265167D01*
X3083690Y-7265167D01*
X3102738Y-7274690D01*
X3112262Y-7284214D01*
X3121786Y-7303262D01*
X3121786Y-7350881D01*
X3112262Y-7369928D01*
X3102738Y-7379452D01*
X3083690Y-7388976D01*
X3026548Y-7388976D01*
X3007500Y-7379452D01*
X2997976Y-7369928D01*
X3197976Y-7188976D02*
X3197976Y-7227071D01*
X3274167Y-7188976D02*
X3274167Y-7227071D01*
X3569405Y-7465167D02*
X3559881Y-7455643D01*
X3540833Y-7427071D01*
X3531309Y-7408024D01*
X3521786Y-7379452D01*
X3512262Y-7331833D01*
X3512262Y-7293738D01*
X3521786Y-7246119D01*
X3531309Y-7217548D01*
X3540833Y-7198500D01*
X3559881Y-7169928D01*
X3569405Y-7160405D01*
X3636071Y-7208024D02*
X3645595Y-7198500D01*
X3664643Y-7188976D01*
X3712262Y-7188976D01*
X3731309Y-7198500D01*
X3740833Y-7208024D01*
X3750357Y-7227071D01*
X3750357Y-7246119D01*
X3740833Y-7274690D01*
X3626548Y-7388976D01*
X3750357Y-7388976D01*
X3988452Y-7388976D02*
X3988452Y-7188976D01*
X4074167Y-7388976D02*
X4074167Y-7284214D01*
X4064643Y-7265167D01*
X4045595Y-7255643D01*
X4017024Y-7255643D01*
X3997976Y-7265167D01*
X3988452Y-7274690D01*
X4197976Y-7388976D02*
X4178928Y-7379452D01*
X4169405Y-7369928D01*
X4159881Y-7350881D01*
X4159881Y-7293738D01*
X4169405Y-7274690D01*
X4178928Y-7265167D01*
X4197976Y-7255643D01*
X4226548Y-7255643D01*
X4245595Y-7265167D01*
X4255119Y-7274690D01*
X4264643Y-7293738D01*
X4264643Y-7350881D01*
X4255119Y-7369928D01*
X4245595Y-7379452D01*
X4226548Y-7388976D01*
X4197976Y-7388976D01*
X4378929Y-7388976D02*
X4359881Y-7379452D01*
X4350357Y-7360405D01*
X4350357Y-7188976D01*
X4531310Y-7379452D02*
X4512262Y-7388976D01*
X4474167Y-7388976D01*
X4455119Y-7379452D01*
X4445595Y-7360405D01*
X4445595Y-7284214D01*
X4455119Y-7265167D01*
X4474167Y-7255643D01*
X4512262Y-7255643D01*
X4531310Y-7265167D01*
X4540833Y-7284214D01*
X4540833Y-7303262D01*
X4445595Y-7322309D01*
X4617024Y-7379452D02*
X4636071Y-7388976D01*
X4674167Y-7388976D01*
X4693214Y-7379452D01*
X4702738Y-7360405D01*
X4702738Y-7350881D01*
X4693214Y-7331833D01*
X4674167Y-7322309D01*
X4645595Y-7322309D01*
X4626548Y-7312786D01*
X4617024Y-7293738D01*
X4617024Y-7284214D01*
X4626548Y-7265167D01*
X4645595Y-7255643D01*
X4674167Y-7255643D01*
X4693214Y-7265167D01*
X4769405Y-7465167D02*
X4778929Y-7455643D01*
X4797976Y-7427071D01*
X4807500Y-7408024D01*
X4817024Y-7379452D01*
X4826548Y-7331833D01*
X4826548Y-7293738D01*
X4817024Y-7246119D01*
X4807500Y-7217548D01*
X4797976Y-7198500D01*
X4778929Y-7169928D01*
X4769405Y-7160405D01*
D17*
X-122500Y-7502500D02*
X-2500Y-7622500D01*
X-2500Y-7502500D02*
X-122500Y-7622500D01*
X-2500Y-7562500D02*
G75*
G03*
X-2500Y-7562500I-60000J0D01*
G01*
D11*
X359881Y-7652976D02*
X245595Y-7652976D01*
X302738Y-7652976D02*
X302738Y-7452976D01*
X283690Y-7481548D01*
X264643Y-7500595D01*
X245595Y-7510119D01*
X445595Y-7633928D02*
X455119Y-7643452D01*
X445595Y-7652976D01*
X436071Y-7643452D01*
X445595Y-7633928D01*
X445595Y-7652976D01*
X531310Y-7472024D02*
X540833Y-7462500D01*
X559881Y-7452976D01*
X607500Y-7452976D01*
X626548Y-7462500D01*
X636071Y-7472024D01*
X645595Y-7491071D01*
X645595Y-7510119D01*
X636071Y-7538690D01*
X521786Y-7652976D01*
X645595Y-7652976D01*
X769405Y-7452976D02*
X788452Y-7452976D01*
X807500Y-7462500D01*
X817024Y-7472024D01*
X826548Y-7491071D01*
X836071Y-7529167D01*
X836071Y-7576786D01*
X826548Y-7614881D01*
X817024Y-7633928D01*
X807500Y-7643452D01*
X788452Y-7652976D01*
X769405Y-7652976D01*
X750357Y-7643452D01*
X740833Y-7633928D01*
X731309Y-7614881D01*
X721786Y-7576786D01*
X721786Y-7529167D01*
X731309Y-7491071D01*
X740833Y-7472024D01*
X750357Y-7462500D01*
X769405Y-7452976D01*
X959881Y-7452976D02*
X978928Y-7452976D01*
X997976Y-7462500D01*
X1007500Y-7472024D01*
X1017024Y-7491071D01*
X1026548Y-7529167D01*
X1026548Y-7576786D01*
X1017024Y-7614881D01*
X1007500Y-7633928D01*
X997976Y-7643452D01*
X978928Y-7652976D01*
X959881Y-7652976D01*
X940833Y-7643452D01*
X931309Y-7633928D01*
X921786Y-7614881D01*
X912262Y-7576786D01*
X912262Y-7529167D01*
X921786Y-7491071D01*
X931309Y-7472024D01*
X940833Y-7462500D01*
X959881Y-7452976D01*
X1112262Y-7652976D02*
X1112262Y-7519643D01*
X1112262Y-7538690D02*
X1121786Y-7529167D01*
X1140833Y-7519643D01*
X1169405Y-7519643D01*
X1188452Y-7529167D01*
X1197976Y-7548214D01*
X1197976Y-7652976D01*
X1197976Y-7548214D02*
X1207500Y-7529167D01*
X1226548Y-7519643D01*
X1255119Y-7519643D01*
X1274167Y-7529167D01*
X1283690Y-7548214D01*
X1283690Y-7652976D01*
X1378929Y-7652976D02*
X1378929Y-7519643D01*
X1378929Y-7538690D02*
X1388452Y-7529167D01*
X1407500Y-7519643D01*
X1436071Y-7519643D01*
X1455119Y-7529167D01*
X1464643Y-7548214D01*
X1464643Y-7652976D01*
X1464643Y-7548214D02*
X1474167Y-7529167D01*
X1493214Y-7519643D01*
X1521786Y-7519643D01*
X1540833Y-7529167D01*
X1550357Y-7548214D01*
X1550357Y-7652976D01*
X1940833Y-7443452D02*
X1769405Y-7700595D01*
X2197976Y-7452976D02*
X2217024Y-7452976D01*
X2236071Y-7462500D01*
X2245595Y-7472024D01*
X2255119Y-7491071D01*
X2264643Y-7529167D01*
X2264643Y-7576786D01*
X2255119Y-7614881D01*
X2245595Y-7633928D01*
X2236071Y-7643452D01*
X2217024Y-7652976D01*
X2197976Y-7652976D01*
X2178929Y-7643452D01*
X2169405Y-7633928D01*
X2159881Y-7614881D01*
X2150357Y-7576786D01*
X2150357Y-7529167D01*
X2159881Y-7491071D01*
X2169405Y-7472024D01*
X2178929Y-7462500D01*
X2197976Y-7452976D01*
X2350357Y-7633928D02*
X2359881Y-7643452D01*
X2350357Y-7652976D01*
X2340833Y-7643452D01*
X2350357Y-7633928D01*
X2350357Y-7652976D01*
X2483690Y-7452976D02*
X2502738Y-7452976D01*
X2521786Y-7462500D01*
X2531310Y-7472024D01*
X2540833Y-7491071D01*
X2550357Y-7529167D01*
X2550357Y-7576786D01*
X2540833Y-7614881D01*
X2531310Y-7633928D01*
X2521786Y-7643452D01*
X2502738Y-7652976D01*
X2483690Y-7652976D01*
X2464643Y-7643452D01*
X2455119Y-7633928D01*
X2445595Y-7614881D01*
X2436071Y-7576786D01*
X2436071Y-7529167D01*
X2445595Y-7491071D01*
X2455119Y-7472024D01*
X2464643Y-7462500D01*
X2483690Y-7452976D01*
X2721786Y-7519643D02*
X2721786Y-7652976D01*
X2674167Y-7443452D02*
X2626548Y-7586309D01*
X2750357Y-7586309D01*
X2807500Y-7452976D02*
X2940833Y-7452976D01*
X2855119Y-7652976D01*
X3007500Y-7472024D02*
X3017024Y-7462500D01*
X3036071Y-7452976D01*
X3083690Y-7452976D01*
X3102738Y-7462500D01*
X3112262Y-7472024D01*
X3121786Y-7491071D01*
X3121786Y-7510119D01*
X3112262Y-7538690D01*
X2997976Y-7652976D01*
X3121786Y-7652976D01*
X3197976Y-7452976D02*
X3197976Y-7491071D01*
X3274167Y-7452976D02*
X3274167Y-7491071D01*
X3569405Y-7729167D02*
X3559881Y-7719643D01*
X3540833Y-7691071D01*
X3531309Y-7672024D01*
X3521786Y-7643452D01*
X3512262Y-7595833D01*
X3512262Y-7557738D01*
X3521786Y-7510119D01*
X3531309Y-7481548D01*
X3540833Y-7462500D01*
X3559881Y-7433928D01*
X3569405Y-7424405D01*
X3731309Y-7519643D02*
X3731309Y-7652976D01*
X3683690Y-7443452D02*
X3636071Y-7586309D01*
X3759881Y-7586309D01*
X3988452Y-7652976D02*
X3988452Y-7452976D01*
X4074167Y-7652976D02*
X4074167Y-7548214D01*
X4064643Y-7529167D01*
X4045595Y-7519643D01*
X4017024Y-7519643D01*
X3997976Y-7529167D01*
X3988452Y-7538690D01*
X4197976Y-7652976D02*
X4178928Y-7643452D01*
X4169405Y-7633928D01*
X4159881Y-7614881D01*
X4159881Y-7557738D01*
X4169405Y-7538690D01*
X4178928Y-7529167D01*
X4197976Y-7519643D01*
X4226548Y-7519643D01*
X4245595Y-7529167D01*
X4255119Y-7538690D01*
X4264643Y-7557738D01*
X4264643Y-7614881D01*
X4255119Y-7633928D01*
X4245595Y-7643452D01*
X4226548Y-7652976D01*
X4197976Y-7652976D01*
X4378929Y-7652976D02*
X4359881Y-7643452D01*
X4350357Y-7624405D01*
X4350357Y-7452976D01*
X4531310Y-7643452D02*
X4512262Y-7652976D01*
X4474167Y-7652976D01*
X4455119Y-7643452D01*
X4445595Y-7624405D01*
X4445595Y-7548214D01*
X4455119Y-7529167D01*
X4474167Y-7519643D01*
X4512262Y-7519643D01*
X4531310Y-7529167D01*
X4540833Y-7548214D01*
X4540833Y-7567262D01*
X4445595Y-7586309D01*
X4617024Y-7643452D02*
X4636071Y-7652976D01*
X4674167Y-7652976D01*
X4693214Y-7643452D01*
X4702738Y-7624405D01*
X4702738Y-7614881D01*
X4693214Y-7595833D01*
X4674167Y-7586309D01*
X4645595Y-7586309D01*
X4626548Y-7576786D01*
X4617024Y-7557738D01*
X4617024Y-7548214D01*
X4626548Y-7529167D01*
X4645595Y-7519643D01*
X4674167Y-7519643D01*
X4693214Y-7529167D01*
X4769405Y-7729167D02*
X4778929Y-7719643D01*
X4797976Y-7691071D01*
X4807500Y-7672024D01*
X4817024Y-7643452D01*
X4826548Y-7595833D01*
X4826548Y-7557738D01*
X4817024Y-7510119D01*
X4807500Y-7481548D01*
X4797976Y-7462500D01*
X4778929Y-7433928D01*
X4769405Y-7424405D01*
D18*
X-132500Y-7761500D02*
X-2500Y-7891500D01*
X-2500Y-7761500D02*
X-132500Y-7891500D01*
X-67500Y-7761500D02*
X-67500Y-7891500D01*
X-132500Y-7826500D02*
X-2500Y-7826500D01*
D11*
X359881Y-7916976D02*
X245595Y-7916976D01*
X302738Y-7916976D02*
X302738Y-7716976D01*
X283690Y-7745548D01*
X264643Y-7764595D01*
X245595Y-7774119D01*
X445595Y-7897928D02*
X455119Y-7907452D01*
X445595Y-7916976D01*
X436071Y-7907452D01*
X445595Y-7897928D01*
X445595Y-7916976D01*
X521786Y-7716976D02*
X645595Y-7716976D01*
X578929Y-7793167D01*
X607500Y-7793167D01*
X626548Y-7802690D01*
X636071Y-7812214D01*
X645595Y-7831262D01*
X645595Y-7878881D01*
X636071Y-7897928D01*
X626548Y-7907452D01*
X607500Y-7916976D01*
X550357Y-7916976D01*
X531310Y-7907452D01*
X521786Y-7897928D01*
X769405Y-7716976D02*
X788452Y-7716976D01*
X807500Y-7726500D01*
X817024Y-7736024D01*
X826548Y-7755071D01*
X836071Y-7793167D01*
X836071Y-7840786D01*
X826548Y-7878881D01*
X817024Y-7897928D01*
X807500Y-7907452D01*
X788452Y-7916976D01*
X769405Y-7916976D01*
X750357Y-7907452D01*
X740833Y-7897928D01*
X731309Y-7878881D01*
X721786Y-7840786D01*
X721786Y-7793167D01*
X731309Y-7755071D01*
X740833Y-7736024D01*
X750357Y-7726500D01*
X769405Y-7716976D01*
X959881Y-7716976D02*
X978928Y-7716976D01*
X997976Y-7726500D01*
X1007500Y-7736024D01*
X1017024Y-7755071D01*
X1026548Y-7793167D01*
X1026548Y-7840786D01*
X1017024Y-7878881D01*
X1007500Y-7897928D01*
X997976Y-7907452D01*
X978928Y-7916976D01*
X959881Y-7916976D01*
X940833Y-7907452D01*
X931309Y-7897928D01*
X921786Y-7878881D01*
X912262Y-7840786D01*
X912262Y-7793167D01*
X921786Y-7755071D01*
X931309Y-7736024D01*
X940833Y-7726500D01*
X959881Y-7716976D01*
X1112262Y-7916976D02*
X1112262Y-7783643D01*
X1112262Y-7802690D02*
X1121786Y-7793167D01*
X1140833Y-7783643D01*
X1169405Y-7783643D01*
X1188452Y-7793167D01*
X1197976Y-7812214D01*
X1197976Y-7916976D01*
X1197976Y-7812214D02*
X1207500Y-7793167D01*
X1226548Y-7783643D01*
X1255119Y-7783643D01*
X1274167Y-7793167D01*
X1283690Y-7812214D01*
X1283690Y-7916976D01*
X1378929Y-7916976D02*
X1378929Y-7783643D01*
X1378929Y-7802690D02*
X1388452Y-7793167D01*
X1407500Y-7783643D01*
X1436071Y-7783643D01*
X1455119Y-7793167D01*
X1464643Y-7812214D01*
X1464643Y-7916976D01*
X1464643Y-7812214D02*
X1474167Y-7793167D01*
X1493214Y-7783643D01*
X1521786Y-7783643D01*
X1540833Y-7793167D01*
X1550357Y-7812214D01*
X1550357Y-7916976D01*
X1940833Y-7707452D02*
X1769405Y-7964595D01*
X2197976Y-7716976D02*
X2217024Y-7716976D01*
X2236071Y-7726500D01*
X2245595Y-7736024D01*
X2255119Y-7755071D01*
X2264643Y-7793167D01*
X2264643Y-7840786D01*
X2255119Y-7878881D01*
X2245595Y-7897928D01*
X2236071Y-7907452D01*
X2217024Y-7916976D01*
X2197976Y-7916976D01*
X2178929Y-7907452D01*
X2169405Y-7897928D01*
X2159881Y-7878881D01*
X2150357Y-7840786D01*
X2150357Y-7793167D01*
X2159881Y-7755071D01*
X2169405Y-7736024D01*
X2178929Y-7726500D01*
X2197976Y-7716976D01*
X2350357Y-7897928D02*
X2359881Y-7907452D01*
X2350357Y-7916976D01*
X2340833Y-7907452D01*
X2350357Y-7897928D01*
X2350357Y-7916976D01*
X2483690Y-7716976D02*
X2502738Y-7716976D01*
X2521786Y-7726500D01*
X2531310Y-7736024D01*
X2540833Y-7755071D01*
X2550357Y-7793167D01*
X2550357Y-7840786D01*
X2540833Y-7878881D01*
X2531310Y-7897928D01*
X2521786Y-7907452D01*
X2502738Y-7916976D01*
X2483690Y-7916976D01*
X2464643Y-7907452D01*
X2455119Y-7897928D01*
X2445595Y-7878881D01*
X2436071Y-7840786D01*
X2436071Y-7793167D01*
X2445595Y-7755071D01*
X2455119Y-7736024D01*
X2464643Y-7726500D01*
X2483690Y-7716976D01*
X2731310Y-7716976D02*
X2636071Y-7716976D01*
X2626548Y-7812214D01*
X2636071Y-7802690D01*
X2655119Y-7793167D01*
X2702738Y-7793167D01*
X2721786Y-7802690D01*
X2731310Y-7812214D01*
X2740833Y-7831262D01*
X2740833Y-7878881D01*
X2731310Y-7897928D01*
X2721786Y-7907452D01*
X2702738Y-7916976D01*
X2655119Y-7916976D01*
X2636071Y-7907452D01*
X2626548Y-7897928D01*
X2931309Y-7916976D02*
X2817024Y-7916976D01*
X2874167Y-7916976D02*
X2874167Y-7716976D01*
X2855119Y-7745548D01*
X2836071Y-7764595D01*
X2817024Y-7774119D01*
X3007500Y-7736024D02*
X3017024Y-7726500D01*
X3036071Y-7716976D01*
X3083690Y-7716976D01*
X3102738Y-7726500D01*
X3112262Y-7736024D01*
X3121786Y-7755071D01*
X3121786Y-7774119D01*
X3112262Y-7802690D01*
X2997976Y-7916976D01*
X3121786Y-7916976D01*
X3197976Y-7716976D02*
X3197976Y-7755071D01*
X3274167Y-7716976D02*
X3274167Y-7755071D01*
X3569405Y-7993167D02*
X3559881Y-7983643D01*
X3540833Y-7955071D01*
X3531309Y-7936024D01*
X3521786Y-7907452D01*
X3512262Y-7859833D01*
X3512262Y-7821738D01*
X3521786Y-7774119D01*
X3531309Y-7745548D01*
X3540833Y-7726500D01*
X3559881Y-7697928D01*
X3569405Y-7688405D01*
X3626548Y-7716976D02*
X3750357Y-7716976D01*
X3683690Y-7793167D01*
X3712262Y-7793167D01*
X3731309Y-7802690D01*
X3740833Y-7812214D01*
X3750357Y-7831262D01*
X3750357Y-7878881D01*
X3740833Y-7897928D01*
X3731309Y-7907452D01*
X3712262Y-7916976D01*
X3655119Y-7916976D01*
X3636071Y-7907452D01*
X3626548Y-7897928D01*
X3988452Y-7916976D02*
X3988452Y-7716976D01*
X4074167Y-7916976D02*
X4074167Y-7812214D01*
X4064643Y-7793167D01*
X4045595Y-7783643D01*
X4017024Y-7783643D01*
X3997976Y-7793167D01*
X3988452Y-7802690D01*
X4197976Y-7916976D02*
X4178928Y-7907452D01*
X4169405Y-7897928D01*
X4159881Y-7878881D01*
X4159881Y-7821738D01*
X4169405Y-7802690D01*
X4178928Y-7793167D01*
X4197976Y-7783643D01*
X4226548Y-7783643D01*
X4245595Y-7793167D01*
X4255119Y-7802690D01*
X4264643Y-7821738D01*
X4264643Y-7878881D01*
X4255119Y-7897928D01*
X4245595Y-7907452D01*
X4226548Y-7916976D01*
X4197976Y-7916976D01*
X4378929Y-7916976D02*
X4359881Y-7907452D01*
X4350357Y-7888405D01*
X4350357Y-7716976D01*
X4531310Y-7907452D02*
X4512262Y-7916976D01*
X4474167Y-7916976D01*
X4455119Y-7907452D01*
X4445595Y-7888405D01*
X4445595Y-7812214D01*
X4455119Y-7793167D01*
X4474167Y-7783643D01*
X4512262Y-7783643D01*
X4531310Y-7793167D01*
X4540833Y-7812214D01*
X4540833Y-7831262D01*
X4445595Y-7850309D01*
X4617024Y-7907452D02*
X4636071Y-7916976D01*
X4674167Y-7916976D01*
X4693214Y-7907452D01*
X4702738Y-7888405D01*
X4702738Y-7878881D01*
X4693214Y-7859833D01*
X4674167Y-7850309D01*
X4645595Y-7850309D01*
X4626548Y-7840786D01*
X4617024Y-7821738D01*
X4617024Y-7812214D01*
X4626548Y-7793167D01*
X4645595Y-7783643D01*
X4674167Y-7783643D01*
X4693214Y-7793167D01*
X4769405Y-7993167D02*
X4778929Y-7983643D01*
X4797976Y-7955071D01*
X4807500Y-7936024D01*
X4817024Y-7907452D01*
X4826548Y-7859833D01*
X4826548Y-7821738D01*
X4817024Y-7774119D01*
X4807500Y-7745548D01*
X4797976Y-7726500D01*
X4778929Y-7697928D01*
X4769405Y-7688405D01*
M02*
