M48
; DRILL file {KiCad (6.0.7)} date Tue Oct 25 14:44:26 2022
; FORMAT={-:-/ absolute / inch / decimal}
; #@! TF.CreationDate,2022-10-25T14:44:26+02:00
; #@! TF.GenerationSoftware,Kicad,Pcbnew,(6.0.7)
; #@! TF.FileFunction,Plated,1,2,PTH
FMAT,2
INCH
; #@! TA.AperFunction,Plated,PTH,ComponentDrill
T1C0.0315
; #@! TA.AperFunction,Plated,PTH,ComponentDrill
T2C0.0350
; #@! TA.AperFunction,Plated,PTH,ComponentDrill
T3C0.0354
; #@! TA.AperFunction,Plated,PTH,ComponentDrill
T4C0.0394
; #@! TA.AperFunction,Plated,PTH,ComponentDrill
T5C0.0433
; #@! TA.AperFunction,Plated,PTH,ComponentDrill
T6C0.0472
; #@! TA.AperFunction,Plated,PTH,ComponentDrill
T7C0.0512
%
G90
G05
T1
X1.4937Y-0.5724
X1.4937Y-1.163
X2.2488Y-1.874
X2.2504Y-2.0795
X2.6075Y-1.3374
X2.6488Y-1.874
X2.6504Y-2.0795
X2.8043Y-1.3374
X2.9685Y-0.1543
X2.9685Y-0.5543
X4.0583Y-1.6319
X4.0583Y-1.8287
X4.0606Y-1.0921
X4.0606Y-1.4921
T2
X3.0248Y-1.4878
X3.0248Y-1.5878
X3.0248Y-1.6878
X3.0248Y-1.7878
X4.0661Y-0.352
X4.0661Y-0.452
X4.0661Y-0.552
X4.0661Y-0.652
T3
X0.248Y-0.4685
X0.248Y-0.6654
X0.248Y-1.0591
X0.248Y-1.2559
X1.0354Y-0.4685
X1.0354Y-0.6654
X1.0354Y-0.8622
X1.0354Y-1.0591
X1.0354Y-1.2559
X2.9449Y-0.8465
X3.0449Y-0.8465
X3.2337Y-0.2059
X3.2337Y-0.3059
X3.2337Y-0.4059
X3.2337Y-0.5059
X3.2337Y-0.6059
X3.2337Y-0.7059
X3.2337Y-0.8059
X3.2337Y-0.9059
X3.2337Y-1.0059
X3.2337Y-1.1059
X3.2337Y-1.2059
X3.2337Y-1.3059
X3.2337Y-1.4059
X3.2337Y-1.5059
X3.2337Y-1.6059
X3.8337Y-0.2059
X3.8337Y-0.3059
X3.8337Y-0.4059
X3.8337Y-0.5059
X3.8337Y-0.6059
X3.8337Y-0.7059
X3.8337Y-0.8059
X3.8337Y-0.9059
X3.8337Y-1.0059
X3.8337Y-1.1059
X3.8337Y-1.2059
X3.8337Y-1.3059
X3.8337Y-1.4059
X3.8337Y-1.5059
X3.8337Y-1.6059
T4
X1.4158Y-0.1532
X1.4158Y-0.3737
X1.6362Y-0.1532
X1.6362Y-0.3737
X2.2264Y-1.3492
X2.3264Y-1.3492
X2.4264Y-1.3492
T5
X2.298Y-1.6094
X2.598Y-1.6094
T6
X1.137Y-1.9669
X1.4094Y-1.4961
X1.6063Y-1.4961
X2.0228Y-1.9669
T7
X0.4449Y-1.739
X0.6449Y-1.739
X0.8449Y-1.739
T0
M30
