%TF.GenerationSoftware,KiCad,Pcbnew,(6.0.7)*%
%TF.CreationDate,2022-10-25T14:44:27+02:00*%
%TF.ProjectId,Affichage_Temp_Humidite,41666669-6368-4616-9765-5f54656d705f,rev?*%
%TF.SameCoordinates,PX4692680PY2625a00*%
%TF.FileFunction,Drillmap*%
%TF.FilePolarity,Positive*%
%FSLAX45Y45*%
G04 Gerber Fmt 4.5, Leading zero omitted, Abs format (unit mm)*
G04 Created by KiCad (PCBNEW (6.0.7)) date 2022-10-25 14:44:27*
%MOMM*%
%LPD*%
G01*
G04 APERTURE LIST*
%ADD10C,0.050000*%
%ADD11C,0.200000*%
%ADD12C,0.220000*%
%ADD13C,0.250000*%
%ADD14C,0.350000*%
G04 APERTURE END LIST*
D10*
X0Y0D02*
X10700000Y0D01*
X0Y0D02*
X0Y-5600000D01*
X0Y-5600000D02*
X10700000Y-5600000D01*
X10700000Y0D02*
X10700000Y-5600000D01*
D11*
D12*
X140000Y-140000D02*
X360000Y-360000D01*
X360000Y-140000D02*
X140000Y-360000D01*
X140000Y-5240000D02*
X360000Y-5460000D01*
X360000Y-5240000D02*
X140000Y-5460000D01*
X10340000Y-140000D02*
X10560000Y-360000D01*
X10560000Y-140000D02*
X10340000Y-360000D01*
X10340000Y-5240000D02*
X10560000Y-5460000D01*
X10560000Y-5240000D02*
X10340000Y-5460000D01*
D13*
X1253000Y-5254000D02*
G75*
G03*
X1253000Y-5254000I-125000J0D01*
G01*
X2269000Y-5260000D02*
G75*
G03*
X2269000Y-5260000I-125000J0D01*
G01*
D14*
X5909000Y-1632000D02*
X5909000Y-1982000D01*
X5734000Y-1807000D02*
X6084000Y-1807000D01*
D11*
X255119Y-5912976D02*
X255119Y-5712976D01*
X302738Y-5712976D01*
X331310Y-5722500D01*
X350357Y-5741548D01*
X359881Y-5760595D01*
X369405Y-5798690D01*
X369405Y-5827262D01*
X359881Y-5865357D01*
X350357Y-5884405D01*
X331310Y-5903452D01*
X302738Y-5912976D01*
X255119Y-5912976D01*
X455119Y-5912976D02*
X455119Y-5779643D01*
X455119Y-5817738D02*
X464643Y-5798690D01*
X474167Y-5789167D01*
X493214Y-5779643D01*
X512262Y-5779643D01*
X578929Y-5912976D02*
X578929Y-5779643D01*
X578929Y-5712976D02*
X569405Y-5722500D01*
X578929Y-5732024D01*
X588452Y-5722500D01*
X578929Y-5712976D01*
X578929Y-5732024D01*
X702738Y-5912976D02*
X683690Y-5903452D01*
X674167Y-5884405D01*
X674167Y-5712976D01*
X807500Y-5912976D02*
X788452Y-5903452D01*
X778928Y-5884405D01*
X778928Y-5712976D01*
X1036071Y-5912976D02*
X1036071Y-5712976D01*
X1102738Y-5855833D01*
X1169405Y-5712976D01*
X1169405Y-5912976D01*
X1350357Y-5912976D02*
X1350357Y-5808214D01*
X1340833Y-5789167D01*
X1321786Y-5779643D01*
X1283690Y-5779643D01*
X1264643Y-5789167D01*
X1350357Y-5903452D02*
X1331310Y-5912976D01*
X1283690Y-5912976D01*
X1264643Y-5903452D01*
X1255119Y-5884405D01*
X1255119Y-5865357D01*
X1264643Y-5846309D01*
X1283690Y-5836786D01*
X1331310Y-5836786D01*
X1350357Y-5827262D01*
X1445595Y-5779643D02*
X1445595Y-5979643D01*
X1445595Y-5789167D02*
X1464643Y-5779643D01*
X1502738Y-5779643D01*
X1521786Y-5789167D01*
X1531309Y-5798690D01*
X1540833Y-5817738D01*
X1540833Y-5874881D01*
X1531309Y-5893928D01*
X1521786Y-5903452D01*
X1502738Y-5912976D01*
X1464643Y-5912976D01*
X1445595Y-5903452D01*
X1626548Y-5893928D02*
X1636071Y-5903452D01*
X1626548Y-5912976D01*
X1617024Y-5903452D01*
X1626548Y-5893928D01*
X1626548Y-5912976D01*
X1626548Y-5789167D02*
X1636071Y-5798690D01*
X1626548Y-5808214D01*
X1617024Y-5798690D01*
X1626548Y-5789167D01*
X1626548Y-5808214D01*
X-202500Y-6142500D02*
X-2500Y-6342500D01*
X-2500Y-6142500D02*
X-202500Y-6342500D01*
X245595Y-6152024D02*
X255119Y-6142500D01*
X274167Y-6132976D01*
X321786Y-6132976D01*
X340833Y-6142500D01*
X350357Y-6152024D01*
X359881Y-6171071D01*
X359881Y-6190119D01*
X350357Y-6218690D01*
X236071Y-6332976D01*
X359881Y-6332976D01*
X445595Y-6313928D02*
X455119Y-6323452D01*
X445595Y-6332976D01*
X436071Y-6323452D01*
X445595Y-6313928D01*
X445595Y-6332976D01*
X531310Y-6152024D02*
X540833Y-6142500D01*
X559881Y-6132976D01*
X607500Y-6132976D01*
X626548Y-6142500D01*
X636071Y-6152024D01*
X645595Y-6171071D01*
X645595Y-6190119D01*
X636071Y-6218690D01*
X521786Y-6332976D01*
X645595Y-6332976D01*
X769405Y-6132976D02*
X788452Y-6132976D01*
X807500Y-6142500D01*
X817024Y-6152024D01*
X826548Y-6171071D01*
X836071Y-6209167D01*
X836071Y-6256786D01*
X826548Y-6294881D01*
X817024Y-6313928D01*
X807500Y-6323452D01*
X788452Y-6332976D01*
X769405Y-6332976D01*
X750357Y-6323452D01*
X740833Y-6313928D01*
X731309Y-6294881D01*
X721786Y-6256786D01*
X721786Y-6209167D01*
X731309Y-6171071D01*
X740833Y-6152024D01*
X750357Y-6142500D01*
X769405Y-6132976D01*
X959881Y-6132976D02*
X978928Y-6132976D01*
X997976Y-6142500D01*
X1007500Y-6152024D01*
X1017024Y-6171071D01*
X1026548Y-6209167D01*
X1026548Y-6256786D01*
X1017024Y-6294881D01*
X1007500Y-6313928D01*
X997976Y-6323452D01*
X978928Y-6332976D01*
X959881Y-6332976D01*
X940833Y-6323452D01*
X931309Y-6313928D01*
X921786Y-6294881D01*
X912262Y-6256786D01*
X912262Y-6209167D01*
X921786Y-6171071D01*
X931309Y-6152024D01*
X940833Y-6142500D01*
X959881Y-6132976D01*
X1112262Y-6332976D02*
X1112262Y-6199643D01*
X1112262Y-6218690D02*
X1121786Y-6209167D01*
X1140833Y-6199643D01*
X1169405Y-6199643D01*
X1188452Y-6209167D01*
X1197976Y-6228214D01*
X1197976Y-6332976D01*
X1197976Y-6228214D02*
X1207500Y-6209167D01*
X1226548Y-6199643D01*
X1255119Y-6199643D01*
X1274167Y-6209167D01*
X1283690Y-6228214D01*
X1283690Y-6332976D01*
X1378929Y-6332976D02*
X1378929Y-6199643D01*
X1378929Y-6218690D02*
X1388452Y-6209167D01*
X1407500Y-6199643D01*
X1436071Y-6199643D01*
X1455119Y-6209167D01*
X1464643Y-6228214D01*
X1464643Y-6332976D01*
X1464643Y-6228214D02*
X1474167Y-6209167D01*
X1493214Y-6199643D01*
X1521786Y-6199643D01*
X1540833Y-6209167D01*
X1550357Y-6228214D01*
X1550357Y-6332976D01*
X1940833Y-6123452D02*
X1769405Y-6380595D01*
X2197976Y-6132976D02*
X2217024Y-6132976D01*
X2236071Y-6142500D01*
X2245595Y-6152024D01*
X2255119Y-6171071D01*
X2264643Y-6209167D01*
X2264643Y-6256786D01*
X2255119Y-6294881D01*
X2245595Y-6313928D01*
X2236071Y-6323452D01*
X2217024Y-6332976D01*
X2197976Y-6332976D01*
X2178929Y-6323452D01*
X2169405Y-6313928D01*
X2159881Y-6294881D01*
X2150357Y-6256786D01*
X2150357Y-6209167D01*
X2159881Y-6171071D01*
X2169405Y-6152024D01*
X2178929Y-6142500D01*
X2197976Y-6132976D01*
X2350357Y-6313928D02*
X2359881Y-6323452D01*
X2350357Y-6332976D01*
X2340833Y-6323452D01*
X2350357Y-6313928D01*
X2350357Y-6332976D01*
X2483690Y-6132976D02*
X2502738Y-6132976D01*
X2521786Y-6142500D01*
X2531310Y-6152024D01*
X2540833Y-6171071D01*
X2550357Y-6209167D01*
X2550357Y-6256786D01*
X2540833Y-6294881D01*
X2531310Y-6313928D01*
X2521786Y-6323452D01*
X2502738Y-6332976D01*
X2483690Y-6332976D01*
X2464643Y-6323452D01*
X2455119Y-6313928D01*
X2445595Y-6294881D01*
X2436071Y-6256786D01*
X2436071Y-6209167D01*
X2445595Y-6171071D01*
X2455119Y-6152024D01*
X2464643Y-6142500D01*
X2483690Y-6132976D01*
X2664643Y-6218690D02*
X2645595Y-6209167D01*
X2636071Y-6199643D01*
X2626548Y-6180595D01*
X2626548Y-6171071D01*
X2636071Y-6152024D01*
X2645595Y-6142500D01*
X2664643Y-6132976D01*
X2702738Y-6132976D01*
X2721786Y-6142500D01*
X2731310Y-6152024D01*
X2740833Y-6171071D01*
X2740833Y-6180595D01*
X2731310Y-6199643D01*
X2721786Y-6209167D01*
X2702738Y-6218690D01*
X2664643Y-6218690D01*
X2645595Y-6228214D01*
X2636071Y-6237738D01*
X2626548Y-6256786D01*
X2626548Y-6294881D01*
X2636071Y-6313928D01*
X2645595Y-6323452D01*
X2664643Y-6332976D01*
X2702738Y-6332976D01*
X2721786Y-6323452D01*
X2731310Y-6313928D01*
X2740833Y-6294881D01*
X2740833Y-6256786D01*
X2731310Y-6237738D01*
X2721786Y-6228214D01*
X2702738Y-6218690D01*
X2912262Y-6132976D02*
X2874167Y-6132976D01*
X2855119Y-6142500D01*
X2845595Y-6152024D01*
X2826548Y-6180595D01*
X2817024Y-6218690D01*
X2817024Y-6294881D01*
X2826548Y-6313928D01*
X2836071Y-6323452D01*
X2855119Y-6332976D01*
X2893214Y-6332976D01*
X2912262Y-6323452D01*
X2921786Y-6313928D01*
X2931309Y-6294881D01*
X2931309Y-6247262D01*
X2921786Y-6228214D01*
X2912262Y-6218690D01*
X2893214Y-6209167D01*
X2855119Y-6209167D01*
X2836071Y-6218690D01*
X2826548Y-6228214D01*
X2817024Y-6247262D01*
X3102738Y-6132976D02*
X3064643Y-6132976D01*
X3045595Y-6142500D01*
X3036071Y-6152024D01*
X3017024Y-6180595D01*
X3007500Y-6218690D01*
X3007500Y-6294881D01*
X3017024Y-6313928D01*
X3026548Y-6323452D01*
X3045595Y-6332976D01*
X3083690Y-6332976D01*
X3102738Y-6323452D01*
X3112262Y-6313928D01*
X3121786Y-6294881D01*
X3121786Y-6247262D01*
X3112262Y-6228214D01*
X3102738Y-6218690D01*
X3083690Y-6209167D01*
X3045595Y-6209167D01*
X3026548Y-6218690D01*
X3017024Y-6228214D01*
X3007500Y-6247262D01*
X3197976Y-6132976D02*
X3197976Y-6171071D01*
X3274167Y-6132976D02*
X3274167Y-6171071D01*
X3569405Y-6409167D02*
X3559881Y-6399643D01*
X3540833Y-6371071D01*
X3531309Y-6352024D01*
X3521786Y-6323452D01*
X3512262Y-6275833D01*
X3512262Y-6237738D01*
X3521786Y-6190119D01*
X3531309Y-6161548D01*
X3540833Y-6142500D01*
X3559881Y-6113928D01*
X3569405Y-6104405D01*
X3731309Y-6199643D02*
X3731309Y-6332976D01*
X3683690Y-6123452D02*
X3636071Y-6266309D01*
X3759881Y-6266309D01*
X3988452Y-6332976D02*
X3988452Y-6132976D01*
X4074167Y-6332976D02*
X4074167Y-6228214D01*
X4064643Y-6209167D01*
X4045595Y-6199643D01*
X4017024Y-6199643D01*
X3997976Y-6209167D01*
X3988452Y-6218690D01*
X4197976Y-6332976D02*
X4178928Y-6323452D01*
X4169405Y-6313928D01*
X4159881Y-6294881D01*
X4159881Y-6237738D01*
X4169405Y-6218690D01*
X4178928Y-6209167D01*
X4197976Y-6199643D01*
X4226548Y-6199643D01*
X4245595Y-6209167D01*
X4255119Y-6218690D01*
X4264643Y-6237738D01*
X4264643Y-6294881D01*
X4255119Y-6313928D01*
X4245595Y-6323452D01*
X4226548Y-6332976D01*
X4197976Y-6332976D01*
X4378929Y-6332976D02*
X4359881Y-6323452D01*
X4350357Y-6304405D01*
X4350357Y-6132976D01*
X4531310Y-6323452D02*
X4512262Y-6332976D01*
X4474167Y-6332976D01*
X4455119Y-6323452D01*
X4445595Y-6304405D01*
X4445595Y-6228214D01*
X4455119Y-6209167D01*
X4474167Y-6199643D01*
X4512262Y-6199643D01*
X4531310Y-6209167D01*
X4540833Y-6228214D01*
X4540833Y-6247262D01*
X4445595Y-6266309D01*
X4617024Y-6323452D02*
X4636071Y-6332976D01*
X4674167Y-6332976D01*
X4693214Y-6323452D01*
X4702738Y-6304405D01*
X4702738Y-6294881D01*
X4693214Y-6275833D01*
X4674167Y-6266309D01*
X4645595Y-6266309D01*
X4626548Y-6256786D01*
X4617024Y-6237738D01*
X4617024Y-6228214D01*
X4626548Y-6209167D01*
X4645595Y-6199643D01*
X4674167Y-6199643D01*
X4693214Y-6209167D01*
X4769405Y-6409167D02*
X4778929Y-6399643D01*
X4797976Y-6371071D01*
X4807500Y-6352024D01*
X4817024Y-6323452D01*
X4826548Y-6275833D01*
X4826548Y-6237738D01*
X4817024Y-6190119D01*
X4807500Y-6161548D01*
X4797976Y-6142500D01*
X4778929Y-6113928D01*
X4769405Y-6104405D01*
X5131310Y-6409167D02*
X5121786Y-6399643D01*
X5102738Y-6371071D01*
X5093214Y-6352024D01*
X5083690Y-6323452D01*
X5074167Y-6275833D01*
X5074167Y-6237738D01*
X5083690Y-6190119D01*
X5093214Y-6161548D01*
X5102738Y-6142500D01*
X5121786Y-6113928D01*
X5131310Y-6104405D01*
X5207500Y-6199643D02*
X5207500Y-6332976D01*
X5207500Y-6218690D02*
X5217024Y-6209167D01*
X5236071Y-6199643D01*
X5264643Y-6199643D01*
X5283690Y-6209167D01*
X5293214Y-6228214D01*
X5293214Y-6332976D01*
X5417024Y-6332976D02*
X5397976Y-6323452D01*
X5388452Y-6313928D01*
X5378929Y-6294881D01*
X5378929Y-6237738D01*
X5388452Y-6218690D01*
X5397976Y-6209167D01*
X5417024Y-6199643D01*
X5445595Y-6199643D01*
X5464643Y-6209167D01*
X5474167Y-6218690D01*
X5483690Y-6237738D01*
X5483690Y-6294881D01*
X5474167Y-6313928D01*
X5464643Y-6323452D01*
X5445595Y-6332976D01*
X5417024Y-6332976D01*
X5540833Y-6199643D02*
X5617024Y-6199643D01*
X5569405Y-6132976D02*
X5569405Y-6304405D01*
X5578929Y-6323452D01*
X5597976Y-6332976D01*
X5617024Y-6332976D01*
X5836071Y-6199643D02*
X5836071Y-6399643D01*
X5836071Y-6209167D02*
X5855119Y-6199643D01*
X5893214Y-6199643D01*
X5912262Y-6209167D01*
X5921786Y-6218690D01*
X5931309Y-6237738D01*
X5931309Y-6294881D01*
X5921786Y-6313928D01*
X5912262Y-6323452D01*
X5893214Y-6332976D01*
X5855119Y-6332976D01*
X5836071Y-6323452D01*
X6045595Y-6332976D02*
X6026548Y-6323452D01*
X6017024Y-6304405D01*
X6017024Y-6132976D01*
X6207500Y-6332976D02*
X6207500Y-6228214D01*
X6197976Y-6209167D01*
X6178928Y-6199643D01*
X6140833Y-6199643D01*
X6121786Y-6209167D01*
X6207500Y-6323452D02*
X6188452Y-6332976D01*
X6140833Y-6332976D01*
X6121786Y-6323452D01*
X6112262Y-6304405D01*
X6112262Y-6285357D01*
X6121786Y-6266309D01*
X6140833Y-6256786D01*
X6188452Y-6256786D01*
X6207500Y-6247262D01*
X6274167Y-6199643D02*
X6350357Y-6199643D01*
X6302738Y-6132976D02*
X6302738Y-6304405D01*
X6312262Y-6323452D01*
X6331309Y-6332976D01*
X6350357Y-6332976D01*
X6493214Y-6323452D02*
X6474167Y-6332976D01*
X6436071Y-6332976D01*
X6417024Y-6323452D01*
X6407500Y-6304405D01*
X6407500Y-6228214D01*
X6417024Y-6209167D01*
X6436071Y-6199643D01*
X6474167Y-6199643D01*
X6493214Y-6209167D01*
X6502738Y-6228214D01*
X6502738Y-6247262D01*
X6407500Y-6266309D01*
X6674167Y-6332976D02*
X6674167Y-6132976D01*
X6674167Y-6323452D02*
X6655119Y-6332976D01*
X6617024Y-6332976D01*
X6597976Y-6323452D01*
X6588452Y-6313928D01*
X6578928Y-6294881D01*
X6578928Y-6237738D01*
X6588452Y-6218690D01*
X6597976Y-6209167D01*
X6617024Y-6199643D01*
X6655119Y-6199643D01*
X6674167Y-6209167D01*
X6750357Y-6409167D02*
X6759881Y-6399643D01*
X6778928Y-6371071D01*
X6788452Y-6352024D01*
X6797976Y-6323452D01*
X6807500Y-6275833D01*
X6807500Y-6237738D01*
X6797976Y-6190119D01*
X6788452Y-6161548D01*
X6778928Y-6142500D01*
X6759881Y-6113928D01*
X6750357Y-6104405D01*
X-2500Y-6562500D02*
G75*
G03*
X-2500Y-6562500I-100000J0D01*
G01*
X245595Y-6472024D02*
X255119Y-6462500D01*
X274167Y-6452976D01*
X321786Y-6452976D01*
X340833Y-6462500D01*
X350357Y-6472024D01*
X359881Y-6491071D01*
X359881Y-6510119D01*
X350357Y-6538690D01*
X236071Y-6652976D01*
X359881Y-6652976D01*
X445595Y-6633928D02*
X455119Y-6643452D01*
X445595Y-6652976D01*
X436071Y-6643452D01*
X445595Y-6633928D01*
X445595Y-6652976D01*
X636071Y-6452976D02*
X540833Y-6452976D01*
X531310Y-6548214D01*
X540833Y-6538690D01*
X559881Y-6529167D01*
X607500Y-6529167D01*
X626548Y-6538690D01*
X636071Y-6548214D01*
X645595Y-6567262D01*
X645595Y-6614881D01*
X636071Y-6633928D01*
X626548Y-6643452D01*
X607500Y-6652976D01*
X559881Y-6652976D01*
X540833Y-6643452D01*
X531310Y-6633928D01*
X769405Y-6452976D02*
X788452Y-6452976D01*
X807500Y-6462500D01*
X817024Y-6472024D01*
X826548Y-6491071D01*
X836071Y-6529167D01*
X836071Y-6576786D01*
X826548Y-6614881D01*
X817024Y-6633928D01*
X807500Y-6643452D01*
X788452Y-6652976D01*
X769405Y-6652976D01*
X750357Y-6643452D01*
X740833Y-6633928D01*
X731309Y-6614881D01*
X721786Y-6576786D01*
X721786Y-6529167D01*
X731309Y-6491071D01*
X740833Y-6472024D01*
X750357Y-6462500D01*
X769405Y-6452976D01*
X959881Y-6452976D02*
X978928Y-6452976D01*
X997976Y-6462500D01*
X1007500Y-6472024D01*
X1017024Y-6491071D01*
X1026548Y-6529167D01*
X1026548Y-6576786D01*
X1017024Y-6614881D01*
X1007500Y-6633928D01*
X997976Y-6643452D01*
X978928Y-6652976D01*
X959881Y-6652976D01*
X940833Y-6643452D01*
X931309Y-6633928D01*
X921786Y-6614881D01*
X912262Y-6576786D01*
X912262Y-6529167D01*
X921786Y-6491071D01*
X931309Y-6472024D01*
X940833Y-6462500D01*
X959881Y-6452976D01*
X1112262Y-6652976D02*
X1112262Y-6519643D01*
X1112262Y-6538690D02*
X1121786Y-6529167D01*
X1140833Y-6519643D01*
X1169405Y-6519643D01*
X1188452Y-6529167D01*
X1197976Y-6548214D01*
X1197976Y-6652976D01*
X1197976Y-6548214D02*
X1207500Y-6529167D01*
X1226548Y-6519643D01*
X1255119Y-6519643D01*
X1274167Y-6529167D01*
X1283690Y-6548214D01*
X1283690Y-6652976D01*
X1378929Y-6652976D02*
X1378929Y-6519643D01*
X1378929Y-6538690D02*
X1388452Y-6529167D01*
X1407500Y-6519643D01*
X1436071Y-6519643D01*
X1455119Y-6529167D01*
X1464643Y-6548214D01*
X1464643Y-6652976D01*
X1464643Y-6548214D02*
X1474167Y-6529167D01*
X1493214Y-6519643D01*
X1521786Y-6519643D01*
X1540833Y-6529167D01*
X1550357Y-6548214D01*
X1550357Y-6652976D01*
X1940833Y-6443452D02*
X1769405Y-6700595D01*
X2197976Y-6452976D02*
X2217024Y-6452976D01*
X2236071Y-6462500D01*
X2245595Y-6472024D01*
X2255119Y-6491071D01*
X2264643Y-6529167D01*
X2264643Y-6576786D01*
X2255119Y-6614881D01*
X2245595Y-6633928D01*
X2236071Y-6643452D01*
X2217024Y-6652976D01*
X2197976Y-6652976D01*
X2178929Y-6643452D01*
X2169405Y-6633928D01*
X2159881Y-6614881D01*
X2150357Y-6576786D01*
X2150357Y-6529167D01*
X2159881Y-6491071D01*
X2169405Y-6472024D01*
X2178929Y-6462500D01*
X2197976Y-6452976D01*
X2350357Y-6633928D02*
X2359881Y-6643452D01*
X2350357Y-6652976D01*
X2340833Y-6643452D01*
X2350357Y-6633928D01*
X2350357Y-6652976D01*
X2483690Y-6452976D02*
X2502738Y-6452976D01*
X2521786Y-6462500D01*
X2531310Y-6472024D01*
X2540833Y-6491071D01*
X2550357Y-6529167D01*
X2550357Y-6576786D01*
X2540833Y-6614881D01*
X2531310Y-6633928D01*
X2521786Y-6643452D01*
X2502738Y-6652976D01*
X2483690Y-6652976D01*
X2464643Y-6643452D01*
X2455119Y-6633928D01*
X2445595Y-6614881D01*
X2436071Y-6576786D01*
X2436071Y-6529167D01*
X2445595Y-6491071D01*
X2455119Y-6472024D01*
X2464643Y-6462500D01*
X2483690Y-6452976D01*
X2645595Y-6652976D02*
X2683690Y-6652976D01*
X2702738Y-6643452D01*
X2712262Y-6633928D01*
X2731310Y-6605357D01*
X2740833Y-6567262D01*
X2740833Y-6491071D01*
X2731310Y-6472024D01*
X2721786Y-6462500D01*
X2702738Y-6452976D01*
X2664643Y-6452976D01*
X2645595Y-6462500D01*
X2636071Y-6472024D01*
X2626548Y-6491071D01*
X2626548Y-6538690D01*
X2636071Y-6557738D01*
X2645595Y-6567262D01*
X2664643Y-6576786D01*
X2702738Y-6576786D01*
X2721786Y-6567262D01*
X2731310Y-6557738D01*
X2740833Y-6538690D01*
X2855119Y-6538690D02*
X2836071Y-6529167D01*
X2826548Y-6519643D01*
X2817024Y-6500595D01*
X2817024Y-6491071D01*
X2826548Y-6472024D01*
X2836071Y-6462500D01*
X2855119Y-6452976D01*
X2893214Y-6452976D01*
X2912262Y-6462500D01*
X2921786Y-6472024D01*
X2931309Y-6491071D01*
X2931309Y-6500595D01*
X2921786Y-6519643D01*
X2912262Y-6529167D01*
X2893214Y-6538690D01*
X2855119Y-6538690D01*
X2836071Y-6548214D01*
X2826548Y-6557738D01*
X2817024Y-6576786D01*
X2817024Y-6614881D01*
X2826548Y-6633928D01*
X2836071Y-6643452D01*
X2855119Y-6652976D01*
X2893214Y-6652976D01*
X2912262Y-6643452D01*
X2921786Y-6633928D01*
X2931309Y-6614881D01*
X2931309Y-6576786D01*
X2921786Y-6557738D01*
X2912262Y-6548214D01*
X2893214Y-6538690D01*
X3102738Y-6519643D02*
X3102738Y-6652976D01*
X3055119Y-6443452D02*
X3007500Y-6586309D01*
X3131309Y-6586309D01*
X3197976Y-6452976D02*
X3197976Y-6491071D01*
X3274167Y-6452976D02*
X3274167Y-6491071D01*
X3569405Y-6729167D02*
X3559881Y-6719643D01*
X3540833Y-6691071D01*
X3531309Y-6672024D01*
X3521786Y-6643452D01*
X3512262Y-6595833D01*
X3512262Y-6557738D01*
X3521786Y-6510119D01*
X3531309Y-6481548D01*
X3540833Y-6462500D01*
X3559881Y-6433928D01*
X3569405Y-6424405D01*
X3636071Y-6472024D02*
X3645595Y-6462500D01*
X3664643Y-6452976D01*
X3712262Y-6452976D01*
X3731309Y-6462500D01*
X3740833Y-6472024D01*
X3750357Y-6491071D01*
X3750357Y-6510119D01*
X3740833Y-6538690D01*
X3626548Y-6652976D01*
X3750357Y-6652976D01*
X3988452Y-6652976D02*
X3988452Y-6452976D01*
X4074167Y-6652976D02*
X4074167Y-6548214D01*
X4064643Y-6529167D01*
X4045595Y-6519643D01*
X4017024Y-6519643D01*
X3997976Y-6529167D01*
X3988452Y-6538690D01*
X4197976Y-6652976D02*
X4178928Y-6643452D01*
X4169405Y-6633928D01*
X4159881Y-6614881D01*
X4159881Y-6557738D01*
X4169405Y-6538690D01*
X4178928Y-6529167D01*
X4197976Y-6519643D01*
X4226548Y-6519643D01*
X4245595Y-6529167D01*
X4255119Y-6538690D01*
X4264643Y-6557738D01*
X4264643Y-6614881D01*
X4255119Y-6633928D01*
X4245595Y-6643452D01*
X4226548Y-6652976D01*
X4197976Y-6652976D01*
X4378929Y-6652976D02*
X4359881Y-6643452D01*
X4350357Y-6624405D01*
X4350357Y-6452976D01*
X4531310Y-6643452D02*
X4512262Y-6652976D01*
X4474167Y-6652976D01*
X4455119Y-6643452D01*
X4445595Y-6624405D01*
X4445595Y-6548214D01*
X4455119Y-6529167D01*
X4474167Y-6519643D01*
X4512262Y-6519643D01*
X4531310Y-6529167D01*
X4540833Y-6548214D01*
X4540833Y-6567262D01*
X4445595Y-6586309D01*
X4617024Y-6643452D02*
X4636071Y-6652976D01*
X4674167Y-6652976D01*
X4693214Y-6643452D01*
X4702738Y-6624405D01*
X4702738Y-6614881D01*
X4693214Y-6595833D01*
X4674167Y-6586309D01*
X4645595Y-6586309D01*
X4626548Y-6576786D01*
X4617024Y-6557738D01*
X4617024Y-6548214D01*
X4626548Y-6529167D01*
X4645595Y-6519643D01*
X4674167Y-6519643D01*
X4693214Y-6529167D01*
X4769405Y-6729167D02*
X4778929Y-6719643D01*
X4797976Y-6691071D01*
X4807500Y-6672024D01*
X4817024Y-6643452D01*
X4826548Y-6595833D01*
X4826548Y-6557738D01*
X4817024Y-6510119D01*
X4807500Y-6481548D01*
X4797976Y-6462500D01*
X4778929Y-6433928D01*
X4769405Y-6424405D01*
X5131310Y-6729167D02*
X5121786Y-6719643D01*
X5102738Y-6691071D01*
X5093214Y-6672024D01*
X5083690Y-6643452D01*
X5074167Y-6595833D01*
X5074167Y-6557738D01*
X5083690Y-6510119D01*
X5093214Y-6481548D01*
X5102738Y-6462500D01*
X5121786Y-6433928D01*
X5131310Y-6424405D01*
X5207500Y-6519643D02*
X5207500Y-6652976D01*
X5207500Y-6538690D02*
X5217024Y-6529167D01*
X5236071Y-6519643D01*
X5264643Y-6519643D01*
X5283690Y-6529167D01*
X5293214Y-6548214D01*
X5293214Y-6652976D01*
X5417024Y-6652976D02*
X5397976Y-6643452D01*
X5388452Y-6633928D01*
X5378929Y-6614881D01*
X5378929Y-6557738D01*
X5388452Y-6538690D01*
X5397976Y-6529167D01*
X5417024Y-6519643D01*
X5445595Y-6519643D01*
X5464643Y-6529167D01*
X5474167Y-6538690D01*
X5483690Y-6557738D01*
X5483690Y-6614881D01*
X5474167Y-6633928D01*
X5464643Y-6643452D01*
X5445595Y-6652976D01*
X5417024Y-6652976D01*
X5540833Y-6519643D02*
X5617024Y-6519643D01*
X5569405Y-6452976D02*
X5569405Y-6624405D01*
X5578929Y-6643452D01*
X5597976Y-6652976D01*
X5617024Y-6652976D01*
X5836071Y-6519643D02*
X5836071Y-6719643D01*
X5836071Y-6529167D02*
X5855119Y-6519643D01*
X5893214Y-6519643D01*
X5912262Y-6529167D01*
X5921786Y-6538690D01*
X5931309Y-6557738D01*
X5931309Y-6614881D01*
X5921786Y-6633928D01*
X5912262Y-6643452D01*
X5893214Y-6652976D01*
X5855119Y-6652976D01*
X5836071Y-6643452D01*
X6045595Y-6652976D02*
X6026548Y-6643452D01*
X6017024Y-6624405D01*
X6017024Y-6452976D01*
X6207500Y-6652976D02*
X6207500Y-6548214D01*
X6197976Y-6529167D01*
X6178928Y-6519643D01*
X6140833Y-6519643D01*
X6121786Y-6529167D01*
X6207500Y-6643452D02*
X6188452Y-6652976D01*
X6140833Y-6652976D01*
X6121786Y-6643452D01*
X6112262Y-6624405D01*
X6112262Y-6605357D01*
X6121786Y-6586309D01*
X6140833Y-6576786D01*
X6188452Y-6576786D01*
X6207500Y-6567262D01*
X6274167Y-6519643D02*
X6350357Y-6519643D01*
X6302738Y-6452976D02*
X6302738Y-6624405D01*
X6312262Y-6643452D01*
X6331309Y-6652976D01*
X6350357Y-6652976D01*
X6493214Y-6643452D02*
X6474167Y-6652976D01*
X6436071Y-6652976D01*
X6417024Y-6643452D01*
X6407500Y-6624405D01*
X6407500Y-6548214D01*
X6417024Y-6529167D01*
X6436071Y-6519643D01*
X6474167Y-6519643D01*
X6493214Y-6529167D01*
X6502738Y-6548214D01*
X6502738Y-6567262D01*
X6407500Y-6586309D01*
X6674167Y-6652976D02*
X6674167Y-6452976D01*
X6674167Y-6643452D02*
X6655119Y-6652976D01*
X6617024Y-6652976D01*
X6597976Y-6643452D01*
X6588452Y-6633928D01*
X6578928Y-6614881D01*
X6578928Y-6557738D01*
X6588452Y-6538690D01*
X6597976Y-6529167D01*
X6617024Y-6519643D01*
X6655119Y-6519643D01*
X6674167Y-6529167D01*
X6750357Y-6729167D02*
X6759881Y-6719643D01*
X6778928Y-6691071D01*
X6788452Y-6672024D01*
X6797976Y-6643452D01*
X6807500Y-6595833D01*
X6807500Y-6557738D01*
X6797976Y-6510119D01*
X6788452Y-6481548D01*
X6778928Y-6462500D01*
X6759881Y-6433928D01*
X6750357Y-6424405D01*
X-102500Y-6782500D02*
X-102500Y-6982500D01*
X-202500Y-6882500D02*
X-2500Y-6882500D01*
X236071Y-6772976D02*
X359881Y-6772976D01*
X293214Y-6849167D01*
X321786Y-6849167D01*
X340833Y-6858690D01*
X350357Y-6868214D01*
X359881Y-6887262D01*
X359881Y-6934881D01*
X350357Y-6953928D01*
X340833Y-6963452D01*
X321786Y-6972976D01*
X264643Y-6972976D01*
X245595Y-6963452D01*
X236071Y-6953928D01*
X445595Y-6953928D02*
X455119Y-6963452D01*
X445595Y-6972976D01*
X436071Y-6963452D01*
X445595Y-6953928D01*
X445595Y-6972976D01*
X636071Y-6772976D02*
X540833Y-6772976D01*
X531310Y-6868214D01*
X540833Y-6858690D01*
X559881Y-6849167D01*
X607500Y-6849167D01*
X626548Y-6858690D01*
X636071Y-6868214D01*
X645595Y-6887262D01*
X645595Y-6934881D01*
X636071Y-6953928D01*
X626548Y-6963452D01*
X607500Y-6972976D01*
X559881Y-6972976D01*
X540833Y-6963452D01*
X531310Y-6953928D01*
X769405Y-6772976D02*
X788452Y-6772976D01*
X807500Y-6782500D01*
X817024Y-6792024D01*
X826548Y-6811071D01*
X836071Y-6849167D01*
X836071Y-6896786D01*
X826548Y-6934881D01*
X817024Y-6953928D01*
X807500Y-6963452D01*
X788452Y-6972976D01*
X769405Y-6972976D01*
X750357Y-6963452D01*
X740833Y-6953928D01*
X731309Y-6934881D01*
X721786Y-6896786D01*
X721786Y-6849167D01*
X731309Y-6811071D01*
X740833Y-6792024D01*
X750357Y-6782500D01*
X769405Y-6772976D01*
X959881Y-6772976D02*
X978928Y-6772976D01*
X997976Y-6782500D01*
X1007500Y-6792024D01*
X1017024Y-6811071D01*
X1026548Y-6849167D01*
X1026548Y-6896786D01*
X1017024Y-6934881D01*
X1007500Y-6953928D01*
X997976Y-6963452D01*
X978928Y-6972976D01*
X959881Y-6972976D01*
X940833Y-6963452D01*
X931309Y-6953928D01*
X921786Y-6934881D01*
X912262Y-6896786D01*
X912262Y-6849167D01*
X921786Y-6811071D01*
X931309Y-6792024D01*
X940833Y-6782500D01*
X959881Y-6772976D01*
X1112262Y-6972976D02*
X1112262Y-6839643D01*
X1112262Y-6858690D02*
X1121786Y-6849167D01*
X1140833Y-6839643D01*
X1169405Y-6839643D01*
X1188452Y-6849167D01*
X1197976Y-6868214D01*
X1197976Y-6972976D01*
X1197976Y-6868214D02*
X1207500Y-6849167D01*
X1226548Y-6839643D01*
X1255119Y-6839643D01*
X1274167Y-6849167D01*
X1283690Y-6868214D01*
X1283690Y-6972976D01*
X1378929Y-6972976D02*
X1378929Y-6839643D01*
X1378929Y-6858690D02*
X1388452Y-6849167D01*
X1407500Y-6839643D01*
X1436071Y-6839643D01*
X1455119Y-6849167D01*
X1464643Y-6868214D01*
X1464643Y-6972976D01*
X1464643Y-6868214D02*
X1474167Y-6849167D01*
X1493214Y-6839643D01*
X1521786Y-6839643D01*
X1540833Y-6849167D01*
X1550357Y-6868214D01*
X1550357Y-6972976D01*
X1940833Y-6763452D02*
X1769405Y-7020595D01*
X2197976Y-6772976D02*
X2217024Y-6772976D01*
X2236071Y-6782500D01*
X2245595Y-6792024D01*
X2255119Y-6811071D01*
X2264643Y-6849167D01*
X2264643Y-6896786D01*
X2255119Y-6934881D01*
X2245595Y-6953928D01*
X2236071Y-6963452D01*
X2217024Y-6972976D01*
X2197976Y-6972976D01*
X2178929Y-6963452D01*
X2169405Y-6953928D01*
X2159881Y-6934881D01*
X2150357Y-6896786D01*
X2150357Y-6849167D01*
X2159881Y-6811071D01*
X2169405Y-6792024D01*
X2178929Y-6782500D01*
X2197976Y-6772976D01*
X2350357Y-6953928D02*
X2359881Y-6963452D01*
X2350357Y-6972976D01*
X2340833Y-6963452D01*
X2350357Y-6953928D01*
X2350357Y-6972976D01*
X2550357Y-6972976D02*
X2436071Y-6972976D01*
X2493214Y-6972976D02*
X2493214Y-6772976D01*
X2474167Y-6801548D01*
X2455119Y-6820595D01*
X2436071Y-6830119D01*
X2617024Y-6772976D02*
X2740833Y-6772976D01*
X2674167Y-6849167D01*
X2702738Y-6849167D01*
X2721786Y-6858690D01*
X2731310Y-6868214D01*
X2740833Y-6887262D01*
X2740833Y-6934881D01*
X2731310Y-6953928D01*
X2721786Y-6963452D01*
X2702738Y-6972976D01*
X2645595Y-6972976D01*
X2626548Y-6963452D01*
X2617024Y-6953928D01*
X2807500Y-6772976D02*
X2940833Y-6772976D01*
X2855119Y-6972976D01*
X3045595Y-6858690D02*
X3026548Y-6849167D01*
X3017024Y-6839643D01*
X3007500Y-6820595D01*
X3007500Y-6811071D01*
X3017024Y-6792024D01*
X3026548Y-6782500D01*
X3045595Y-6772976D01*
X3083690Y-6772976D01*
X3102738Y-6782500D01*
X3112262Y-6792024D01*
X3121786Y-6811071D01*
X3121786Y-6820595D01*
X3112262Y-6839643D01*
X3102738Y-6849167D01*
X3083690Y-6858690D01*
X3045595Y-6858690D01*
X3026548Y-6868214D01*
X3017024Y-6877738D01*
X3007500Y-6896786D01*
X3007500Y-6934881D01*
X3017024Y-6953928D01*
X3026548Y-6963452D01*
X3045595Y-6972976D01*
X3083690Y-6972976D01*
X3102738Y-6963452D01*
X3112262Y-6953928D01*
X3121786Y-6934881D01*
X3121786Y-6896786D01*
X3112262Y-6877738D01*
X3102738Y-6868214D01*
X3083690Y-6858690D01*
X3197976Y-6772976D02*
X3197976Y-6811071D01*
X3274167Y-6772976D02*
X3274167Y-6811071D01*
X3569405Y-7049167D02*
X3559881Y-7039643D01*
X3540833Y-7011071D01*
X3531309Y-6992024D01*
X3521786Y-6963452D01*
X3512262Y-6915833D01*
X3512262Y-6877738D01*
X3521786Y-6830119D01*
X3531309Y-6801548D01*
X3540833Y-6782500D01*
X3559881Y-6753928D01*
X3569405Y-6744405D01*
X3750357Y-6972976D02*
X3636071Y-6972976D01*
X3693214Y-6972976D02*
X3693214Y-6772976D01*
X3674167Y-6801548D01*
X3655119Y-6820595D01*
X3636071Y-6830119D01*
X3988452Y-6972976D02*
X3988452Y-6772976D01*
X4074167Y-6972976D02*
X4074167Y-6868214D01*
X4064643Y-6849167D01*
X4045595Y-6839643D01*
X4017024Y-6839643D01*
X3997976Y-6849167D01*
X3988452Y-6858690D01*
X4197976Y-6972976D02*
X4178928Y-6963452D01*
X4169405Y-6953928D01*
X4159881Y-6934881D01*
X4159881Y-6877738D01*
X4169405Y-6858690D01*
X4178928Y-6849167D01*
X4197976Y-6839643D01*
X4226548Y-6839643D01*
X4245595Y-6849167D01*
X4255119Y-6858690D01*
X4264643Y-6877738D01*
X4264643Y-6934881D01*
X4255119Y-6953928D01*
X4245595Y-6963452D01*
X4226548Y-6972976D01*
X4197976Y-6972976D01*
X4378929Y-6972976D02*
X4359881Y-6963452D01*
X4350357Y-6944405D01*
X4350357Y-6772976D01*
X4531310Y-6963452D02*
X4512262Y-6972976D01*
X4474167Y-6972976D01*
X4455119Y-6963452D01*
X4445595Y-6944405D01*
X4445595Y-6868214D01*
X4455119Y-6849167D01*
X4474167Y-6839643D01*
X4512262Y-6839643D01*
X4531310Y-6849167D01*
X4540833Y-6868214D01*
X4540833Y-6887262D01*
X4445595Y-6906309D01*
X4607500Y-7049167D02*
X4617024Y-7039643D01*
X4636071Y-7011071D01*
X4645595Y-6992024D01*
X4655119Y-6963452D01*
X4664643Y-6915833D01*
X4664643Y-6877738D01*
X4655119Y-6830119D01*
X4645595Y-6801548D01*
X4636071Y-6782500D01*
X4617024Y-6753928D01*
X4607500Y-6744405D01*
X4969405Y-7049167D02*
X4959881Y-7039643D01*
X4940833Y-7011071D01*
X4931310Y-6992024D01*
X4921786Y-6963452D01*
X4912262Y-6915833D01*
X4912262Y-6877738D01*
X4921786Y-6830119D01*
X4931310Y-6801548D01*
X4940833Y-6782500D01*
X4959881Y-6753928D01*
X4969405Y-6744405D01*
X5045595Y-6839643D02*
X5045595Y-6972976D01*
X5045595Y-6858690D02*
X5055119Y-6849167D01*
X5074167Y-6839643D01*
X5102738Y-6839643D01*
X5121786Y-6849167D01*
X5131310Y-6868214D01*
X5131310Y-6972976D01*
X5255119Y-6972976D02*
X5236071Y-6963452D01*
X5226548Y-6953928D01*
X5217024Y-6934881D01*
X5217024Y-6877738D01*
X5226548Y-6858690D01*
X5236071Y-6849167D01*
X5255119Y-6839643D01*
X5283690Y-6839643D01*
X5302738Y-6849167D01*
X5312262Y-6858690D01*
X5321786Y-6877738D01*
X5321786Y-6934881D01*
X5312262Y-6953928D01*
X5302738Y-6963452D01*
X5283690Y-6972976D01*
X5255119Y-6972976D01*
X5378929Y-6839643D02*
X5455119Y-6839643D01*
X5407500Y-6772976D02*
X5407500Y-6944405D01*
X5417024Y-6963452D01*
X5436071Y-6972976D01*
X5455119Y-6972976D01*
X5674167Y-6839643D02*
X5674167Y-7039643D01*
X5674167Y-6849167D02*
X5693214Y-6839643D01*
X5731309Y-6839643D01*
X5750357Y-6849167D01*
X5759881Y-6858690D01*
X5769405Y-6877738D01*
X5769405Y-6934881D01*
X5759881Y-6953928D01*
X5750357Y-6963452D01*
X5731309Y-6972976D01*
X5693214Y-6972976D01*
X5674167Y-6963452D01*
X5883690Y-6972976D02*
X5864643Y-6963452D01*
X5855119Y-6944405D01*
X5855119Y-6772976D01*
X6045595Y-6972976D02*
X6045595Y-6868214D01*
X6036071Y-6849167D01*
X6017024Y-6839643D01*
X5978928Y-6839643D01*
X5959881Y-6849167D01*
X6045595Y-6963452D02*
X6026548Y-6972976D01*
X5978928Y-6972976D01*
X5959881Y-6963452D01*
X5950357Y-6944405D01*
X5950357Y-6925357D01*
X5959881Y-6906309D01*
X5978928Y-6896786D01*
X6026548Y-6896786D01*
X6045595Y-6887262D01*
X6112262Y-6839643D02*
X6188452Y-6839643D01*
X6140833Y-6772976D02*
X6140833Y-6944405D01*
X6150357Y-6963452D01*
X6169405Y-6972976D01*
X6188452Y-6972976D01*
X6331309Y-6963452D02*
X6312262Y-6972976D01*
X6274167Y-6972976D01*
X6255119Y-6963452D01*
X6245595Y-6944405D01*
X6245595Y-6868214D01*
X6255119Y-6849167D01*
X6274167Y-6839643D01*
X6312262Y-6839643D01*
X6331309Y-6849167D01*
X6340833Y-6868214D01*
X6340833Y-6887262D01*
X6245595Y-6906309D01*
X6512262Y-6972976D02*
X6512262Y-6772976D01*
X6512262Y-6963452D02*
X6493214Y-6972976D01*
X6455119Y-6972976D01*
X6436071Y-6963452D01*
X6426548Y-6953928D01*
X6417024Y-6934881D01*
X6417024Y-6877738D01*
X6426548Y-6858690D01*
X6436071Y-6849167D01*
X6455119Y-6839643D01*
X6493214Y-6839643D01*
X6512262Y-6849167D01*
X6588452Y-7049167D02*
X6597976Y-7039643D01*
X6617024Y-7011071D01*
X6626548Y-6992024D01*
X6636071Y-6963452D01*
X6645595Y-6915833D01*
X6645595Y-6877738D01*
X6636071Y-6830119D01*
X6626548Y-6801548D01*
X6617024Y-6782500D01*
X6597976Y-6753928D01*
X6588452Y-6744405D01*
M02*
