%TF.GenerationSoftware,KiCad,Pcbnew,(6.0.7)*%
%TF.CreationDate,2022-10-25T14:44:23+02:00*%
%TF.ProjectId,Affichage_Temp_Humidite,41666669-6368-4616-9765-5f54656d705f,rev?*%
%TF.SameCoordinates,PX4692680PY2625a00*%
%TF.FileFunction,Soldermask,Bot*%
%TF.FilePolarity,Negative*%
%FSLAX46Y46*%
G04 Gerber Fmt 4.6, Leading zero omitted, Abs format (unit mm)*
G04 Created by KiCad (PCBNEW (6.0.7)) date 2022-10-25 14:44:23*
%MOMM*%
%LPD*%
G01*
G04 APERTURE LIST*
%ADD10C,1.600000*%
%ADD11O,1.600000X1.600000*%
%ADD12C,4.400000*%
%ADD13R,2.500000X2.500000*%
%ADD14C,2.500000*%
%ADD15R,2.200000X2.200000*%
%ADD16O,2.200000X2.200000*%
%ADD17O,2.500000X3.500000*%
%ADD18R,2.000000X2.000000*%
%ADD19C,2.000000*%
%ADD20R,1.800000X1.800000*%
%ADD21C,1.800000*%
%ADD22R,1.398000X1.398000*%
%ADD23C,1.398000*%
%ADD24R,2.400000X2.400000*%
%ADD25C,2.400000*%
%ADD26R,4.400000X4.400000*%
%ADD27O,3.500000X3.500000*%
%ADD28R,1.900000X2.500000*%
%ADD29O,1.900000X2.500000*%
%ADD30R,1.950000X1.950000*%
%ADD31C,1.950000*%
G04 APERTURE END LIST*
D10*
%TO.C,R2*%
X103140000Y-37900000D03*
D11*
X103140000Y-27740000D03*
%TD*%
D12*
%TO.C,REF\u002A\u002A*%
X2500000Y-53500000D03*
%TD*%
D10*
%TO.C,R4*%
X67320000Y-52820000D03*
D11*
X57160000Y-52820000D03*
%TD*%
D13*
%TO.C,D1*%
X35960300Y-9492400D03*
D14*
X41560300Y-9492400D03*
X41560300Y-3892400D03*
X35960300Y-3892400D03*
%TD*%
D10*
%TO.C,C2*%
X37940000Y-29540000D03*
X37940000Y-14540000D03*
%TD*%
D15*
%TO.C,D3*%
X65990000Y-40880000D03*
D16*
X58370000Y-40880000D03*
%TD*%
D10*
%TO.C,R1*%
X75400000Y-14080000D03*
D11*
X75400000Y-3920000D03*
%TD*%
D12*
%TO.C,REF\u002A\u002A*%
X104500000Y-53500000D03*
%TD*%
D17*
%TO.C,F1*%
X28880000Y-49960000D03*
X51380000Y-49960000D03*
%TD*%
D12*
%TO.C,REF\u002A\u002A*%
X104500000Y-2500000D03*
%TD*%
D10*
%TO.C,R3*%
X67280000Y-47600000D03*
D11*
X57120000Y-47600000D03*
%TD*%
D18*
%TO.C,TR1*%
X6300000Y-11900000D03*
D19*
X6300000Y-16900000D03*
X6300000Y-26900000D03*
X6300000Y-31900000D03*
X26300000Y-31900000D03*
X26300000Y-26900000D03*
X26300000Y-21900000D03*
X26300000Y-16900000D03*
X26300000Y-11900000D03*
%TD*%
D20*
%TO.C,D2*%
X74800000Y-21500000D03*
D21*
X77340000Y-21500000D03*
%TD*%
D22*
%TO.C,J3*%
X76830000Y-45410000D03*
D23*
X76830000Y-42870000D03*
X76830000Y-40330000D03*
X76830000Y-37790000D03*
%TD*%
D24*
%TO.C,C1*%
X35800000Y-38000000D03*
D25*
X40800000Y-38000000D03*
%TD*%
D10*
%TO.C,C3*%
X66230000Y-33970000D03*
X71230000Y-33970000D03*
%TD*%
D12*
%TO.C,REF\u002A\u002A*%
X2500000Y-2500000D03*
%TD*%
D20*
%TO.C,A1*%
X82135000Y-5230000D03*
D21*
X82135000Y-7770000D03*
X82135000Y-10310000D03*
X82135000Y-12850000D03*
X82135000Y-15390000D03*
X82135000Y-17930000D03*
X82135000Y-20470000D03*
X82135000Y-23010000D03*
X82135000Y-25550000D03*
X82135000Y-28090000D03*
X82135000Y-30630000D03*
X82135000Y-33170000D03*
X82135000Y-35710000D03*
X82135000Y-38250000D03*
X82135000Y-40790000D03*
X97375000Y-40790000D03*
X97375000Y-38250000D03*
X97375000Y-35710000D03*
X97375000Y-33170000D03*
X97375000Y-30630000D03*
X97375000Y-28090000D03*
X97375000Y-25550000D03*
X97375000Y-23010000D03*
X97375000Y-20470000D03*
X97375000Y-17930000D03*
X97375000Y-15390000D03*
X97375000Y-12850000D03*
X97375000Y-10310000D03*
X97375000Y-7770000D03*
X97375000Y-5230000D03*
%TD*%
D26*
%TO.C,REF\u002A\u002A*%
X21440000Y-52600000D03*
%TD*%
D10*
%TO.C,C4*%
X103080000Y-46450000D03*
X103080000Y-41450000D03*
%TD*%
D22*
%TO.C,J2*%
X103280000Y-16560000D03*
D23*
X103280000Y-14020000D03*
X103280000Y-11480000D03*
X103280000Y-8940000D03*
%TD*%
D26*
%TO.C,REF\u002A\u002A*%
X11280000Y-52540000D03*
%TD*%
D27*
%TO.C,U1*%
X59090000Y-18070000D03*
D28*
X56550000Y-34270000D03*
D29*
X59090000Y-34270000D03*
X61630000Y-34270000D03*
%TD*%
D30*
%TO.C,J1*%
X11300000Y-44170000D03*
D31*
X16380000Y-44170000D03*
X21460000Y-44170000D03*
%TD*%
M02*
