%TF.GenerationSoftware,KiCad,Pcbnew,(6.0.7)*%
%TF.CreationDate,2022-10-25T14:44:23+02:00*%
%TF.ProjectId,Affichage_Temp_Humidite,41666669-6368-4616-9765-5f54656d705f,rev?*%
%TF.SameCoordinates,PX4692680PY2625a00*%
%TF.FileFunction,Other,ECO1*%
%FSLAX46Y46*%
G04 Gerber Fmt 4.6, Leading zero omitted, Abs format (unit mm)*
G04 Created by KiCad (PCBNEW (6.0.7)) date 2022-10-25 14:44:23*
%MOMM*%
%LPD*%
G01*
G04 APERTURE LIST*
%ADD10C,0.150000*%
G04 APERTURE END LIST*
D10*
X50424761Y-66142380D02*
X49853333Y-66142380D01*
X50139047Y-66142380D02*
X50139047Y-65142380D01*
X50043809Y-65285238D01*
X49948571Y-65380476D01*
X49853333Y-65428095D01*
X51043809Y-65142380D02*
X51139047Y-65142380D01*
X51234285Y-65190000D01*
X51281904Y-65237619D01*
X51329523Y-65332857D01*
X51377142Y-65523333D01*
X51377142Y-65761428D01*
X51329523Y-65951904D01*
X51281904Y-66047142D01*
X51234285Y-66094761D01*
X51139047Y-66142380D01*
X51043809Y-66142380D01*
X50948571Y-66094761D01*
X50900952Y-66047142D01*
X50853333Y-65951904D01*
X50805714Y-65761428D01*
X50805714Y-65523333D01*
X50853333Y-65332857D01*
X50900952Y-65237619D01*
X50948571Y-65190000D01*
X51043809Y-65142380D01*
X51710476Y-65142380D02*
X52377142Y-65142380D01*
X51948571Y-66142380D01*
X52805714Y-66094761D02*
X52805714Y-66142380D01*
X52758095Y-66237619D01*
X52710476Y-66285238D01*
X53424761Y-65142380D02*
X53520000Y-65142380D01*
X53615238Y-65190000D01*
X53662857Y-65237619D01*
X53710476Y-65332857D01*
X53758095Y-65523333D01*
X53758095Y-65761428D01*
X53710476Y-65951904D01*
X53662857Y-66047142D01*
X53615238Y-66094761D01*
X53520000Y-66142380D01*
X53424761Y-66142380D01*
X53329523Y-66094761D01*
X53281904Y-66047142D01*
X53234285Y-65951904D01*
X53186666Y-65761428D01*
X53186666Y-65523333D01*
X53234285Y-65332857D01*
X53281904Y-65237619D01*
X53329523Y-65190000D01*
X53424761Y-65142380D01*
X54948571Y-66142380D02*
X54948571Y-65475714D01*
X54948571Y-65570952D02*
X54996190Y-65523333D01*
X55091428Y-65475714D01*
X55234285Y-65475714D01*
X55329523Y-65523333D01*
X55377142Y-65618571D01*
X55377142Y-66142380D01*
X55377142Y-65618571D02*
X55424761Y-65523333D01*
X55520000Y-65475714D01*
X55662857Y-65475714D01*
X55758095Y-65523333D01*
X55805714Y-65618571D01*
X55805714Y-66142380D01*
X56281904Y-66142380D02*
X56281904Y-65475714D01*
X56281904Y-65570952D02*
X56329523Y-65523333D01*
X56424761Y-65475714D01*
X56567619Y-65475714D01*
X56662857Y-65523333D01*
X56710476Y-65618571D01*
X56710476Y-66142380D01*
X56710476Y-65618571D02*
X56758095Y-65523333D01*
X56853333Y-65475714D01*
X56996190Y-65475714D01*
X57091428Y-65523333D01*
X57139047Y-65618571D01*
X57139047Y-66142380D01*
X-20000Y-66580000D02*
X-20000Y-66253580D01*
X107060000Y-66580000D02*
X107060000Y-66253580D01*
X-20000Y-66840000D02*
X107060000Y-66840000D01*
X-20000Y-66840000D02*
X107060000Y-66840000D01*
X-20000Y-66840000D02*
X1106504Y-67426421D01*
X-20000Y-66840000D02*
X1106504Y-66253579D01*
X107060000Y-66840000D02*
X105933496Y-66253579D01*
X107060000Y-66840000D02*
X105933496Y-67426421D01*
X117432380Y-30536666D02*
X117432380Y-31012857D01*
X117908571Y-31060476D01*
X117860952Y-31012857D01*
X117813333Y-30917619D01*
X117813333Y-30679523D01*
X117860952Y-30584285D01*
X117908571Y-30536666D01*
X118003809Y-30489047D01*
X118241904Y-30489047D01*
X118337142Y-30536666D01*
X118384761Y-30584285D01*
X118432380Y-30679523D01*
X118432380Y-30917619D01*
X118384761Y-31012857D01*
X118337142Y-31060476D01*
X117432380Y-29631904D02*
X117432380Y-29822380D01*
X117480000Y-29917619D01*
X117527619Y-29965238D01*
X117670476Y-30060476D01*
X117860952Y-30108095D01*
X118241904Y-30108095D01*
X118337142Y-30060476D01*
X118384761Y-30012857D01*
X118432380Y-29917619D01*
X118432380Y-29727142D01*
X118384761Y-29631904D01*
X118337142Y-29584285D01*
X118241904Y-29536666D01*
X118003809Y-29536666D01*
X117908571Y-29584285D01*
X117860952Y-29631904D01*
X117813333Y-29727142D01*
X117813333Y-29917619D01*
X117860952Y-30012857D01*
X117908571Y-30060476D01*
X118003809Y-30108095D01*
X118384761Y-29060476D02*
X118432380Y-29060476D01*
X118527619Y-29108095D01*
X118575238Y-29155714D01*
X117432380Y-28441428D02*
X117432380Y-28346190D01*
X117480000Y-28250952D01*
X117527619Y-28203333D01*
X117622857Y-28155714D01*
X117813333Y-28108095D01*
X118051428Y-28108095D01*
X118241904Y-28155714D01*
X118337142Y-28203333D01*
X118384761Y-28250952D01*
X118432380Y-28346190D01*
X118432380Y-28441428D01*
X118384761Y-28536666D01*
X118337142Y-28584285D01*
X118241904Y-28631904D01*
X118051428Y-28679523D01*
X117813333Y-28679523D01*
X117622857Y-28631904D01*
X117527619Y-28584285D01*
X117480000Y-28536666D01*
X117432380Y-28441428D01*
X118432380Y-26917619D02*
X117765714Y-26917619D01*
X117860952Y-26917619D02*
X117813333Y-26870000D01*
X117765714Y-26774761D01*
X117765714Y-26631904D01*
X117813333Y-26536666D01*
X117908571Y-26489047D01*
X118432380Y-26489047D01*
X117908571Y-26489047D02*
X117813333Y-26441428D01*
X117765714Y-26346190D01*
X117765714Y-26203333D01*
X117813333Y-26108095D01*
X117908571Y-26060476D01*
X118432380Y-26060476D01*
X118432380Y-25584285D02*
X117765714Y-25584285D01*
X117860952Y-25584285D02*
X117813333Y-25536666D01*
X117765714Y-25441428D01*
X117765714Y-25298571D01*
X117813333Y-25203333D01*
X117908571Y-25155714D01*
X118432380Y-25155714D01*
X117908571Y-25155714D02*
X117813333Y-25108095D01*
X117765714Y-25012857D01*
X117765714Y-24870000D01*
X117813333Y-24774761D01*
X117908571Y-24727142D01*
X118432380Y-24727142D01*
X118630000Y-55920000D02*
X118543580Y-55920000D01*
X118630000Y180000D02*
X118543580Y180000D01*
X119130000Y-55920000D02*
X119130000Y180000D01*
X119130000Y-55920000D02*
X119130000Y180000D01*
X119130000Y-55920000D02*
X119716421Y-54793496D01*
X119130000Y-55920000D02*
X118543579Y-54793496D01*
X119130000Y180000D02*
X118543579Y-946504D01*
X119130000Y180000D02*
X119716421Y-946504D01*
M02*
