%TF.GenerationSoftware,KiCad,Pcbnew,(6.0.7)*%
%TF.CreationDate,2022-10-25T14:44:23+02:00*%
%TF.ProjectId,Affichage_Temp_Humidite,41666669-6368-4616-9765-5f54656d705f,rev?*%
%TF.SameCoordinates,PX4692680PY2625a00*%
%TF.FileFunction,Legend,Top*%
%TF.FilePolarity,Positive*%
%FSLAX46Y46*%
G04 Gerber Fmt 4.6, Leading zero omitted, Abs format (unit mm)*
G04 Created by KiCad (PCBNEW (6.0.7)) date 2022-10-25 14:44:23*
%MOMM*%
%LPD*%
G01*
G04 APERTURE LIST*
%ADD10C,0.150000*%
%ADD11C,0.375000*%
%ADD12C,0.015000*%
%ADD13C,0.120000*%
%ADD14C,0.127000*%
%ADD15C,0.200000*%
G04 APERTURE END LIST*
D10*
%TO.C,R2*%
X101222380Y-32986666D02*
X100746190Y-33320000D01*
X101222380Y-33558095D02*
X100222380Y-33558095D01*
X100222380Y-33177142D01*
X100270000Y-33081904D01*
X100317619Y-33034285D01*
X100412857Y-32986666D01*
X100555714Y-32986666D01*
X100650952Y-33034285D01*
X100698571Y-33081904D01*
X100746190Y-33177142D01*
X100746190Y-33558095D01*
X100317619Y-32605714D02*
X100270000Y-32558095D01*
X100222380Y-32462857D01*
X100222380Y-32224761D01*
X100270000Y-32129523D01*
X100317619Y-32081904D01*
X100412857Y-32034285D01*
X100508095Y-32034285D01*
X100650952Y-32081904D01*
X101222380Y-32653333D01*
X101222380Y-32034285D01*
%TO.C,R4*%
X54673333Y-54172380D02*
X54340000Y-53696190D01*
X54101904Y-54172380D02*
X54101904Y-53172380D01*
X54482857Y-53172380D01*
X54578095Y-53220000D01*
X54625714Y-53267619D01*
X54673333Y-53362857D01*
X54673333Y-53505714D01*
X54625714Y-53600952D01*
X54578095Y-53648571D01*
X54482857Y-53696190D01*
X54101904Y-53696190D01*
X55530476Y-53505714D02*
X55530476Y-54172380D01*
X55292380Y-53124761D02*
X55054285Y-53839047D01*
X55673333Y-53839047D01*
%TO.C,D1*%
X32672204Y-1319780D02*
X32672204Y-319780D01*
X32910300Y-319780D01*
X33053157Y-367400D01*
X33148395Y-462638D01*
X33196014Y-557876D01*
X33243633Y-748352D01*
X33243633Y-891209D01*
X33196014Y-1081685D01*
X33148395Y-1176923D01*
X33053157Y-1272161D01*
X32910300Y-1319780D01*
X32672204Y-1319780D01*
X34196014Y-1319780D02*
X33624585Y-1319780D01*
X33910300Y-1319780D02*
X33910300Y-319780D01*
X33815061Y-462638D01*
X33719823Y-557876D01*
X33624585Y-605495D01*
D11*
X31578871Y-10349542D02*
X32721728Y-10349542D01*
X32150300Y-10920971D02*
X32150300Y-9778114D01*
X44278871Y-3999542D02*
X45421728Y-3999542D01*
D10*
X33158395Y-2693828D02*
X33206014Y-2646209D01*
X33301252Y-2598590D01*
X33491728Y-2693828D01*
X33586966Y-2646209D01*
X33634585Y-2598590D01*
%TO.C,C2*%
X33697142Y-21281666D02*
X33744761Y-21329285D01*
X33792380Y-21472142D01*
X33792380Y-21567380D01*
X33744761Y-21710238D01*
X33649523Y-21805476D01*
X33554285Y-21853095D01*
X33363809Y-21900714D01*
X33220952Y-21900714D01*
X33030476Y-21853095D01*
X32935238Y-21805476D01*
X32840000Y-21710238D01*
X32792380Y-21567380D01*
X32792380Y-21472142D01*
X32840000Y-21329285D01*
X32887619Y-21281666D01*
X32887619Y-20900714D02*
X32840000Y-20853095D01*
X32792380Y-20757857D01*
X32792380Y-20519761D01*
X32840000Y-20424523D01*
X32887619Y-20376904D01*
X32982857Y-20329285D01*
X33078095Y-20329285D01*
X33220952Y-20376904D01*
X33792380Y-20948333D01*
X33792380Y-20329285D01*
%TO.C,D3*%
X54741904Y-42432380D02*
X54741904Y-41432380D01*
X54980000Y-41432380D01*
X55122857Y-41480000D01*
X55218095Y-41575238D01*
X55265714Y-41670476D01*
X55313333Y-41860952D01*
X55313333Y-42003809D01*
X55265714Y-42194285D01*
X55218095Y-42289523D01*
X55122857Y-42384761D01*
X54980000Y-42432380D01*
X54741904Y-42432380D01*
X55646666Y-41432380D02*
X56265714Y-41432380D01*
X55932380Y-41813333D01*
X56075238Y-41813333D01*
X56170476Y-41860952D01*
X56218095Y-41908571D01*
X56265714Y-42003809D01*
X56265714Y-42241904D01*
X56218095Y-42337142D01*
X56170476Y-42384761D01*
X56075238Y-42432380D01*
X55789523Y-42432380D01*
X55694285Y-42384761D01*
X55646666Y-42337142D01*
X65728095Y-43432380D02*
X65728095Y-42432380D01*
X66299523Y-43432380D02*
X65870952Y-42860952D01*
X66299523Y-42432380D02*
X65728095Y-43003809D01*
%TO.C,R1*%
X73482380Y-9166666D02*
X73006190Y-9500000D01*
X73482380Y-9738095D02*
X72482380Y-9738095D01*
X72482380Y-9357142D01*
X72530000Y-9261904D01*
X72577619Y-9214285D01*
X72672857Y-9166666D01*
X72815714Y-9166666D01*
X72910952Y-9214285D01*
X72958571Y-9261904D01*
X73006190Y-9357142D01*
X73006190Y-9738095D01*
X73482380Y-8214285D02*
X73482380Y-8785714D01*
X73482380Y-8500000D02*
X72482380Y-8500000D01*
X72625238Y-8595238D01*
X72720476Y-8690476D01*
X72768095Y-8785714D01*
%TO.C,F1*%
X27226666Y-43818571D02*
X26893333Y-43818571D01*
X26893333Y-44342380D02*
X26893333Y-43342380D01*
X27369523Y-43342380D01*
X28274285Y-44342380D02*
X27702857Y-44342380D01*
X27988571Y-44342380D02*
X27988571Y-43342380D01*
X27893333Y-43485238D01*
X27798095Y-43580476D01*
X27702857Y-43628095D01*
X30184285Y-44302380D02*
X29612857Y-44302380D01*
X29898571Y-44302380D02*
X29898571Y-43302380D01*
X29803333Y-43445238D01*
X29708095Y-43540476D01*
X29612857Y-43588095D01*
X30803333Y-43302380D02*
X30898571Y-43302380D01*
X30993809Y-43350000D01*
X31041428Y-43397619D01*
X31089047Y-43492857D01*
X31136666Y-43683333D01*
X31136666Y-43921428D01*
X31089047Y-44111904D01*
X31041428Y-44207142D01*
X30993809Y-44254761D01*
X30898571Y-44302380D01*
X30803333Y-44302380D01*
X30708095Y-44254761D01*
X30660476Y-44207142D01*
X30612857Y-44111904D01*
X30565238Y-43921428D01*
X30565238Y-43683333D01*
X30612857Y-43492857D01*
X30660476Y-43397619D01*
X30708095Y-43350000D01*
X30803333Y-43302380D01*
X31755714Y-43302380D02*
X31850952Y-43302380D01*
X31946190Y-43350000D01*
X31993809Y-43397619D01*
X32041428Y-43492857D01*
X32089047Y-43683333D01*
X32089047Y-43921428D01*
X32041428Y-44111904D01*
X31993809Y-44207142D01*
X31946190Y-44254761D01*
X31850952Y-44302380D01*
X31755714Y-44302380D01*
X31660476Y-44254761D01*
X31612857Y-44207142D01*
X31565238Y-44111904D01*
X31517619Y-43921428D01*
X31517619Y-43683333D01*
X31565238Y-43492857D01*
X31612857Y-43397619D01*
X31660476Y-43350000D01*
X31755714Y-43302380D01*
X32517619Y-44302380D02*
X32517619Y-43635714D01*
X32517619Y-43730952D02*
X32565238Y-43683333D01*
X32660476Y-43635714D01*
X32803333Y-43635714D01*
X32898571Y-43683333D01*
X32946190Y-43778571D01*
X32946190Y-44302380D01*
X32946190Y-43778571D02*
X32993809Y-43683333D01*
X33089047Y-43635714D01*
X33231904Y-43635714D01*
X33327142Y-43683333D01*
X33374761Y-43778571D01*
X33374761Y-44302380D01*
X34279523Y-44302380D02*
X34279523Y-43778571D01*
X34231904Y-43683333D01*
X34136666Y-43635714D01*
X33946190Y-43635714D01*
X33850952Y-43683333D01*
X34279523Y-44254761D02*
X34184285Y-44302380D01*
X33946190Y-44302380D01*
X33850952Y-44254761D01*
X33803333Y-44159523D01*
X33803333Y-44064285D01*
X33850952Y-43969047D01*
X33946190Y-43921428D01*
X34184285Y-43921428D01*
X34279523Y-43873809D01*
%TO.C,R3*%
X54633333Y-48952380D02*
X54300000Y-48476190D01*
X54061904Y-48952380D02*
X54061904Y-47952380D01*
X54442857Y-47952380D01*
X54538095Y-48000000D01*
X54585714Y-48047619D01*
X54633333Y-48142857D01*
X54633333Y-48285714D01*
X54585714Y-48380952D01*
X54538095Y-48428571D01*
X54442857Y-48476190D01*
X54061904Y-48476190D01*
X54966666Y-47952380D02*
X55585714Y-47952380D01*
X55252380Y-48333333D01*
X55395238Y-48333333D01*
X55490476Y-48380952D01*
X55538095Y-48428571D01*
X55585714Y-48523809D01*
X55585714Y-48761904D01*
X55538095Y-48857142D01*
X55490476Y-48904761D01*
X55395238Y-48952380D01*
X55109523Y-48952380D01*
X55014285Y-48904761D01*
X54966666Y-48857142D01*
%TO.C,TR1*%
X1702380Y-40811904D02*
X1702380Y-40240476D01*
X2702380Y-40526190D02*
X1702380Y-40526190D01*
X2702380Y-39335714D02*
X2226190Y-39669047D01*
X2702380Y-39907142D02*
X1702380Y-39907142D01*
X1702380Y-39526190D01*
X1750000Y-39430952D01*
X1797619Y-39383333D01*
X1892857Y-39335714D01*
X2035714Y-39335714D01*
X2130952Y-39383333D01*
X2178571Y-39430952D01*
X2226190Y-39526190D01*
X2226190Y-39907142D01*
X2702380Y-38383333D02*
X2702380Y-38954761D01*
X2702380Y-38669047D02*
X1702380Y-38669047D01*
X1845238Y-38764285D01*
X1940476Y-38859523D01*
X1988095Y-38954761D01*
X29252380Y-12090476D02*
X29252380Y-12661904D01*
X29252380Y-12376190D02*
X28252380Y-12376190D01*
X28395238Y-12471428D01*
X28490476Y-12566666D01*
X28538095Y-12661904D01*
X28252380Y-11471428D02*
X28252380Y-11376190D01*
X28300000Y-11280952D01*
X28347619Y-11233333D01*
X28442857Y-11185714D01*
X28633333Y-11138095D01*
X28871428Y-11138095D01*
X29061904Y-11185714D01*
X29157142Y-11233333D01*
X29204761Y-11280952D01*
X29252380Y-11376190D01*
X29252380Y-11471428D01*
X29204761Y-11566666D01*
X29157142Y-11614285D01*
X29061904Y-11661904D01*
X28871428Y-11709523D01*
X28633333Y-11709523D01*
X28442857Y-11661904D01*
X28347619Y-11614285D01*
X28300000Y-11566666D01*
X28252380Y-11471428D01*
X2752380Y-31661904D02*
X2752380Y-32138095D01*
X3228571Y-32185714D01*
X3180952Y-32138095D01*
X3133333Y-32042857D01*
X3133333Y-31804761D01*
X3180952Y-31709523D01*
X3228571Y-31661904D01*
X3323809Y-31614285D01*
X3561904Y-31614285D01*
X3657142Y-31661904D01*
X3704761Y-31709523D01*
X3752380Y-31804761D01*
X3752380Y-32042857D01*
X3704761Y-32138095D01*
X3657142Y-32185714D01*
X2847619Y-17185714D02*
X2800000Y-17138095D01*
X2752380Y-17042857D01*
X2752380Y-16804761D01*
X2800000Y-16709523D01*
X2847619Y-16661904D01*
X2942857Y-16614285D01*
X3038095Y-16614285D01*
X3180952Y-16661904D01*
X3752380Y-17233333D01*
X3752380Y-16614285D01*
X2752380Y-22233333D02*
X2752380Y-21614285D01*
X3133333Y-21947619D01*
X3133333Y-21804761D01*
X3180952Y-21709523D01*
X3228571Y-21661904D01*
X3323809Y-21614285D01*
X3561904Y-21614285D01*
X3657142Y-21661904D01*
X3704761Y-21709523D01*
X3752380Y-21804761D01*
X3752380Y-22090476D01*
X3704761Y-22185714D01*
X3657142Y-22233333D01*
X29252380Y-17090476D02*
X29252380Y-16900000D01*
X29204761Y-16804761D01*
X29157142Y-16757142D01*
X29014285Y-16661904D01*
X28823809Y-16614285D01*
X28442857Y-16614285D01*
X28347619Y-16661904D01*
X28300000Y-16709523D01*
X28252380Y-16804761D01*
X28252380Y-16995238D01*
X28300000Y-17090476D01*
X28347619Y-17138095D01*
X28442857Y-17185714D01*
X28680952Y-17185714D01*
X28776190Y-17138095D01*
X28823809Y-17090476D01*
X28871428Y-16995238D01*
X28871428Y-16804761D01*
X28823809Y-16709523D01*
X28776190Y-16661904D01*
X28680952Y-16614285D01*
X28252380Y-31709523D02*
X28252380Y-31900000D01*
X28300000Y-31995238D01*
X28347619Y-32042857D01*
X28490476Y-32138095D01*
X28680952Y-32185714D01*
X29061904Y-32185714D01*
X29157142Y-32138095D01*
X29204761Y-32090476D01*
X29252380Y-31995238D01*
X29252380Y-31804761D01*
X29204761Y-31709523D01*
X29157142Y-31661904D01*
X29061904Y-31614285D01*
X28823809Y-31614285D01*
X28728571Y-31661904D01*
X28680952Y-31709523D01*
X28633333Y-31804761D01*
X28633333Y-31995238D01*
X28680952Y-32090476D01*
X28728571Y-32138095D01*
X28823809Y-32185714D01*
X28252380Y-27233333D02*
X28252380Y-26566666D01*
X29252380Y-26995238D01*
X28680952Y-21995238D02*
X28633333Y-22090476D01*
X28585714Y-22138095D01*
X28490476Y-22185714D01*
X28442857Y-22185714D01*
X28347619Y-22138095D01*
X28300000Y-22090476D01*
X28252380Y-21995238D01*
X28252380Y-21804761D01*
X28300000Y-21709523D01*
X28347619Y-21661904D01*
X28442857Y-21614285D01*
X28490476Y-21614285D01*
X28585714Y-21661904D01*
X28633333Y-21709523D01*
X28680952Y-21804761D01*
X28680952Y-21995238D01*
X28728571Y-22090476D01*
X28776190Y-22138095D01*
X28871428Y-22185714D01*
X29061904Y-22185714D01*
X29157142Y-22138095D01*
X29204761Y-22090476D01*
X29252380Y-21995238D01*
X29252380Y-21804761D01*
X29204761Y-21709523D01*
X29157142Y-21661904D01*
X29061904Y-21614285D01*
X28871428Y-21614285D01*
X28776190Y-21661904D01*
X28728571Y-21709523D01*
X28680952Y-21804761D01*
X3085714Y-26709523D02*
X3752380Y-26709523D01*
X2704761Y-26947619D02*
X3419047Y-27185714D01*
X3419047Y-26566666D01*
X3752380Y-11614285D02*
X3752380Y-12185714D01*
X3752380Y-11900000D02*
X2752380Y-11900000D01*
X2895238Y-11995238D01*
X2990476Y-12090476D01*
X3038095Y-12185714D01*
%TO.C,D2*%
X78036904Y-17952380D02*
X78036904Y-16952380D01*
X78275000Y-16952380D01*
X78417857Y-17000000D01*
X78513095Y-17095238D01*
X78560714Y-17190476D01*
X78608333Y-17380952D01*
X78608333Y-17523809D01*
X78560714Y-17714285D01*
X78513095Y-17809523D01*
X78417857Y-17904761D01*
X78275000Y-17952380D01*
X78036904Y-17952380D01*
X78989285Y-17047619D02*
X79036904Y-17000000D01*
X79132142Y-16952380D01*
X79370238Y-16952380D01*
X79465476Y-17000000D01*
X79513095Y-17047619D01*
X79560714Y-17142857D01*
X79560714Y-17238095D01*
X79513095Y-17380952D01*
X78941666Y-17952380D01*
X79560714Y-17952380D01*
%TO.C,J3*%
X76042337Y-48437273D02*
X77043636Y-48437273D01*
X77243896Y-48504026D01*
X77377402Y-48637532D01*
X77444156Y-48837792D01*
X77444156Y-48971299D01*
X76042337Y-47903246D02*
X76042337Y-47035454D01*
X76576363Y-47502727D01*
X76576363Y-47302467D01*
X76643116Y-47168960D01*
X76709870Y-47102207D01*
X76843376Y-47035454D01*
X77177143Y-47035454D01*
X77310649Y-47102207D01*
X77377402Y-47168960D01*
X77444156Y-47302467D01*
X77444156Y-47702986D01*
X77377402Y-47836493D01*
X77310649Y-47903246D01*
%TO.C,C1*%
X32133333Y-32357142D02*
X32085714Y-32404761D01*
X31942857Y-32452380D01*
X31847619Y-32452380D01*
X31704761Y-32404761D01*
X31609523Y-32309523D01*
X31561904Y-32214285D01*
X31514285Y-32023809D01*
X31514285Y-31880952D01*
X31561904Y-31690476D01*
X31609523Y-31595238D01*
X31704761Y-31500000D01*
X31847619Y-31452380D01*
X31942857Y-31452380D01*
X32085714Y-31500000D01*
X32133333Y-31547619D01*
X33085714Y-32452380D02*
X32514285Y-32452380D01*
X32800000Y-32452380D02*
X32800000Y-31452380D01*
X32704761Y-31595238D01*
X32609523Y-31690476D01*
X32514285Y-31738095D01*
%TO.C,C3*%
X73763333Y-34727142D02*
X73715714Y-34774761D01*
X73572857Y-34822380D01*
X73477619Y-34822380D01*
X73334761Y-34774761D01*
X73239523Y-34679523D01*
X73191904Y-34584285D01*
X73144285Y-34393809D01*
X73144285Y-34250952D01*
X73191904Y-34060476D01*
X73239523Y-33965238D01*
X73334761Y-33870000D01*
X73477619Y-33822380D01*
X73572857Y-33822380D01*
X73715714Y-33870000D01*
X73763333Y-33917619D01*
X74096666Y-33822380D02*
X74715714Y-33822380D01*
X74382380Y-34203333D01*
X74525238Y-34203333D01*
X74620476Y-34250952D01*
X74668095Y-34298571D01*
X74715714Y-34393809D01*
X74715714Y-34631904D01*
X74668095Y-34727142D01*
X74620476Y-34774761D01*
X74525238Y-34822380D01*
X74239523Y-34822380D01*
X74144285Y-34774761D01*
X74096666Y-34727142D01*
%TO.C,A1*%
X78380000Y-2353333D02*
X79046666Y-2353333D01*
X78246666Y-2753333D02*
X78713333Y-1353333D01*
X79180000Y-2753333D01*
X80380000Y-2753333D02*
X79580000Y-2753333D01*
X79980000Y-2753333D02*
X79980000Y-1353333D01*
X79846666Y-1553333D01*
X79713333Y-1686666D01*
X79580000Y-1753333D01*
%TO.C,C4*%
X100937142Y-44116666D02*
X100984761Y-44164285D01*
X101032380Y-44307142D01*
X101032380Y-44402380D01*
X100984761Y-44545238D01*
X100889523Y-44640476D01*
X100794285Y-44688095D01*
X100603809Y-44735714D01*
X100460952Y-44735714D01*
X100270476Y-44688095D01*
X100175238Y-44640476D01*
X100080000Y-44545238D01*
X100032380Y-44402380D01*
X100032380Y-44307142D01*
X100080000Y-44164285D01*
X100127619Y-44116666D01*
X100365714Y-43259523D02*
X101032380Y-43259523D01*
X99984761Y-43497619D02*
X100699047Y-43735714D01*
X100699047Y-43116666D01*
%TO.C,J2*%
X100302337Y-19227273D02*
X101303636Y-19227273D01*
X101503896Y-19294026D01*
X101637402Y-19427532D01*
X101704156Y-19627792D01*
X101704156Y-19761299D01*
X100435843Y-18626493D02*
X100369090Y-18559740D01*
X100302337Y-18426233D01*
X100302337Y-18092467D01*
X100369090Y-17958960D01*
X100435843Y-17892207D01*
X100569350Y-17825454D01*
X100702856Y-17825454D01*
X100903116Y-17892207D01*
X101704156Y-18693246D01*
X101704156Y-17825454D01*
%TO.C,U1*%
X48128095Y-31547380D02*
X48128095Y-32356904D01*
X48175714Y-32452142D01*
X48223333Y-32499761D01*
X48318571Y-32547380D01*
X48509047Y-32547380D01*
X48604285Y-32499761D01*
X48651904Y-32452142D01*
X48699523Y-32356904D01*
X48699523Y-31547380D01*
X49699523Y-32547380D02*
X49128095Y-32547380D01*
X49413809Y-32547380D02*
X49413809Y-31547380D01*
X49318571Y-31690238D01*
X49223333Y-31785476D01*
X49128095Y-31833095D01*
D12*
%TO.C,J1*%
X6336666Y-39342380D02*
X6336666Y-40056666D01*
X6289047Y-40199523D01*
X6193809Y-40294761D01*
X6050952Y-40342380D01*
X5955714Y-40342380D01*
X7336666Y-40342380D02*
X6765238Y-40342380D01*
X7050952Y-40342380D02*
X7050952Y-39342380D01*
X6955714Y-39485238D01*
X6860476Y-39580476D01*
X6765238Y-39628095D01*
D13*
%TO.C,R2*%
X101770000Y-29550000D02*
X101770000Y-36090000D01*
X104510000Y-36090000D02*
X104510000Y-29550000D01*
X103140000Y-28780000D02*
X103140000Y-29550000D01*
X101770000Y-36090000D02*
X104510000Y-36090000D01*
X103140000Y-36860000D02*
X103140000Y-36090000D01*
X104510000Y-29550000D02*
X101770000Y-29550000D01*
%TO.C,R4*%
X65510000Y-51450000D02*
X58970000Y-51450000D01*
X65510000Y-54190000D02*
X65510000Y-51450000D01*
X66280000Y-52820000D02*
X65510000Y-52820000D01*
X58970000Y-51450000D02*
X58970000Y-54190000D01*
X58200000Y-52820000D02*
X58970000Y-52820000D01*
X58970000Y-54190000D02*
X65510000Y-54190000D01*
%TO.C,D1*%
X34085300Y-11192400D02*
X42860300Y-11192400D01*
X42860300Y-11192400D02*
G75*
G03*
X34060300Y-11192400I-4400000J4252585D01*
G01*
%TO.C,C2*%
X37515000Y-30540000D02*
X41240000Y-30540000D01*
X34640000Y-30540000D02*
X37515000Y-30540000D01*
X37051250Y-13540000D02*
X41240000Y-13540000D01*
X41240000Y-30540000D02*
X41240000Y-13540000D01*
X34640000Y-13540000D02*
X37120625Y-13540000D01*
X34640000Y-30540000D02*
X34640000Y-13540000D01*
%TO.C,D3*%
X64900000Y-42220000D02*
X64900000Y-42350000D01*
X64900000Y-39540000D02*
X64900000Y-39410000D01*
X64000000Y-42350000D02*
X64000000Y-39410000D01*
X63880000Y-42350000D02*
X63880000Y-39410000D01*
X59460000Y-39410000D02*
X59460000Y-39540000D01*
X59460000Y-42350000D02*
X59460000Y-42220000D01*
X64900000Y-42350000D02*
X59460000Y-42350000D01*
X64120000Y-42350000D02*
X64120000Y-39410000D01*
X64900000Y-39410000D02*
X59460000Y-39410000D01*
%TO.C,R1*%
X75400000Y-13040000D02*
X75400000Y-12270000D01*
X76770000Y-5730000D02*
X74030000Y-5730000D01*
X75400000Y-4960000D02*
X75400000Y-5730000D01*
X74030000Y-5730000D02*
X74030000Y-12270000D01*
X74030000Y-12270000D02*
X76770000Y-12270000D01*
X76770000Y-12270000D02*
X76770000Y-5730000D01*
%TO.C,F1*%
X28770000Y-54870000D02*
X51490000Y-54870000D01*
X51490000Y-54870000D02*
X51490000Y-51785000D01*
X28770000Y-45050000D02*
X51490000Y-45050000D01*
X28770000Y-48135000D02*
X28770000Y-45050000D01*
X28770000Y-54870000D02*
X28770000Y-51810000D01*
X51490000Y-48135000D02*
X51490000Y-45050000D01*
%TO.C,R3*%
X58160000Y-47600000D02*
X58930000Y-47600000D01*
X65470000Y-48970000D02*
X65470000Y-46230000D01*
X58930000Y-46230000D02*
X58930000Y-48970000D01*
X65470000Y-46230000D02*
X58930000Y-46230000D01*
X66240000Y-47600000D02*
X65470000Y-47600000D01*
X58930000Y-48970000D02*
X65470000Y-48970000D01*
%TO.C,TR1*%
X5300000Y-32900000D02*
X5300000Y-33400000D01*
X30420000Y-6280000D02*
X2180000Y-6280000D01*
X27300000Y-15900000D02*
X27300000Y-12900000D01*
X5300000Y-13400000D02*
X5300000Y-15900000D01*
X5300000Y-17900000D02*
X5300000Y-25900000D01*
X2180000Y-37520000D02*
X2180000Y-6280000D01*
X2180000Y-37520000D02*
X30420000Y-37520000D01*
X5300000Y-27900000D02*
X5300000Y-30900000D01*
X5300000Y-33400000D02*
X27300000Y-33400000D01*
X27300000Y-20900000D02*
X27300000Y-17900000D01*
X27300000Y-30900000D02*
X27300000Y-27900000D01*
X30420000Y-6280000D02*
X30420000Y-37520000D01*
X27300000Y-25900000D02*
X27300000Y-22900000D01*
X27300000Y-10400000D02*
X5300000Y-10400000D01*
X27300000Y-33400000D02*
X27300000Y-32900000D01*
X27300000Y-10900000D02*
X27300000Y-10400000D01*
%TO.C,D2*%
X73510000Y-19955000D02*
X73510000Y-23045000D01*
X73510000Y-23044830D02*
G75*
G03*
X79060000Y-21499538I2560000J1544830D01*
G01*
X79060000Y-21500462D02*
G75*
G03*
X73510000Y-19955170I-2990000J462D01*
G01*
X78570000Y-21500000D02*
G75*
G03*
X78570000Y-21500000I-2500000J0D01*
G01*
D14*
%TO.C,J3*%
X77998000Y-36723000D02*
X77998000Y-46477000D01*
X75662000Y-36723000D02*
X77998000Y-36723000D01*
X77998000Y-46477000D02*
X75662000Y-46477000D01*
X75662000Y-46477000D02*
X75662000Y-36723000D01*
D15*
X74762000Y-45410000D02*
G75*
G03*
X74762000Y-45410000I-100000J0D01*
G01*
D13*
%TO.C,C1*%
X40821000Y-32189000D02*
X40821000Y-36560000D01*
X40701000Y-32139000D02*
X40701000Y-36560000D01*
X43261000Y-34043000D02*
X43261000Y-41957000D01*
X41981000Y-32840000D02*
X41981000Y-36560000D01*
X39741000Y-31834000D02*
X39741000Y-36560000D01*
X43141000Y-33898000D02*
X43141000Y-42102000D01*
X38420000Y-31671000D02*
X38420000Y-44329000D01*
X41221000Y-32378000D02*
X41221000Y-36560000D01*
X39541000Y-31791000D02*
X39541000Y-36560000D01*
X42181000Y-32988000D02*
X42181000Y-36560000D01*
X42021000Y-39440000D02*
X42021000Y-43131000D01*
X43621000Y-34536000D02*
X43621000Y-41464000D01*
X40581000Y-32092000D02*
X40581000Y-36560000D01*
X39541000Y-39440000D02*
X39541000Y-44209000D01*
X39941000Y-31884000D02*
X39941000Y-36560000D01*
X39901000Y-31874000D02*
X39901000Y-36560000D01*
X43661000Y-34598000D02*
X43661000Y-41402000D01*
X43301000Y-34093000D02*
X43301000Y-41907000D01*
X39381000Y-31762000D02*
X39381000Y-36560000D01*
X41741000Y-39440000D02*
X41741000Y-43322000D01*
X39901000Y-39440000D02*
X39901000Y-44126000D01*
X39061000Y-31715000D02*
X39061000Y-44285000D01*
X41421000Y-32486000D02*
X41421000Y-36560000D01*
X43981000Y-35156000D02*
X43981000Y-40844000D01*
X43901000Y-35004000D02*
X43901000Y-40996000D01*
X40461000Y-39440000D02*
X40461000Y-43953000D01*
X43021000Y-33762000D02*
X43021000Y-42238000D01*
X40181000Y-31953000D02*
X40181000Y-36560000D01*
X38740000Y-31685000D02*
X38740000Y-44315000D01*
X40501000Y-32061000D02*
X40501000Y-36560000D01*
X31482918Y-34425000D02*
X32732918Y-34425000D01*
X44621000Y-37243000D02*
X44621000Y-38757000D01*
X41741000Y-32678000D02*
X41741000Y-36560000D01*
X42781000Y-33511000D02*
X42781000Y-42489000D01*
X41341000Y-32442000D02*
X41341000Y-36560000D01*
X44101000Y-35406000D02*
X44101000Y-40594000D01*
X42061000Y-32898000D02*
X42061000Y-36560000D01*
X40901000Y-32224000D02*
X40901000Y-36560000D01*
X38460000Y-31672000D02*
X38460000Y-44328000D01*
X40061000Y-31917000D02*
X40061000Y-36560000D01*
X41021000Y-32279000D02*
X41021000Y-36560000D01*
X40461000Y-32047000D02*
X40461000Y-36560000D01*
X41581000Y-39440000D02*
X41581000Y-43421000D01*
X42101000Y-39440000D02*
X42101000Y-43073000D01*
X44141000Y-35496000D02*
X44141000Y-40504000D01*
X39861000Y-39440000D02*
X39861000Y-44137000D01*
X41941000Y-39440000D02*
X41941000Y-43188000D01*
X41941000Y-32812000D02*
X41941000Y-36560000D01*
X41181000Y-32358000D02*
X41181000Y-36560000D01*
X40901000Y-39440000D02*
X40901000Y-43776000D01*
X43061000Y-33806000D02*
X43061000Y-42194000D01*
X41021000Y-39440000D02*
X41021000Y-43721000D01*
X41101000Y-39440000D02*
X41101000Y-43682000D01*
X40101000Y-31929000D02*
X40101000Y-36560000D01*
X39141000Y-31725000D02*
X39141000Y-44275000D01*
X40541000Y-39440000D02*
X40541000Y-43924000D01*
X38620000Y-31678000D02*
X38620000Y-44322000D01*
X42141000Y-39440000D02*
X42141000Y-43043000D01*
X39821000Y-31854000D02*
X39821000Y-36560000D01*
X40261000Y-39440000D02*
X40261000Y-44021000D01*
X39861000Y-31863000D02*
X39861000Y-36560000D01*
X39981000Y-39440000D02*
X39981000Y-44105000D01*
X41861000Y-32757000D02*
X41861000Y-36560000D01*
X39581000Y-39440000D02*
X39581000Y-44201000D01*
X44461000Y-36417000D02*
X44461000Y-39583000D01*
X44181000Y-35590000D02*
X44181000Y-40410000D01*
X40301000Y-39440000D02*
X40301000Y-44008000D01*
X40781000Y-39440000D02*
X40781000Y-43828000D01*
X41141000Y-39440000D02*
X41141000Y-43662000D01*
X43861000Y-34931000D02*
X43861000Y-41069000D01*
X41581000Y-32579000D02*
X41581000Y-36560000D01*
X38300000Y-31670000D02*
X38300000Y-44330000D01*
X40221000Y-39440000D02*
X40221000Y-44034000D01*
X41701000Y-39440000D02*
X41701000Y-43347000D01*
X38580000Y-31676000D02*
X38580000Y-44324000D01*
X41981000Y-39440000D02*
X41981000Y-43160000D01*
X44061000Y-35319000D02*
X44061000Y-40681000D01*
X39501000Y-39440000D02*
X39501000Y-44216000D01*
X40581000Y-39440000D02*
X40581000Y-43908000D01*
X42101000Y-32927000D02*
X42101000Y-36560000D01*
X38980000Y-31706000D02*
X38980000Y-44294000D01*
X43541000Y-34417000D02*
X43541000Y-41583000D01*
X40101000Y-39440000D02*
X40101000Y-44071000D01*
X40661000Y-39440000D02*
X40661000Y-43877000D01*
X42301000Y-33082000D02*
X42301000Y-42918000D01*
X40341000Y-32005000D02*
X40341000Y-36560000D01*
X38540000Y-31674000D02*
X38540000Y-44326000D01*
X42381000Y-33148000D02*
X42381000Y-42852000D01*
X42461000Y-33215000D02*
X42461000Y-42785000D01*
X38900000Y-31698000D02*
X38900000Y-44302000D01*
X39781000Y-39440000D02*
X39781000Y-44156000D01*
X39781000Y-31844000D02*
X39781000Y-36560000D01*
X44501000Y-36578000D02*
X44501000Y-39422000D01*
X39621000Y-31808000D02*
X39621000Y-36560000D01*
X41901000Y-32784000D02*
X41901000Y-36560000D01*
X40621000Y-39440000D02*
X40621000Y-43893000D01*
X38700000Y-31682000D02*
X38700000Y-44318000D01*
X41301000Y-32420000D02*
X41301000Y-36560000D01*
X39581000Y-31799000D02*
X39581000Y-36560000D01*
X41781000Y-39440000D02*
X41781000Y-43296000D01*
X39941000Y-39440000D02*
X39941000Y-44116000D01*
X39421000Y-31769000D02*
X39421000Y-36560000D01*
X41901000Y-39440000D02*
X41901000Y-43216000D01*
X32107918Y-33800000D02*
X32107918Y-35050000D01*
X44661000Y-37683000D02*
X44661000Y-38317000D01*
X40221000Y-31966000D02*
X40221000Y-36560000D01*
X40981000Y-32261000D02*
X40981000Y-36560000D01*
X41461000Y-32509000D02*
X41461000Y-36560000D01*
X41501000Y-32532000D02*
X41501000Y-36560000D01*
X41061000Y-39440000D02*
X41061000Y-43702000D01*
X42861000Y-33592000D02*
X42861000Y-42408000D01*
X42221000Y-33018000D02*
X42221000Y-36560000D01*
X42901000Y-33633000D02*
X42901000Y-42367000D01*
X41181000Y-39440000D02*
X41181000Y-43642000D01*
X41061000Y-32298000D02*
X41061000Y-36560000D01*
X42261000Y-33050000D02*
X42261000Y-42950000D01*
X41661000Y-39440000D02*
X41661000Y-43372000D01*
X40061000Y-39440000D02*
X40061000Y-44083000D01*
X39461000Y-39440000D02*
X39461000Y-44224000D01*
X40821000Y-39440000D02*
X40821000Y-43811000D01*
X40181000Y-39440000D02*
X40181000Y-44047000D01*
X40981000Y-39440000D02*
X40981000Y-43739000D01*
X42821000Y-33551000D02*
X42821000Y-42449000D01*
X43741000Y-34725000D02*
X43741000Y-41275000D01*
X41541000Y-32555000D02*
X41541000Y-36560000D01*
X39741000Y-39440000D02*
X39741000Y-44166000D01*
X43341000Y-34144000D02*
X43341000Y-41856000D01*
X39341000Y-31755000D02*
X39341000Y-44245000D01*
X40421000Y-39440000D02*
X40421000Y-43967000D01*
X44021000Y-35236000D02*
X44021000Y-40764000D01*
X40941000Y-32242000D02*
X40941000Y-36560000D01*
X40381000Y-32019000D02*
X40381000Y-36560000D01*
X40501000Y-39440000D02*
X40501000Y-43939000D01*
X40861000Y-39440000D02*
X40861000Y-43793000D01*
X42621000Y-33358000D02*
X42621000Y-42642000D01*
X44541000Y-36759000D02*
X44541000Y-39241000D01*
X40861000Y-32207000D02*
X40861000Y-36560000D01*
X42541000Y-33286000D02*
X42541000Y-42714000D01*
X42501000Y-33250000D02*
X42501000Y-42750000D01*
X40421000Y-32033000D02*
X40421000Y-36560000D01*
X39661000Y-39440000D02*
X39661000Y-44184000D01*
X44581000Y-36972000D02*
X44581000Y-39028000D01*
X40261000Y-31979000D02*
X40261000Y-36560000D01*
X41621000Y-32603000D02*
X41621000Y-36560000D01*
X41341000Y-39440000D02*
X41341000Y-43558000D01*
X40941000Y-39440000D02*
X40941000Y-43758000D01*
X39701000Y-31825000D02*
X39701000Y-36560000D01*
X39421000Y-39440000D02*
X39421000Y-44231000D01*
X41461000Y-39440000D02*
X41461000Y-43491000D01*
X39381000Y-39440000D02*
X39381000Y-44238000D01*
X41661000Y-32628000D02*
X41661000Y-36560000D01*
X43461000Y-34304000D02*
X43461000Y-41696000D01*
X41541000Y-39440000D02*
X41541000Y-43445000D01*
X42701000Y-33433000D02*
X42701000Y-42567000D01*
X41301000Y-39440000D02*
X41301000Y-43580000D01*
X38820000Y-31691000D02*
X38820000Y-44309000D01*
X39461000Y-31776000D02*
X39461000Y-36560000D01*
X41381000Y-39440000D02*
X41381000Y-43536000D01*
X42341000Y-33115000D02*
X42341000Y-42885000D01*
X42061000Y-39440000D02*
X42061000Y-43102000D01*
X39101000Y-31720000D02*
X39101000Y-44280000D01*
X39621000Y-39440000D02*
X39621000Y-44192000D01*
X44341000Y-36016000D02*
X44341000Y-39984000D01*
X42021000Y-32869000D02*
X42021000Y-36560000D01*
X41821000Y-39440000D02*
X41821000Y-43270000D01*
X41261000Y-32399000D02*
X41261000Y-36560000D01*
X40021000Y-31906000D02*
X40021000Y-36560000D01*
X41101000Y-32318000D02*
X41101000Y-36560000D01*
X42221000Y-39440000D02*
X42221000Y-42982000D01*
X40741000Y-32155000D02*
X40741000Y-36560000D01*
X40301000Y-31992000D02*
X40301000Y-36560000D01*
X38940000Y-31702000D02*
X38940000Y-44298000D01*
X39821000Y-39440000D02*
X39821000Y-44146000D01*
X38780000Y-31688000D02*
X38780000Y-44312000D01*
X40021000Y-39440000D02*
X40021000Y-44094000D01*
X43101000Y-33852000D02*
X43101000Y-42148000D01*
X39981000Y-31895000D02*
X39981000Y-36560000D01*
X40141000Y-31941000D02*
X40141000Y-36560000D01*
X42661000Y-33395000D02*
X42661000Y-42605000D01*
X38340000Y-31670000D02*
X38340000Y-44330000D01*
X39021000Y-31710000D02*
X39021000Y-44290000D01*
X43221000Y-33993000D02*
X43221000Y-42007000D01*
X43181000Y-33945000D02*
X43181000Y-42055000D01*
X41701000Y-32653000D02*
X41701000Y-36560000D01*
X38380000Y-31670000D02*
X38380000Y-44330000D01*
X41381000Y-32464000D02*
X41381000Y-36560000D01*
X43941000Y-35079000D02*
X43941000Y-40921000D01*
X43421000Y-34250000D02*
X43421000Y-41750000D01*
X41221000Y-39440000D02*
X41221000Y-43622000D01*
X39181000Y-31731000D02*
X39181000Y-44269000D01*
X42181000Y-39440000D02*
X42181000Y-43012000D01*
X43501000Y-34360000D02*
X43501000Y-41640000D01*
X44301000Y-35900000D02*
X44301000Y-40100000D01*
X44261000Y-35791000D02*
X44261000Y-40209000D01*
X40141000Y-39440000D02*
X40141000Y-44059000D01*
X43781000Y-34792000D02*
X43781000Y-41208000D01*
X42581000Y-33322000D02*
X42581000Y-42678000D01*
X41781000Y-32704000D02*
X41781000Y-36560000D01*
X41261000Y-39440000D02*
X41261000Y-43601000D01*
X40541000Y-32076000D02*
X40541000Y-36560000D01*
X39661000Y-31816000D02*
X39661000Y-36560000D01*
X43381000Y-34196000D02*
X43381000Y-41804000D01*
X39221000Y-31736000D02*
X39221000Y-44264000D01*
X41621000Y-39440000D02*
X41621000Y-43397000D01*
X39261000Y-31742000D02*
X39261000Y-44258000D01*
X39501000Y-31784000D02*
X39501000Y-36560000D01*
X42941000Y-33675000D02*
X42941000Y-42325000D01*
X41501000Y-39440000D02*
X41501000Y-43468000D01*
X39301000Y-31748000D02*
X39301000Y-44252000D01*
X42981000Y-33718000D02*
X42981000Y-42282000D01*
X41141000Y-32338000D02*
X41141000Y-36560000D01*
X41821000Y-32730000D02*
X41821000Y-36560000D01*
X38660000Y-31680000D02*
X38660000Y-44320000D01*
X42741000Y-33472000D02*
X42741000Y-42528000D01*
X40701000Y-39440000D02*
X40701000Y-43861000D01*
X40741000Y-39440000D02*
X40741000Y-43845000D01*
X44221000Y-35688000D02*
X44221000Y-40312000D01*
X40781000Y-32172000D02*
X40781000Y-36560000D01*
X42141000Y-32957000D02*
X42141000Y-36560000D01*
X40661000Y-32123000D02*
X40661000Y-36560000D01*
X44381000Y-36139000D02*
X44381000Y-39861000D01*
X40381000Y-39440000D02*
X40381000Y-43981000D01*
X42421000Y-33181000D02*
X42421000Y-42819000D01*
X43701000Y-34661000D02*
X43701000Y-41339000D01*
X43821000Y-34860000D02*
X43821000Y-41140000D01*
X40621000Y-32107000D02*
X40621000Y-36560000D01*
X39701000Y-39440000D02*
X39701000Y-44175000D01*
X40341000Y-39440000D02*
X40341000Y-43995000D01*
X44421000Y-36272000D02*
X44421000Y-39728000D01*
X41421000Y-39440000D02*
X41421000Y-43514000D01*
X41861000Y-39440000D02*
X41861000Y-43243000D01*
X38500000Y-31673000D02*
X38500000Y-44327000D01*
X38860000Y-31694000D02*
X38860000Y-44306000D01*
X43581000Y-34476000D02*
X43581000Y-41524000D01*
X44670000Y-38000000D02*
G75*
G03*
X44670000Y-38000000I-6370000J0D01*
G01*
%TO.C,C3*%
X71350000Y-32600000D02*
X71350000Y-32915000D01*
X66110000Y-35340000D02*
X71350000Y-35340000D01*
X71350000Y-35025000D02*
X71350000Y-35340000D01*
X66110000Y-32600000D02*
X71350000Y-32600000D01*
X66110000Y-32600000D02*
X66110000Y-32915000D01*
X66110000Y-35025000D02*
X66110000Y-35340000D01*
D14*
%TO.C,A1*%
X98645000Y-44600000D02*
X80865000Y-44600000D01*
X98645000Y-1420000D02*
X98645000Y-44600000D01*
X80865000Y-44600000D02*
X80865000Y-1420000D01*
X80865000Y-1420000D02*
X98645000Y-1420000D01*
D15*
X79655000Y-5210000D02*
G75*
G03*
X79655000Y-5210000I-100000J0D01*
G01*
D13*
%TO.C,C4*%
X104450000Y-46570000D02*
X104450000Y-41330000D01*
X101710000Y-41330000D02*
X102025000Y-41330000D01*
X101710000Y-46570000D02*
X102025000Y-46570000D01*
X104135000Y-41330000D02*
X104450000Y-41330000D01*
X104135000Y-46570000D02*
X104450000Y-46570000D01*
X101710000Y-46570000D02*
X101710000Y-41330000D01*
D14*
%TO.C,J2*%
X104448000Y-17627000D02*
X102112000Y-17627000D01*
X102112000Y-7873000D02*
X104448000Y-7873000D01*
X104448000Y-7873000D02*
X104448000Y-17627000D01*
X102112000Y-17627000D02*
X102112000Y-7873000D01*
D15*
X101212000Y-16560000D02*
G75*
G03*
X101212000Y-16560000I-100000J0D01*
G01*
D13*
%TO.C,U1*%
X56550000Y-30795000D02*
X56550000Y-32945000D01*
X64075000Y-30245000D02*
X53825000Y-30245000D01*
X46490000Y-970000D02*
X46490000Y-30570000D01*
X46490000Y-30570000D02*
X71590000Y-30570000D01*
X53825000Y-30245000D02*
X53825000Y-15020000D01*
X61630000Y-30795000D02*
X61630000Y-32945000D01*
X71590000Y-970000D02*
X71590000Y-30570000D01*
X59090000Y-30770000D02*
X59090000Y-32920000D01*
X64140000Y-15020000D02*
X64125000Y-30245000D01*
X53825000Y-15020000D02*
X64125000Y-15020000D01*
X46490000Y-970000D02*
X71590000Y-970000D01*
D14*
%TO.C,J1*%
X8760000Y-39420000D02*
X8160000Y-39420000D01*
X8760000Y-39420000D02*
X8760000Y-48920000D01*
X8160000Y-48920000D02*
X8760000Y-48920000D01*
X8760000Y-48920000D02*
X24000000Y-48920000D01*
X24000000Y-48920000D02*
X24000000Y-39420000D01*
X24000000Y-39420000D02*
X8760000Y-39420000D01*
X8160000Y-39420000D02*
X8160000Y-48920000D01*
%TD*%
M02*
