%TF.GenerationSoftware,KiCad,Pcbnew,(6.0.7)*%
%TF.CreationDate,2022-10-25T14:44:23+02:00*%
%TF.ProjectId,Affichage_Temp_Humidite,41666669-6368-4616-9765-5f54656d705f,rev?*%
%TF.SameCoordinates,PX4692680PY2625a00*%
%TF.FileFunction,Other,User*%
%FSLAX46Y46*%
G04 Gerber Fmt 4.6, Leading zero omitted, Abs format (unit mm)*
G04 Created by KiCad (PCBNEW (6.0.7)) date 2022-10-25 14:44:23*
%MOMM*%
%LPD*%
G01*
G04 APERTURE LIST*
%ADD10C,0.050000*%
%ADD11C,0.120000*%
G04 APERTURE END LIST*
D10*
%TO.C,R2*%
X101640000Y-38950000D02*
X104640000Y-38950000D01*
X104640000Y-38950000D02*
X104640000Y-26690000D01*
X101640000Y-26690000D02*
X101640000Y-38950000D01*
X104640000Y-26690000D02*
X101640000Y-26690000D01*
%TO.C,R4*%
X56110000Y-51320000D02*
X56110000Y-54320000D01*
X68370000Y-54320000D02*
X68370000Y-51320000D01*
X68370000Y-51320000D02*
X56110000Y-51320000D01*
X56110000Y-54320000D02*
X68370000Y-54320000D01*
D11*
%TO.C,D1*%
X34075024Y-11402680D02*
X42935300Y-11392400D01*
X42935300Y-11392400D02*
G75*
G03*
X34075024Y-11402680I-4435268J4416199D01*
G01*
D10*
%TO.C,C2*%
X41340000Y-13440000D02*
X34540000Y-13440000D01*
X34540000Y-30640000D02*
X41340000Y-30640000D01*
X41340000Y-30640000D02*
X41340000Y-13440000D01*
X34540000Y-13440000D02*
X34540000Y-30640000D01*
%TO.C,D3*%
X57020000Y-42480000D02*
X67340000Y-42480000D01*
X57020000Y-39280000D02*
X57020000Y-42480000D01*
X67340000Y-39280000D02*
X57020000Y-39280000D01*
X67340000Y-42480000D02*
X67340000Y-39280000D01*
%TO.C,R1*%
X73900000Y-15130000D02*
X76900000Y-15130000D01*
X76900000Y-15130000D02*
X76900000Y-2870000D01*
X73900000Y-2870000D02*
X73900000Y-15130000D01*
X76900000Y-2870000D02*
X73900000Y-2870000D01*
%TO.C,F1*%
X27130000Y-44910000D02*
X53130000Y-44910000D01*
X53130000Y-44910000D02*
X53130000Y-55010000D01*
X27130000Y-55010000D02*
X27130000Y-44910000D01*
X53130000Y-55010000D02*
X27130000Y-55010000D01*
%TO.C,R3*%
X56070000Y-49100000D02*
X68330000Y-49100000D01*
X68330000Y-49100000D02*
X68330000Y-46100000D01*
X68330000Y-46100000D02*
X56070000Y-46100000D01*
X56070000Y-46100000D02*
X56070000Y-49100000D01*
%TO.C,TR1*%
X2050000Y-37650000D02*
X30550000Y-37650000D01*
X30550000Y-6150000D02*
X2050000Y-6150000D01*
X2050000Y-37650000D02*
X2050000Y-6150000D01*
X30550000Y-6150000D02*
X30550000Y-37650000D01*
%TO.C,D2*%
X72850000Y-18250000D02*
X72850000Y-24750000D01*
X79300000Y-24750000D02*
X79300000Y-18250000D01*
X79300000Y-18250000D02*
X72850000Y-18250000D01*
X72850000Y-24750000D02*
X79300000Y-24750000D01*
%TO.C,J3*%
X75412000Y-46727000D02*
X75412000Y-36473000D01*
X78248000Y-36473000D02*
X78248000Y-46727000D01*
X75412000Y-36473000D02*
X78248000Y-36473000D01*
X78248000Y-46727000D02*
X75412000Y-46727000D01*
%TO.C,C1*%
X44800000Y-38000000D02*
G75*
G03*
X44800000Y-38000000I-6500000J0D01*
G01*
%TO.C,C3*%
X72280000Y-32470000D02*
X65180000Y-32470000D01*
X65180000Y-35470000D02*
X72280000Y-35470000D01*
X65180000Y-32470000D02*
X65180000Y-35470000D01*
X72280000Y-35470000D02*
X72280000Y-32470000D01*
%TO.C,A1*%
X93005000Y-46755000D02*
X93005000Y-44850000D01*
X86535000Y-44850000D02*
X86535000Y-46755000D01*
X80615000Y-44850000D02*
X80615000Y-1170000D01*
X86535000Y-46755000D02*
X93005000Y-46755000D01*
X98895000Y-1170000D02*
X98895000Y-44850000D01*
X80615000Y-44850000D02*
X86535000Y-44850000D01*
X93005000Y-44850000D02*
X98895000Y-44850000D01*
X80615000Y-1170000D02*
X98895000Y-1170000D01*
%TO.C,C4*%
X101580000Y-40400000D02*
X101580000Y-47500000D01*
X101580000Y-47500000D02*
X104580000Y-47500000D01*
X104580000Y-47500000D02*
X104580000Y-40400000D01*
X104580000Y-40400000D02*
X101580000Y-40400000D01*
%TO.C,J2*%
X101862000Y-17877000D02*
X101862000Y-7623000D01*
X104698000Y-17877000D02*
X101862000Y-17877000D01*
X104698000Y-7623000D02*
X104698000Y-17877000D01*
X101862000Y-7623000D02*
X104698000Y-7623000D01*
D11*
%TO.C,U1*%
X53690000Y-30370000D02*
X53690000Y-14870000D01*
X71840000Y-30770000D02*
X71840000Y-770000D01*
X46340000Y-30770000D02*
X46340000Y-770000D01*
X53690000Y-14870000D02*
X64290000Y-14870000D01*
X71840000Y-30770000D02*
X46340000Y-30770000D01*
X53690000Y-30370000D02*
X64290000Y-30370000D01*
X71840000Y-770000D02*
X46340000Y-770000D01*
X64290000Y-30370000D02*
X64290000Y-14870000D01*
D10*
%TO.C,J1*%
X24250000Y-39170000D02*
X24250000Y-49170000D01*
X24250000Y-49170000D02*
X7910000Y-49170000D01*
X7910000Y-49170000D02*
X7910000Y-39170000D01*
X7910000Y-39170000D02*
X24250000Y-39170000D01*
%TD*%
M02*
